<svg xmlns="http://www.w3.org/2000/svg" viewBox="0 0 374 581">
  <path d="M214 17c-1 1 0 3-2 5v1a1 1 0 0 1-1 1l-2-1-1 1h1v1a2 2 1 0 0 3 2l3-1v10l3 6v2h-1a1 1 0 0 0-1 2l1 2a1 1 0 0 1-1 1h-1l-1 1 4 2 4 1-1 2a1 1 37 0 0 0 2h2l4-3h1l3 3-1 2c-1 1-4 0-5-1v1h-1a1 1-66 0 0 1 1l3 2h1l-2 1h-2a1 1-45 0 0 0 1l2 2v1h-2c-3-2-4-8-8-5q-2 0-2-2h2a1 1 0 0 0 0-2l-3-1v-1l1-1h3l-2-2q-3-3-5-1h-2c-4-6-5-10-6-17V21l1-1q1-2 3-1 0 2 2 1l2-1 1-1 1-2a1 1 29 0 0-1-2l-1-1q0-2 3-1h1l-1-2h-2V9h1l3-2h6v1q1 0 0 0l-4 2v1q-1 0 0 0v1h1v1l-3 1-2 3Zm-6 12q-2 0-2 2v1h-2a1 1 0 0 0 0 1l1 1a1 1 0 0 0 1 0l1-1 6 2a1 1-2 0 0 1-1q0-2-2-3h-1v-1l-1-1h-2Zm5 8h-3v1a2 2-10 0 0 2 1 2 2-10 0 0 2-2h-1Zm-1 7a3 1 18 0 0-2-2 3 1 18 0 0-3 0 3 1 18 0 0 2 2 3 1 18 0 0 3 0Zm32 22v1c-2 0-2 3-1 4q2 3-1 2-2 0-2-3v-2q0-3-2-1l-1 2a2 2 21 0 1-2 1q-2 0-1-2 0-3 3-3 1 1 1-1l1-1c2 0 3 2 5 3Zm-13-2 1 1v5l-1 3-1 1-1-1 1-2v-1q-2-1-2-3v-1l1-1 2-1Z"/>
  <path d="M243 76q2 2 1 3l-6-3c-1-1-5-2-3-5h1l1 1a2 2 11 0 0 0 1l3 1a1 1-33 0 1 1 0l2 2Zm14-4 2 1q1 2 3 2l9 4 9 3-2 1c-2-1-5-2-7 0h-2l-1 1 1 1 4 1a1 1-77 0 1 1 1l-1 1q-3-2-7-2l-2-2a1 1 0 0 0-1 0v4a1 1 0 0 1-1 0l-6-3-5-3a1 1 77 0 1 0-2h1l1 1v-4l2-2 1-1h1v-2Zm0 9q-1 1 1 2a2 2 54 0 0 1 1q3-1 1-3 0-2 2-2a1 1 82 0 1 1 1h1a1 1 0 0 0 0-1q1-2-2-2h-4a1 1-70 0 0-1 0v4Zm-14 0 5 2 1 1h1q2 1-1 2l-3-2-4-2-10-7v-1a2 2 0 0 1 2 1l7 4 2 2Z"/>
  <path d="m279 86 6 2h1c1 2 3 5 5 4h1v-1q4 2 8 7h-2l-3-1h-1v1l4 2v2h-3v1l4 5h1l1-1a1 1 0 0 1 1 0l2 2 1-2h1c1 1 0 3 2 4l1 1-1 1h-1a1 1 0 0 0-1 0l2 4 4 1v1l-2 1v1l-1 1-2-3a1 1 0 0 0-1 1v3l-5 1q-2 1 0 1h1a1 1-35 0 1 1 0l1 1v6h1v1l3-1 2-2v-1q0-3 2-4l1 2 1 1v3l-1 1h-1v1a1 1 0 0 0 0 1h1a1 1 74 0 1 1 0q1 6-1 11l-1 1-1 2q-3 6-8 8-1 1 0 0l6-7 2-4 2-8-1-1a1 1-80 0 0-1 1q-1 8-7 13 1-4 4-7v-2c-3-2-4 1-5 3l-1-1h-2q-3 5-7 8v3h-2a1 1 0 0 0 0 2h2c2 2 7-2 9-4q2-2 0 1c-2 2-11 9-13 6a1 1 72 0 0-1 0h-6l-5 1v1c2 2 4 0 6 1l1 1-3 1h-3l-1 3 1 1 16-2q5-2 8-6l3-2 5-6 1 1v1l-5 6-6 5-1-1v1c-3 3-6 3-9 3l-11 2-2 1 1 2 8 13 2 4v1l1 2v1c1 2 1 5 3 7q5 4 7 8l4 5 5 9-1 3v5l-1 7-2 6 1 2h1l1-1-1-3v-1q3-6 1-12v-1h1l1-1v17c4 4 6 6 7 11a2 2 0 0 0 2 1h7c3-2 6-6 9-6l8 2-1 1-3 1-4-1a1 1 0 0 0 0 1q2 3 5 4h2l2 3q2 2 6 1l1 1v1l-3 1 1 10v2h3c0 3-2 2-2 4l-2 6h-1v-4c-3 2-3 6-4 8a1 1 0 0 1-1 1q-3 0-2 2v5h1v-6q1-2 2 0v2h1l1-7q2 1 3-1l2-1 1 1-2 3a1 1 73 0 0-1 1l-2 6v1h2q2 1 1 3-1 4 1 8v5h1l-2 4-4 8h-1v-1l4-6a1 1 0 0 0-1-2h-1a1 1 0 0 1 0-1l1-2-1-2a1 1 0 0 0-2 0l-3 8-1 1-1 2q1 4 2 0v-3l4-1-3 8 1 5q0 2 3 2l1-1h1q2-2 1 1h-1l-1 1q0 2 2 2 0 1 0 0h2l-1 1a1 1 24 0 0 1 2l2-1a1 1 56 0 0 1-1l-3-8c0-2 1-3-1-5a1 1 0 0 1 0-1l2-3v-1q-1-2 1-5a1 1 0 0 0-1-1l-1-1 2-3 1-1q2 1 4-1v-1l-2-1h-1l1-3a1 1 0 0 0-2-2l-2 1-1-2 1-2 2-6c1-1 2-2 1-3v-1c-3 0-2-2-2-4l1-2q-1-5 1-6l1 10v1c4 3 6 5 8 10l2 5 2 5 2 5v1l2 4v2q-1 2 1 3l1 3h-1l-2 1q-1-6-2-4h-3q-2 0-3-2h-1c-5 0-4 4-3 7v1c-1 2-2 4-1 6l-1 2a1 1 0 0 0 0 1v2h1l7 2a2 2 0 0 0 2-1v-3l1-1 2-1 1 1-1 3c-2 3-1 5-2 8h-1v2h-3q1-4-2-4l-3-1-2-1h-1c-1 5-3 13-9 7q0-3-3-3v-1l-1-1h-1l-5 5a1 1-65 0 1-1 0c-2 0-3-1-4-4q0-2-2-3v-10c0-3-2-5-3-8h2v-1l-1-2 2-3 3-7v-2a2 2 5 0 1-1-1l-1-2v-1c-1-4-4-7-6-10h-3a1 1-30 0 1-1 0q-3-2-5 0l-2 2c-2 3-4 6-8 8q-1-1-2 1h-1q-2 0-3 2l-3 1-3-1-5-4q-1-2-4-1l-2-1-6-5c-2-3-5-6-8-7l-1-1-4-3h-2c-1-2-4-2-6-3l-4-1-6-2-8-2c-4-1-6 4-4 7v1l-3 1c-5 3-8-1-11-5a1 1 75 0 0-1 0c-3-1-6-1-6 3h-1a1 1 0 0 0-1 1l1 1-3 5-2 2c-4 3-3 6-3 10v1h1a1 1 0 0 1 0 1v5a2 2-61 0 0 0 1l1 6q2 4 1 9l-4 14a1 1 29 0 0 1 1l3 2v2l-7-3v-2h-1l-4-2h-1v3h-3l-1-1h-5v1l1 1 4-1 1 1a1 1 75 0 0 1 1c4 0 7-1 10 2h1l-1 1a1 1 0 0 0-1 1h1l6 1 4 1q3 2 5 7l-2 1v1c1 3 0 5-2 7l-3 1-2-2a1 1-29 0 0-1 0c-2 0-4 1-6-1a1 1-74 0 1 0-1c-1-1-1-4-3-3a1 1-5 0 0-1 1l2 3 8 6 4 8c1 2 0 3-2 4v-1h-1l1 1c1 5-2 8-4 12v6c-1 5 4 5 7 7h4l1-1q2 1 3-1v-1h-1l-2 2 1-4a1 1-25 0 0 1-1l-1-7a1 1 0 0 1 1-1l1-1v-1h-2v-1q2-1 1-2v-1c-4-4-5-4-4-10l1-1v-2l-1-1q-2 1-2-2l1-3q2-1 3-5v7c2 4 2 8 1 12l1 1q4 4 3 9c-1 1-2 3-1 5q2 6 1 10l-3 2-1 1c-2 4-3 3-6 5a1 1-38 0 0-1 1q2 1 2 3l-1 1-6 2-5 2-9 3a2 2 0 0 0-2 2l4 13h1l2-1 1-1v-1h2a1 1 39 0 1 1 0h3l1-1 2 1 2-1 1-1h2l1-1v-8a1 1 0 0 0-1 0h-1v3l-1 5v-13h3a1 1 7 0 1 0 1v3q2 5 1 10l-1 1-1 1a1 1-9 0 1 0 1c-2 1-4 0-6 2h-4l-2 1-6 3h-2v1l1 1a1 1-66 0 0 1 0v-1l2-1 1 1v13a1 1-7 0 0 1 1c3 0 5 3 5 5q-1 4 1 1 2-2 0-5v-2l1-3v-1l-1-3-1-1h-1v-1l1-1h2l1 2q0 1 0 0h1q-2-2 0-3v-1a1 1 0 0 0-1-1q-2 2-3 1-2-1-1-2v-1a1 1 0 0 1 1 0l2 1 1-1 1-1 1 9 2 8q-1 10 1 19l1 2v1l3 9 1 1q0 4 3 6l1 3 1 2 1 4 1 4v-1l1 3v1l4 5v2l1 2 1 2q2 2 0 1h-6a1 1-71 0 1 0-1v-1l-1-1q-3-2-5 1h-2l-3-1q-1-2-1 0v3l3 2v3l-1 1a1 1 26 0 0 0 1l4 1 1-1 2-1 1 1v2l-3-1v1l3 1 4 3a1 1 42 0 0 1 0v-2h-1a1 1 0 0 1-1 0v-2h1v-1l-2-2c-3-1-5-1-7-3v-1l1 1 5 2v-2q3-2 7-2h2a2 2 0 0 0 1 0h7c3 1 4 2 5 4h-4l1 5 3 2 2-1 1-3v3l1 5-1 1h-5q0-1 0 0l2 4 3 1h1a1 1 0 0 1 1 0v2h-5v1l4 2 1 1a1 1 7 0 1-1 1h-2v1l1 1h2l1 3q0 2-2 2h-1l-1 3-3 1-2 1 1 4q-2 0-2-2-1-3-5-2h-6q0 3-2 3h-3l-3-1-3-3v-2l-1-1-1-1h-4c-5-1-7-4-11-7l-9-9-1-1q0-2-2-2v-3h1v-1l-1-1v-3l-1-2-1-2v-1h-1l-2-3v-1a1 1-87 0 0-1-1l-1-1-1-1q0-2-2-2-5-5-8-11 0-2-2-2l-7-11-2-2q0-3-2-3l-2-2q0-2-2-2l-2-3-2-2c-2-5-7-10-12-14q1-2-2-2l-8-10q3-1 2-3h-1l-1 1-1 1-4-6-3-5-2-4c-1-8-8-10-15-12a1 1 0 0 1 0-1c-3-4-7-5-10-8v-2h2l1 1 2 2c3 3 7 7 12 8v-2l-12-6a1 1 4 0 1 0-1l-1-2-2-1q-1-2-4-2v-1c-2-1-2-3-5-3v1l1 2 6 4-3 1-10-6q-2-3-8-4-6-4-12-2l-2-1q-2 1-1 2l-4 3h-1a1 1 48 0 0 0 1l-2 6v6q-2 3-2 7l-2 6q-1 3-4 3t-1 2l3 1 1-1a1 1 0 0 1 1 0l4 5v11l-1 6q0 3-3 5l-2-1q0 1 0 0h-1v6q-1 4-3 4c-2-7-7-3-10 0l-1 2h-1q-2 0-3-2v-1h-2l-1 1c-3 2-5-3-5-5l-2-4c0-2-3-2-4 0q-2 2-4 1l-1-1-1-6-1-6-3-11c-1-3 5-7 6-9 2-3 2-5 2-9l1-12c0-5-4-11-4-15v-19l1-1-1-1-1-2-1-6 1-1-2-1-1-10v-3a3 3 0 0 1-1-4q2-2 0-3v-12c2-5 3-12 2-18v-5q2-1 3-6c2-5 2-8 2-14l1-7q2-7 7-13l2-1 7-3 7 3h2q0 1 0 0v-1q-3 0-4-2l3-1q2 1 3-1l-1-2 2-3v-3l4-10c0-4 2-7 4-11 2-2 3-7 6-10l7-14q2 0 2-3l9-11 13-13c4-5 8-7 12-10l5-3 6-5 5-3 5-3q2 1 4-2l11-6 4-3 9-6 14-6 8-2 5-1c5-3 11-2 19-2l4-1h18v-1h6l5-1a1 1 0 0 1 1 2h-2v1h1l2 1 1-1a1 1-52 0 0-1-1l2-1h2v3h2l2 3a1 1-82 0 1-2 1h-2q-2 1-1 3l1 1c4 0 6 2 9 5 1 2 3 0 5 0l1 1v1l-3 1-1 1 1 1c3 1 3 3 4 5v1l-1 4q1 1-1 1l-7 1a2 2 0 0 1-2-1c-2-4-6-6-6-11q2 0 2-2v-1q-1-1 0 0l3 2 2-1a1 1-41 0 0 0-1l-3-2-1-1v-1a3 3-2 0 0-3-2l-3-1v-7h-5l-8-1a2 2 56 0 0-1 0h-6c-2 2-4 4-6 4l-3 2h-5a2 2-25 0 1-1-1h-3v2h-1q-2-3-5-2a2 2 4 0 1-2-2v-1h1q1 2 3 2h1v-1a1 1-79 0 0 0-1l-4-1q-4-2-8 2l-1 1h-6v1l2 2 1 1 1 3a1 1-11 0 1-2 2h-6l-4-2-1 1v1c1 2 3 2 5 2l1 1v1h-1q-3 1-4-1a2 2 0 0 0-3-1l-4 3a1 1 0 0 0-1 1 1 1 75 0 0 2 1l6-1a1 1 0 0 1 0 1v1a1 1 79 0 0 1 1l1-1 1-1q-1-1 1-1h4c1-2 3-1 4 0 1 2 5 5 2 7h-4l2-1a2 2 13 0 0 2-1v-2h-1l-3 2h-1q0-2-3-3v4q-3 1-5-1h-2a1 1-80 0 0 1 1l2 2c-1 1-4 2-5 1v-2h-2v1l1 1h-1l-6-1h-4c-3 0-11 0-12 3l-3 2h-5q-5 0-9 2l-1 1v1l2-1 3-1h1l3 3h1c5-1 6 0 9-5v-1l6-1v1l-1 3a1 1-43 0 0 0 1c1 4-3 4-5 7a1 1 0 0 1-2 0l-3-3a1 1 0 0 0-1 1h-1v2c3 3 6 0 9 1h2l1-2a1 1 0 0 1 1 0v1c-1 3-6 3-9 4h-1l-5-2q-1-1-1 1l1 4a1 1-25 0 0 2 1l4-3a1 1-43 0 1 1 0q3 2 6 1v1c-3 3-5 3-10 4h-5c-2 3-3 5-7 6-2 0-3 1-3 3a1 1 74 0 1-1 1l-1 1a1 1 0 0 0-1 1l1 2 1 2 2 1c1 3 0 8-3 10v2a1 1-49 0 0 2-1c2-2 3-5 6-6l5-2a2 2 0 0 1 2 1c2 2 4 1 6 2l1 1q0 3-2 5v1l-1 4a2 2 0 0 1-4 2c-3-2-6-4-9-1-2 5-3 3-7 4a2 2 0 0 0-1 3l3 5a1 1-41 0 0 2 0l1-2h-1l-2-1a1 1 0 0 1 1-2h4l1 4q4-1 7 1 1 1 2-1v-1q1-1-1-2l-6-1v-1q4 0 7 2h1c4-1 8 1 13 2v1l6 5a1 1 0 0 1 0 1l-2 2q-2 2 1 1l2 1 6 5h1l1-1v-1l-1-2-1-1q-2 0-3-2-1 0 0 0c3 0 3-2 3-4h1q3 0 4-2l2-4v-1h3v-3c2 1 2 3 4 3v-2l-1-1-3-2-6-4v-1a1 1 0 0 1 1 0l2 2a1 1 0 0 0 2 0q1-2-1-4v-1l1-6a2 2 0 0 0-2-2l-3-1h-1v1l1 1 1 1a1 1 0 0 1 0 1l-3-2v-1q2-4-2-7-1-1 1-2c4 0 6 2 11 0a1 1 0 0 0 0-2l-1-1q-3-2 0-2l3-1c2 0 2-2 5-1l5 1a2 2 0 0 1 2 2l-1 6c-2 5-10 4-10 10a1 1 6 0 0 0 1q4 1 5 3 0 2-1 1l-3-3a1 1-58 0 0-1 0c-1 1-4 3-4 5v1l-1 3 1 1 3 1a1 1 0 0 0 1 0v-1l1-1 4-2a1 1 81 0 0 0-1l1-2a1 1-19 0 1 0-1l1-3a1 1 0 0 1 2 0c2 4 5 2 7 1l3-1a1 1 60 0 1 2 1l5 9c1 2 2 3 4 3a1 1 0 0 1 1 1c1 3 0 6 2 9a1 1 0 0 0 1 1l2 1a1 1 29 0 0 1-1v-3a1 1 0 0 1-1-1q0-7-3-13-3-4-1 1l4 12a1 1 63 0 1-1 1h-1q-2-3-2-7l-3-4-3-11a2 2-19 0 0-2-1l-6 1h-1l-2 1a1 1 0 0 1-2 0l-3-4q-2-2 1-2 2 0 3-2h-1v-2a1 1-88 0 1 0-1h4a2 2 0 0 0 1-3l-2-2a2 2-42 0 1 0-3l3-2a1 1 0 0 1 1 0l4 3a3 3-75 0 1 1 2l1 8 1 1 1-1v-2q0-3 1 0l1 3v1q3 0 3-2v-1l-5-9q-2-2 0-1l3 4 3 1a2 2 0 0 0 1-2q-3-5-7-7v-1h2l3 3 1 1q5-1 5-6a1 1 0 0 0-1 0q-2 0-3 2l-4-2a1 1-73 0 1-1-1q0-3 3-3h1l1 1 1-1c-2-4-5-7-9-6l-1 1c1 3 3 3 4 5q-3 0-4 3a2 2-3 0 1-1 0c-4 3-7 0-11-2a1 1-72 0 1-1-1q1-3-2-5a1 1 47 0 1 0-2q3-3 7-2h1l7-5 2 1c-1 2 0 5 2 6l6 5q1 2 3 2h2q2 0 1-2-2-1-2-3-1-1 0 0l3 3h2v-2a1 1 0 0 1 1-1q3 0 4 2l2 4v1q6 4 9 15a2 2 5 0 0 1 1h1l-2-12c3-2 4-3 6-1l7 6a2 2 0 0 1-1 3l-4 1a1 1 0 0 0-1 1l2 1h1c0 2 1 3 3 2v2c3-2 7-1 10 2a1 1 0 0 1 0 1l-2 4q-1 2-2 1a1 1 0 0 0-1 1v2a1 1-84 0 0 1 1h2l3-5v1l-1 4v1a1 1 0 0 0 1 0l1-3 1-2a1 1 0 0 1 1 1q1 5-1 10a1 1 0 0 0 2 1l1-1v1l-1 3v2h1a2 2 0 0 0 2 0c2-4 1-5 1-8v-1q2-3 5-4a1 1 0 0 0 1-1l3-4a1 1-88 0 0 1 0c1-3 4-6 3-11h-2a2 2 57 0 0 0 2v2q1 1 0 0-3-2-1-5t7-2h1v-1h1l-1 1v1q2 0 1 2a1 1 0 0 0 1 1h1a1 1-30 0 0 0-1l-1-6h-1v1h-1l-1-8a1 1 29 0 0 0-1l-2-1v-1l1-4v-1c-3-2-4 0-6 0l-4 1a2 2 7 0 1-2-3c0-2 1-5-1-7a1 1-75 0 0-2 1l1 6v1q-2 1-2 3a1 1-58 0 0 0 1l2 3 1-1v-3l1-1 1 4a1 1 0 0 0 1 1h2a1 1 0 0 1 1 1v5a1 1-80 0 1-1 1l-3-1a1 1 0 0 1-1-1v-2h-1a1 1 0 0 1-1 1l-1-1v-1q1-2-1-3l-1-1h-1l-1 2h-1l-3 1-1 1h-2l-1 1q-2-1-1-3a1 1 0 0 0-1-1c-3-3-7-9-11-9a1 1-88 0 1-1-1q0-4-2-6l1-1c3 1 13 3 14 7v4a1 1 0 0 0 1 0h1a1 1 0 0 0 1 0v-3a1 1-61 0 0 0-1q-4-3-5-7a1 1 89 0 0-1-1l-2-1h4c0 4 4 6 6 7l1 2v1h-1l-1 3v1a1 1 30 0 0 1 0l1-1a1 1 0 0 1 2-1l1 1a1 1 0 0 0 2-1v-5c0-4-1-8-5-8h-1v-1h-1c-3-1-4-6-5-9l1-1c5 1 8 0 11-4l2 2 1-1v-1a1 1 0 0 1 1-1l2 2-1 1v1q5 3 11 3v-6l1-1h-1l-4-2h-9l-2 2h-1l-4-3 1 2v1h-1q-3-2-7-2h-1l1-2 2-1v1h4v-1h-3q-3-2-3-4l6 2 3 1h9c4 1 8 0 12-1h5c8 0 14-7 16-14l1-6q1-14-11-20l-4-3-5-4-18-10q-4 0-8-3 0-3 2-2l2 2h1l5 3h1l6 2q4 0 8 3a1 1 0 0 0 2-2l-2-2v-1h-3 2a1 1-11 0 0 2-2l-2-4h1l2 1Zm10 8a1 1 44 0 0-1-1 1 1 44 0 0-2 0 1 1 44 0 0 1 1 1 1 44 0 0 2 0Zm-8 6h6a3 2 3 0 0-3-2 3 2 3 0 0-4 2h1Zm10 8h1a1 1 0 0 0 0-1q-1-3-4-2-2 0 0 1l3 2Zm12 5a1 1 37 0 0 0-2 1 1 37 0 0-2 0 1 1 37 0 0 1 2 1 1 37 0 0 1 0Zm6 23-1 1a1 1 0 0 0-1 1l2 1v-3Zm-114 5a1 1-3 0 0-2 0 1 1-3 0 0-1 0 1 1-3 0 0 2 1 1 1-3 0 0 1-1Zm32 0a1 1-79 0 0-1 1l2 1v-1l-1-1Zm70 4h-6l-1 1v3h4l3-4Zm-138 2a1 1 3 0 0-1-1 1 1 3 0 0-1 0 1 1 3 0 0 1 1 1 1 3 0 0 1 0Zm-6 1-1-1v1h1Zm0 2c-1-1-5 0-6 1h6v-1Zm124 1-1 1h1l2-1 2-1q-2-1-4 1Zm-44 0-2-1v1l4 3v1h2q-1-3-3-3l-1-1Zm39-1v1h2l-1-1h-1Zm15 4 2-2a1 1 0 0 0 0-1l-4-1a1 1 0 0 0-1 1v1a1 1 0 0 0 0 1l3 1Zm-149 4 2-2a1 1 8 0 1 1 0l4-2v-1c-2 0-5 0-6 2v1l-3 3h-1l-2 1-1 1 2-1a1 1 22 0 1 1 0h2a1 1 22 0 0 1 0v-1a1 1 0 0 1 0-1Zm96 1 2 2 1-1-1-1h-4v1l2-1Zm22 11q4 1 4 3a2 2 0 0 0 1 3c4 0 4 3 6 5a3 3 80 0 0 2 2 1 1 0 0 0 1-1l-1-3h-1l1-1v-1q-1-3-4-2a1 1 0 0 1-1-1l-1-1q0-2 1-1h3v-1l-2-1v-2l-1-1-2-2q-2-1-1-3v-1c-2-3-5 0-6 2l1 7Zm-113-7h5a1 1 0 0 0 1-2h-3l-9 1c-5-1-6 6 1 5h6a1 1 23 0 0 1 0l-1-2-1-2q-1 0 0 0Zm95 1-1-2h-5v1l4 3a1 1 0 0 0 1 0l1-2Zm2-1v1l1 1h1v-1l-1-2-1 1Zm26 3 3 2h1q-1-4-4-4h-1v2h1Zm-14 0h-1v2h2v-1l-1-1Zm-142 6v1l2-1h4q2 0 3-2a1 1 0 0 0-1-1l-8 3Zm-2 2h-1q0-1 0 0h-1v1h1l1-1Zm168 3c1 2 2 5 1 7l-1 1 2 11a2 2 0 0 0 1 2l3 1v4l1 1h1v-1c0-3 1-8-1-13l-1-3a2 2 62 0 1 0-2h1v-2c-4-1-5-4-6-7q-2-3-5-1a1 1-52 0 0 0 1l4 1Zm-175 1h-1l1 1 4-2h-1q-1-1-3 1Zm14 0a1 1 0 0 0-1 0l-3 2a1 1 0 0 0 0 1 1 1 0 0 0 1 0l3-2a1 1 0 0 0 0-1Zm0 7c-4 2-7 2-11 7v1l-1 1-3 2q-2 1 0 1 4 0 6-3l5-3 1-1 5-5 1-1 2-1v-4l-2-1-2 3-1 1-3 1q-3 1 0 2l2-1h1v1Zm156-6 1 4a3 2-11 0 0 2-2v-1a3 2-11 0 0-3-2v1Zm-27 3a1 1 31 0 0-1-2 1 1 31 0 0-2 0 1 1 31 0 0 1 2 1 1 31 0 0 2 0Zm-138-1a1 1-36 0 0-1 0 1 1-36 0 0 1 0Zm-11 4 3-1a1 1 0 0 0 0-1h-2l-4 1q-2 2 0 2l2-1h1Zm6 0-1 3q-2 1-2 3l-1 1-5 3h-1 1v1l9-3v-1l-1-1v-1h1l1-1v-2l1-2h-1v-1l-2-2a1 1 0 0 0-1 1v1q2-1 2 1Zm111 4a1 1 0 0 0 2-1l-1-2-3 1 1 1 1 1Zm74 1-1-3a1 1 0 0 0 0-1h-1v1c1 2 0 4 2 6q0 1 0 0v-3Zm-196-2h-1a1 1 27 0 0 1 2l1-2h-1Zm-3 4a1 1-26 0 0-1 0 1 1-26 0 0 0 1 1 1-26 0 0 1 0 1 1-26 0 0 0-1Zm131 10q1 2 3 1 1 0 0 0l-1-1a2 2 12 0 1 0-1c-1-3-2-6-6-7l-8-1q-1 0 0 0c5 2 9 3 12 9Zm-107-8-1 1v1a1 1-87 0 0 1 1q2 0 3-2a1 1 0 0 0 0-1h-3Zm177 8h1v4a1 1 0 0 1 0 1l-4 2h-2v12l1 5-1 8h-1a1 1 10 0 1 0-1c0-4 1-7-1-11q-1-1-1 1c0 4-1 11-5 13l-1-1 1-1 4-8a1 1 31 0 0-1-1l-1-4a1 1 0 0 0-1 0h-2l-1-1a1 1 0 0 0-2 0c-1 2-3 5 0 7v-1l3-4v1l-1 7v8a1 1 69 0 0 1 0l6-2a2 2 0 0 1 3 2c2 5 2 8-2 12-5 7-9-4-13-5q-3-1-4 2h-1v-1l-1-1q-2 0-2 2v3h1q3 1 4 4a1 1 0 0 0 1 0l1-1q0-1 0 0c1 2 1 5 3 4a1 1 83 0 0 0-1l2-4c-1 2-1 5 1 7a1 1-58 0 0 2-1l1-1q1-3 2 0v1h3l1 4a1 1 0 0 0 1 0q3-1 3-5v2a1 1-89 0 0 1 1l3-1v-1l1-5v-1 6h1l1-1 2-5h1q0 2-2 3a1 1 0 0 0 2 2l5 1a1 1 0 0 1 0 1l-2 1a1 1 0 0 0 0 2h2a1 1 0 0 1 1 1l-2 2a1 1 0 0 0 0 1l1 2q0 2 1 0l2-4 1-1 2-4 1-1a1 1 0 0 0 1 0l1-4a1 1 0 0 0-1 0l-1 1v3h-1v-1a1 1 33 0 1-1-1l1-4a2 2-53 0 0 0-1v-1h-1q0 3-2 5a1 1 0 0 0 0 1l1 5-1 1-1-1v-5l-1-1q-2 0-2-2h-1l-2 3 1-6a1 1 0 0 0 0-1l-6-1h-1l-1 1v-1l-1-7a1 1 0 0 1 2-1l2-2c1-3 0-8-2-11v3l-1 9h-1v-15a1 1-53 0 0 0-1l-2-3h-2q1-4-1-9a1 1 0 0 1 1-1h1a1 1 0 0 1 0 1l1 4 1 1h1l-1-6 1-1c2-1 1-6 0-7l-1-4-2-2v1l1 2v1l-1-1a1 1 0 0 0-1 0l1 4h1l1-1Zm-190-4h-1a1 1 0 0 0 0 1c3 2 8 5 9 0q0-1 0 0-4 2-7-1h-1Zm-9 0 2 1v-1h-2Zm82 4a3 1 9 0 0-2-1 3 1 9 0 0-3 1 3 1 9 0 0 2 1 3 1 9 0 0 3-1Zm-85 0-2 1v1q2 0 3-2h-1Zm-7 2v-1h-2l2 1Zm140 10 1-6-3-5h-1l-1 2 4 9ZM75 203h-1l-1 1h1l1-1Zm212 3h1v-1l-1-1h-1v1a1 1 0 0 0 0 1h1Zm-83-1-1 1a1 1 0 0 0 0 1l1 1a2 1 38 0 0 2 0 2 1 38 0 0 0-2l-2-1Zm92 4 2 1v-1a1 1-86 0 0 0-1q-3 0-5-3v5a1 1 15 0 1 1 1v2l2 1v-4a1 1 82 0 1 0-1Zm-84-1 2 8a1 1 0 0 0 2 1q2-1 1-2l-3-8a1 1 72 0 0-1-1l-4 1a1 1 0 0 0-1 2q3 3 3 7l1 1h1v-1l-2-7 1-1Zm-130 0h1l-1-1h-1v1h1Zm141 0a1 1-5 0 1 1 0l-1 12-3 3v4q3 3 3-1l2-4a2 2-5 0 0 1-1v-13h-1l-3-1 1 1Zm9 3-1-2q0-3-1-1v4l2-1Zm-141-3a2 1-11 0 0-2 0 2 1-11 0 0-3 1 2 1-11 0 0 3 1 2 1-11 0 0 2-2Zm9 1a1 1 3 0 0-1 0 1 1 3 0 0-1 0 1 1 3 0 0 1 1 1 1 3 0 0 1-1Zm58 1h-2 1l5 2h1v-3q-3-1-5 1Zm-64 1v-1h-1a9 1-14 0 0-9 3h1a9 1-14 0 0 9-1v-1Zm10 2a1 1 21 0 0 1 0q2-2 0-2c-3-2-6 1-7 4a1 1 0 0 0 1 2l1-1h1q1-3 3-3Zm83 0a1 1 71 0 0 1-2 1 1 71 0 0-2-1 1 1 71 0 0 0 2 1 1 71 0 0 1 1Zm88 2a2 1 96 0 0 1-2 2 1 96 0 0-1-3 2 1 96 0 0-1 3 2 1 96 0 0 1 2Zm26 0v3l2 6v13l-1 6v1-1l1-3a2 2 63 0 1 0-1c2-3 2-12 1-16-1-3-1-8-4-9l-1-2q0-3-2-1v3l1 4h2v-2l1-1Zm-8-2a1 1 0 0 0 0-1l-1 1 1 8a1 1 0 0 0 0 1h1a1 1 0 0 0 0-1l-1-8Zm-13 0c-2 0-3 3 0 4v-1l1-3h-1Zm-73 1 3 5c1-2 0-4-1-6a1 1-24 0 0-1 0h-1v1Zm-125 4 10-3a4 2-17 0 0-4 0h-3a4 2-17 0 0-3 3Zm153-2a1 1 127 0 0 1 0 1 1 127 0 0 0-1 1 1 127 0 0-1 0 1 1 127 0 0 0 1Zm-27 2-2-3-1 1 1 4v1h3l-1-3Zm34 2c0-2-1-3 1-4l-1-1-2 1 1 4q0 1 0 0h1Zm-177-3a3 1-37 0 0-3 1 3 1-37 0 0-1 2 3 1-37 0 0 2-1 3 1-37 0 0 2-2Zm223 1 1 4h1a2 2 72 0 0 1-3 2 2 72 0 0-2-2l-1 1Zm-186 0a2 1-16 0 0-3 0 2 1-16 0 0-1 2 2 1-16 0 0 2 0 2 1-16 0 0 2-2Zm195 0q1 0 0 0l-1 1 1 1v-2Zm-208 0a1 1-20 0 0-2 0 1 1-20 0 0-1 1 1 1-20 0 0 2 1 1 1-20 0 0 1-2Zm105 0-2 1v1a5 1 69 0 0 3 5v-1a5 1 69 0 0-1-5v-1Zm36 0-2 1a8 1 84 0 0 2 8 8 1 84 0 0 0-8v-1Zm-116 4 5 1q2 2 2-1-1-2-4-2l-4 1q-1 1 1 1Zm184-1v7a1 1 0 0 0 1 1l1-1c0-2 0-6-2-7q0-1 0 0Zm-29 0a2 1-39 0 0-2 0 2 1-39 0 0 0 2 2 1-39 0 0 2 0 2 1-39 0 0 0-2Zm-177 0v1l1-1h-1Zm-31 4v-1l3-2a1 1 0 0 0-1-1l-2 1-2 1v1l-3 2v2a2 2-29 0 1 0 1c-4 5-6 8-7 13v1l1-1 1-4 3-4q3-2 4-5v-3h1v1h1l5-2v-1h-1q-2 2-3 1Zm35-1a1 1 0 0 0 1 1h4a1 1 0 0 0 0-1l1-1a1 1 0 0 0-1-1h-3l-2 2Zm84 14h1l1-1 4-5h1v1a2 2 0 0 0 3-1c1-3-2-7-4-9a1 1 52 0 0-1 0c-2 1-3 8-3 11a1 1-4 0 1-1 1l-2 1h-7l1 1h3a1 1 0 0 1 1 0v2l-1 2a1 1 0 0 0 1 0l2-1h1l-1-2h1Zm22-14c1 5 4 9 4 15l1 1c1-5-1-11-3-16l-1-1h-1a1 1 0 0 0 0 1Zm-119-1-5 2q-1 2 1 1l4-1a1 1-10 0 0 1-1 1 1 0 0 0-1-1Zm-10 2 2 1-2-1-1-2v1l1 1Zm35 2-1 1 1 1q2-2 1-4v-1h-3l-1 1 2 1 1 1Zm93-2a1 1 0 0 0-1 0 1 1 0 0 0-1 1l4 11a1 1 0 0 0 1 1 1 1 0 0 0 1-1l-4-12Zm10 17c1-5-1-11-3-17a1 1 67 0 0-1 0l-1 1c2 6 4 10 3 16a1 1 0 0 0 1 1l1-1Zm16-17-3 4a2 2-46 0 0 2-1h1a2 2-46 0 0 0-3Zm-127 3a1 1 0 0 0 0-2h-4l-2 1a1 1 0 0 0 0 2l2 1a1 1 0 0 0 1-1l3-1Zm149 5-1 5q-1 1 0 0l1-1a1 1-21 0 0 0-1l1-2v-8h-1v7Zm-19-4v-2 1l-2 2v1h1l1-2Zm-15 9-1 4a1 1-71 0 0 1 2c2 0 6 1 6 3l1 2-1-5-1-1-4-1-1-1h1l1-1q1 1 2-1v-1l1-7q1-2-1-3h-1l-3 4-1 1 1 5Zm18-8a1 1 102 0 0 1-1 1 1 102 0 0-1-2 1 1 102 0 0-1 1 1 1 102 0 0 1 2Zm-160 3 8-4h1v-1h-1c-3 0-6 3-8 5q0 1 0 0Zm168-2a2 1 92 0 0 1-1 2 1 92 0 0-1-2 2 1 92 0 0-1 2 2 1 92 0 0 1 1Zm-182 1c-3 0-2 2-4 3v1c2 0 4-3 4-4l3-1a1 1 4 0 0 1-1l1-1-1-1-4 4Zm40-1h2v-2h-1l-1 1v1Zm169 2-2-2a1 1 0 0 0-1 0h-1l-1 1v4a1 1 77 0 0 2 1l3-2 1-1a2 2 86 0 0-1-1Zm-56-2h-1a6 1 79 0 0 2 6 6 1 79 0 0 0-6h-1Zm47 6a1 1 0 0 0 1 0l2-1a1 1 0 0 0 0-1l1-3a1 1 0 0 0-1-1h-2a1 1 0 0 0-1 1v5Zm-178-5a2 1-23 0 0-2 0 2 1-23 0 0-1 2 2 1-23 0 0 2 0 2 1-23 0 0 1-2Zm17 5h-2a2 2 0 0 0-1 3c2 2 7-1 8-3a1 1-64 0 0-1-1q-1 0 0 0h1a1 1 0 0 0 1-1c-1-7-13 0-17 3a2 2 76 0 0-1 1v1a1 1 0 0 0 1 0l10-4q2-1 1 1Zm199-3a1 1 0 0 0-2-2 1 1 0 0 0-1 2 1 1 0 0 0 1 1 1 1 0 0 0 2-1Zm-211 1a1 1 128 0 0 2-1 1 1 128 0 0 0-1 1 1 128 0 0-2 0 1 1 128 0 0 0 2Zm-26 1 1-2-1-1a1 1 0 0 0-1 1v1a1 1-13 0 0 1 1Zm7 1a1 1 120 0 0 1 0 1 1 120 0 0 0-2 1 1 120 0 0-1 1 1 1 120 0 0 0 1Zm230 0v3l-1 3v1h2c2-3 3-5 1-9h-2v1a1 1-37 0 0 0 1Zm-132 0v1a2 2 0 0 0 1 1c3 1 6 1 7 3v1-1l-1-4h-1l-6-2v1Zm-85 0h-1a2 1 44 0 0-2 0l-2 3 5-2a1 1 0 0 0 0-1Zm141 2v-1h-1v1h1Zm-90 0a1 1 0 0 0-1-1h-1a1 1 0 0 0-1 1v1a1 1 0 0 0 1 1h1a1 1 0 0 0 1-2Zm102 0v1l1-1v-1q1 0 0 0l-1 1h-3v4a1 1-69 0 0 1 1l1 1a1 1 28 0 1 1 1v2q0 1 0 0l1-3h-1l-1-1a1 1 0 0 1-1-1l1-3a1 1 26 0 1 1-1Zm18 11v-1l3-8a1 1 0 0 0-1-2l-2-1a1 1-58 0 0-2 1l-2 10h1l2-7h1v1q-2 5-1 10h2a1 1 0 0 0 1-1q2-1 1-4a1 1 0 0 0-1 0l-1 2h-1ZM68 239a3 1-25 0 0-2 0 3 1-25 0 0-2 2 3 1-25 0 0 2 0 3 1-25 0 0 2-2Zm196 2a1 1 108 0 0 1-1 1 1 108 0 0 0-1 1 1 108 0 0-1 1 1 1 108 0 0 0 1Zm-125 25-5-3a2 2 0 0 1 0-2l3-3a2 2 0 0 0 0-2c-1-2-2-4-6-4s-5 0-9-3l-1-1v-4l-1-1-1-3-1-1a1 1-11 0 0-1 1v3c-1 4-1 5 1 7v1l-9 2-2 1 1 1a1 1 0 0 0 1 1c5-2 9-2 15-1l1 1h6a1 1 0 0 1 1 1h-1l-5-1h-1l-5 3-1 1 2 1 4-1a2 2 0 0 1 2 3l-1 2a1 1 0 0 0 0 1l1 2v1l-1 1a1 1 0 0 0 1 2c4-2 2-4 1-6a1 1-88 0 1 2-2l4 2 1 1h2v1h-3q-2 0-1 1l2 1q2 0 3-2v-1h1l2 1a1 1 84 0 0 1-1l-1-1h-2Zm104-25v1h1l-1-3-1 1v1h1Zm-7 3a2 1 93 0 0 0-2 2 1 93 0 0 0-2 2 1 93 0 0-1 2 2 1 93 0 0 1 2Zm-144-3a2 1-5 0 0-2-1 2 1-5 0 0-2 2 2 1-5 0 0 2 1 2 1-5 0 0 2-2Zm135 3v8h1v-1l1-10-1-1-5 3c2 3 1 8 2 11h1v-11h1v1Zm-60-3h-1c2 2 2 5 5 6a2 2 8 0 0 1-2l1-1-1-1q-2-2-4-1a1 1-17 0 1-1-1Zm114 1a1 1-72 0 1-1 1l-4-2v4l1 1 3-1 1-1 1-3h-1v1Zm-207 1v1l4-1a1 1 54 0 0 0-1v-1h-2l-2 2Zm167 3v-5 5Zm-173-4a4 1-40 0 0-4 1 4 1-40 0 0-2 3 4 1-40 0 0 4-1 4 1-40 0 0 2-3Zm72 1a1 1 0 0 0-1-1 1 1 0 0 0-1 1 1 1 0 0 0 1 1 1 1 0 0 0 1-1Zm-85 2a1 1 83 0 0 0-1 1 1 83 0 0-1-1 1 1 83 0 0 0 1 1 1 83 0 0 1 1Zm40-2a1 1 0 0 0-1 0l-3 1a1 1 0 0 0 0 1v1a1 1 0 0 0 1 1l3-2a1 1 0 0 0 0-1v-1Zm36 1-1-1a1 1 0 0 0-2 1l-1 2q-2 1 0 1h5v-1l-1-1v-1Zm63 0 3 7a4 2 71 0 0 1-4l-1-1a4 2 71 0 0-3-3v1Zm44 0h-1v8h2l-1-8Zm-160 2a1 1 125 0 0 1-1 1 1 125 0 0 0-1 1 1 125 0 0-1 1 1 1 125 0 0 0 1Zm26 0a2 1-7 0 0-2-1 2 1-7 0 0-1 1 2 1-7 0 0 2 2 2 1-7 0 0 1-2Zm5 0 2 2 2-1-3-2c-3 0-3 2-3 5l2 1 1-1-1-1-1-1a1 1 29 0 1 0-1v-1h1Zm75 2-4-3q-1-1-1 1c0 2 3 4 4 6h1l3 1h1v-1a2 2 0 0 0-1-2q-2-1-2-4v2a1 1 11 0 1-1 0Zm-18 2h-1a1 1 0 0 0-1 1l1 3a1 1 0 0 1 0 1v3h1v-1l1-3q0-4 2-1l2 2a1 1 42 0 0 1 0l1-2a3 3-40 0 0 0-2c0-3-2-2-4-2h-1l-3-3a1 1 0 0 0-1 1l2 2a1 1 0 0 1 0 1Zm-77-2v-1l-1-1-1 1 2 1Zm-9 0-1 1h3a1 1 35 0 0 0-2q-2-1-2 1Zm17-1a2 1-28 0 0-3 1 2 1-28 0 0-1 2 2 1-28 0 0 3 0 2 1-28 0 0 1-3Zm-33 3 1 1h4l1-2-1-1h-3l-2 2Zm131 4a3 1 67 0 0 0-4 3 1 67 0 0-3-3 3 1 67 0 0 1 4 3 1 67 0 0 2 3Zm22-5 1 2h1a1 1 75 0 0 0-1q0-2-3-2a2 2 0 0 0-2 2l1 2v1l1-1a1 1-33 0 0 1-1v-2q0-1 0 0Zm86 3a2 1 92 0 0 1-2 2 1 92 0 0-1-2 2 1 92 0 0-1 2 2 1 92 0 0 1 2Zm-203-3a1 1 0 0 0-1 0l-1 2h1q2 0 1-2Zm56 0 2 2h1c-1-4-4-2-6-3a1 1 0 0 0-2 2l2 2a1 1 0 0 0 1 0l1-3a1 1 0 0 1 1 0Zm-94 2a1 1 102 0 0 1-1 1 1 102 0 0-1-1 1 1 102 0 0-1 0 1 1 102 0 0 1 2Zm22 1a1 1 0 0 0 1-1l-1-2c-2 0-4 2-5 4l1 1 4-2Zm-12-1a1 1 0 0 0 1 2l1-1a1 1 0 0 0 1-1 1 1 0 0 0-1-1l-1-1a1 1 0 0 0-1 1v1Zm68 5a1 1 0 0 0 1 1l8-1a1 1 0 0 0 0-3l-7-3a1 1 0 0 0-1 0l-2 1a1 1 0 0 0-1 1l2 4Zm48-5 3 4h1a3 2 54 0 0 0-4 3 2 54 0 0-4-1v1Zm-9 5q-3 0-2 4v-1c0-2 1-3 3-2a1 1 79 0 0 1-1l-3-5a1 1 0 0 0-2 1h1v1l2 2v1Zm-77-5-4 1v1a2 2-9 0 0 2 2h1a2 2-9 0 0 2-3h-1a1 1 0 0 0 0-1Zm108 1-1 1q-1 0 0 0h3v-1a1 1 0 0 0 0-1l-1 1h-1ZM73 262c3-4 11-7 16-7a1 1 85 0 0 1-1c-2-7-16 4-18 7a1 1 0 0 0 0 1h1Zm162-6a2 1 85 0 0 1-2 2 1 85 0 0-1-2 2 1 85 0 0-1 2 2 1 85 0 0 1 2Zm-174 0a1 1 58 0 0 0-2 1 1 58 0 0-1-1 1 1 58 0 0-1 2 1 1 58 0 0 2 1Zm97-1 2 5h2a2 2 65 0 0 0-3v-1a2 2 65 0 0-3-2l-1 1Zm136 28 1 1c5 0 6-3 8-7 2-3 7-4 9-7q4-7 0-15h-1v1q2 5 0 10v1h-2a1 1 0 0 0-1 0l-3 4-3 4a1 1-65 0 1-1 0h-5q-1 4 2 4l1 2-1 1a2 2 0 0 1-1 1h-3Zm-49-24a2 1 85 0 0 1-2 2 1 85 0 0-1-2 2 1 85 0 0-1 2 2 1 85 0 0 1 2Zm9-4-1 1q-1 0 0 0l2 2q0 1 0 0v-3h-1Zm-167 2-4 1-1 1c3 1 7 0 10-1a1 1-35 0 0 0-2c-1-2-3 0-5 1Zm23 0a1 1 0 0 0 0 2h5a1 1 0 0 0 1 0l1-2a1 1 0 0 0-1-2h-1a1 1 0 0 0-1 0l-4 2Zm130 1 1 2h1-1l-1-5h-1l1 2a1 1 21 0 1 0 1Zm98 4a1 1 0 0 0 1-1l-7-6a1 1 0 0 0-1 1l1 4a1 1 0 0 0 1 1l5 1Zm-119-3-2-3h-1q1 3-1 6 0 2 1 1l3-2a1 1 0 0 0 0-2Zm-146-3a2 1-43 0 0-2 1 2 1-43 0 0-1 1 2 1-43 0 0 2 0 2 1-43 0 0 1-2Zm135 2h-2v1l1 2c2-1 4-1 4 1l1 3q1 3 1 0 1-3-1-4l-1-1v-3l-1-1a1 1-83 0 0-1 1l-1 1Zm-115 7 3-1v-1a1 1 0 0 0-1-1l-4 1-4 1v-1l11-4a1 1 73 0 0 1-1l-2-1-12 4q-2 0-2 2v1a1 1 0 0 0 2 1h6v1l-1 3a1 1 0 0 0 1 0l7-3a1 1 0 0 0 0-1 1 1 0 0 0-1-1l-4 2v-1Zm121-4a2 1 73 0 0 1-2 2 1 73 0 0-2-2 2 1 73 0 0 0 2 2 1 73 0 0 1 2Zm7-3v4a2 2 0 0 0 3-2 2 2 0 0 0-2-2h-1Zm110 1a1 1-13 0 0-2-1 1 1-13 0 0-1 1 1 1-13 0 0 2 1 1 1-13 0 0 1-1Zm-126 0-3-1a1 1 73 0 0-1 1c1 2 3 3 4 0Zm21 1v-2l-1 1a1 1-48 0 0 0 1h1Zm-173 0-1 3h1l1-1v-1l-1-3-1 1v1h1Zm-11 3a2 1 106 0 0 1-2 2 1 106 0 0 0-2 2 1 106 0 0-1 2 2 1 106 0 0 0 2Zm23-4a1 1-42 0 0-2 0 1 1-42 0 0 0 2 1 1-42 0 0 2 0 1 1-42 0 0 0-2Zm89 2 2 1q0 1 0 0h2q1-2-1-2h-6c-3 0-6-2-9-1l-1 1 1 1 8 5v-2q0-2 1 0t3 2v-5q-1-1 0 0Zm174 6c1 1 0 3 2 5v7a1 1 0 0 0 0 1h1l1-5v-1l-1-2q0-7-3-12a2 2-27 0 0-3 0l-4 1h-1l-3-1h-1c1 7 0 9-2 14-1 2-3 2-3 4q-1 5-3 7-5 6-7 12-1 2 1 1l1-2h1c1 4-5 5-7 6a1 1 0 0 0-1 2h6l1-1 1-1q3 0 4-4 1 0 0 0l-1-2v-3h-1c2-4 3-7 6-10a1 1-61 0 1 1 0l1-1 1-2h1l1 1a1 1 0 0 0 1 0c2-6 3-10 2-17v-1h1l1 3h2v-2a1 1-71 0 1 1 0h1a1 1 0 0 1 0 1v3q0 8-3 16l2 1 2-4q2-5 2-11l-1-3Zm-218-6 1 3a1 1 0 0 0 1 0l2-3a1 1 0 0 0-1-1h-2l-1 1Zm121 2a1 1 65 0 0 0-2 1 1 65 0 0-2-1 1 1 65 0 0 0 2 1 1 65 0 0 2 1Zm33-1-2 3h-2v1l1 1 3 1 1-1c1-1 3-2 3-4h1l-3-2-1-1v1l-1 1Zm7 0a1 1 122 0 0 1 0 1 1 122 0 0 0-2 1 1 122 0 0-1 1 1 1 122 0 0 0 1Zm-81 5q0-3-3-6h-2a1 1 0 0 0 0 1l5 6q0 1 0 0l3-2v-1l-2-2h-1l1 3v1h-1Zm66-3 1-1v-2l-1 1v2Zm-80 3-5-3a1 1 80 0 0-1 1l1 1a3 3 82 0 0 2 1l2 1 1 1 6 8 3 5 1 1q2 1 1-1c-3-2-3-4-5-7-1-2-3-3-2-6a1 1 42 0 0 0-1l-3-5a2 2 0 0 0 0-1l-2-1q-2 0-1 1l3 4-1 1Zm52-3-1-1-1-2 1 2 1 1Zm18 7c1 2 1 4 3 4a1 1-13 0 0 1-1l-1-1-1-8h-2v5h-1l-1-3a1 1-12 0 0-1-1h-4v3l-1 1v-6a2 2-65 0 0-1-1h-2q0 3-1 0h1a1 1-53 0 0-1-1l-1-1-1 3 1 1 1-1 1 1 1 5 3 3 1 1h1v-1l-1-1h-1l1-1h2l-1-3h1q2 2 1 4v1q0 2 2 1h1v-3Zm4-9-1 2v1q2 0 1-1l1-2h-1Zm-177 3 2-2a1 1 0 0 0 0-1c-2-1-3 1-3 2l1 1Zm113 2-3-5h-1v1a1 1 34 0 0 0 1l4 4 1 1q1 1 0 0l-1-1v-1Zm-44-4q-2-1-1 1l1 1a1 1 0 0 0 1 1l2-1v-1l-3-1Zm27 7a1 1 0 0 1 0-1c2-5-5-7-8-6q-3 0 0 1l4 2h1v1l-1 1h-3l9 5a1 1 16 0 0 1-1v-1a1 1 0 0 0-1-1h-2Zm40-4a2 1 59 0 0 0-2 2 1 59 0 0-2-1 2 1 59 0 0 0 2 2 1 59 0 0 2 1Zm133-2 1 1 1-1-1-1a1 1 0 0 0-1 0v1Zm-225 1 3 1v-1a2 2 11 0 0-1-2 2 2 11 0 0-3 2h1Zm167 3a3 2 125 0 0 4-1 3 2 125 0 0 0-4 3 2 125 0 0-3 2 3 2 125 0 0-1 3Zm-226-4a1 1 1 0 0-1 0 1 1 1 0 0-1 0 1 1 1 0 0 1 1 1 1 1 0 0 1-1Zm277 3h1l1 2v6l-2 5a1 1-69 0 0 1 1c1 1 3-2 3-3l2-8q0-2 0 0 2 9-4 15a1 1 0 0 0 0 1h1a3 3 0 0 0 2-1c5-5 5-9 5-15a2 2 0 0 0-2-3c-2 0-4-2-6-1h-2l-2-1a1 1-10 0 0-1 1l1 9 1 1 1-2 1-2-1-5Zm-64 0a1 1 97 0 0 0-1 1 1 97 0 0 0-1 1 1 97 0 0-1 1 1 1 97 0 0 1 1Zm-124 1 7 4v-1c-1-2-5-6-7-4v1Zm144-1h1v-1c-4 0-3 8-9 8l-1 1 6 1 4-4a2 2 0 0 0 0-3l-1-1v-1Zm-61 1v-1h-1v1h1Zm-31 0 3 2a2 2 46 0 0 0-2 2 2 46 0 0-3-1v1Zm-75 10h4a1 1 0 0 0 1-3l-4-3c-2 0-4 1-6-2h-4l2 4v1l-2 1h-1l-4-4-1-3a2 2 78 0 0-3-2c-3 1-6-1-9 2a1 1 0 0 0 0 1h10v1l-5 1a2 2 0 0 0 0 2l3 3a1 1 0 0 1-1 1h-5l-7 3-1 2v1h3l10-4h1a1 1 89 0 1-1 1c-3 1-8 2-9 5q-1 1 1 1 3-2 7-2h1l-1 1q-2 0-3 2h3l1 1a1 1 87 0 0 1 1l4 1a1 1-68 0 1 0 1l-1 1-5-1a1 1 34 0 0-1 0l-3 2v1q1 3 5 3h1c2-1 4-3 7-2v1a1 1 0 0 1-1 0q-4-1-5 3c0 3 0 6 4 5v-1l-1-2a1 1 0 0 1 1-2q2 0 3-2a1 1 0 0 1 1 0l2 1v-1l-1-1-1-1-3-4v-1l1-3-1-1-4-4v-1q1-4 6-4l1 1c1 2 4 0 7-1v1l-3 1v3q1 0 0 0l1 6-1 9-1 4h10a1 1 0 0 0-1-1l-4-1h-1 5a1 1 44 0 0 1 0h3q4 0 0-2-3-2-8-1v-1l2-1h1l3 1-2-1a2 2 0 0 1-2-2v-1q1-2 3-1c3 1 5 1 8-1a1 1-30 0 0 1-1l-2-3h-1q-2 0-2-2a1 1 79 0 0-1 0l-2-1q-2 0 0-1 1-1-1-2l-3-2q-1 0 0 0Zm-68-7 2-3a1 1 0 0 0-1 0q-2 1-2 3-1 0 0 0l1 1v2l2 1q2-1 2-3a1 1 21 0 0 0-1h-4Zm149-2h1a1 1 0 0 0-1-1h-1l1 1Zm-7 3a2 1 68 0 0 1-2 2 1 68 0 0-2-2 2 1 68 0 0 0 3 2 1 68 0 0 1 1Zm-120-2-6-1a3 1 16 0 0 3 2 3 1 16 0 0 3 0v-1Zm95-1a1 1 0 0 0-1 0 1 1 0 0 0 0 1l2 4a1 1 0 0 0 1 0 1 1 0 0 0 1-1l-3-4Zm103 5h2v-1a4 1-89 0 0-1-5 4 1-89 0 0-1 5v1Zm-56-1v2l1-1v-1l1-2a1 1-10 0 1 1 1l1 5a1 1-79 0 0 1 0l1 3h1l-1-4v-1q-2-2-1-5a1 1 87 0 0-1-1l-6 1q-1 0 0 0l2 3Zm-179-3v1h1v-2h-1v1Zm22 3 2-2 1-2-2 2-1 2Zm172-1 1 1v-2h-1v-1l-1-1v1l1 2Zm-5 5a4 1 65 0 0-1-3 4 1 65 0 0-2-3 4 1 65 0 0 1 3 4 1 65 0 0 2 3Zm-21-4v-2h-1l1 2Zm57 1a2 1 103 0 0 2-1 2 1 103 0 0-1-2 2 1 103 0 0-1 2 2 1 103 0 0 0 1Zm56 8q2-4 2-10a1 1 0 0 0-1-1l-1 1-3 11-1 3 1 1 3-5ZM83 272a2 1-10 0 0-1 0 2 1-10 0 0-2 1 2 1-10 0 0 2 0 2 1-10 0 0 1-1Zm73 7q-3-2-7-2v1l1 2 7 4a1 1 0 0 0 1-1q0-8-7-11h-2v1l1 2 6 3v1Zm-14-5a2 1 20 0 0-2-2 2 1 20 0 0-2 1 2 1 20 0 0 1 2 2 1 20 0 0 3-1Zm-44 0v-1a1 1 0 0 0-1-1l-6 2a1 1-70 0 0-1 1l-1 1 4-1a2 1 38 0 1 1 0c1 1 1 2 3 2h1v-3Zm-35 7q2-5 5-7a1 1-47 0 0 0-1c-4-3-5 6-6 8h1Zm133-4a2 1 65 0 0 0-3 2 1 65 0 0-2-1 2 1 65 0 0 0 2 2 1 65 0 0 2 2Zm61 3q-2 0-2-2v-1l1-1a1 1 0 0 0-1-1q-2 1-3-2a1 1 0 0 0-1 1l2 3 2 4a1 1 0 0 0 1 0h3l1-3h-1l-1 2h-1Zm-91-4a2 1 44 0 0-1-1 2 1 44 0 0-2-1 2 1 44 0 0 1 2 2 1 44 0 0 2 0Zm106 0 1-1v-1l-1 1v1ZM75 286q0-2-2-1a1 1 5 0 0-1 0l-1 1-1 1v1h2v1l-1 1a1 1 0 0 0 1 1l2 1a2 2 0 0 0 3 1l3-3a1 1 0 0 0 0-2v-3h3q1 1 0 0v-2a3 1 73 0 1 0-1v-3l-1-3c-3-1-5-3-8 0l-5 4-2 4q-1 1 2 2h1l1-2-1-1q-2 0-1-1c2-2 6-6 8-5a2 2 0 0 1 1 3q-3 2-2 6h-1Zm147-9a1 1 0 0 0-1-1l-3-1a1 1 0 0 0-1 0 1 1 0 0 0 0 1l4 1a1 1 0 0 0 1 0Zm-15-2 1 5h1a2 2 72 0 0 1-3 2 2 72 0 0-3-2Zm-1 9a4 1 74 0 0 0-5 4 1 74 0 0-3-4 4 1 74 0 0 0 5 4 1 74 0 0 3 4Zm-68-8a2 1-10 0 0-3 0 2 1-10 0 0-2 1 2 1-10 0 0 3 1 2 1-10 0 0 2-2Zm143 3v-1l-2-2a1 1-60 0 0-1 0l-1 4h1l3-1Zm10 6-3 3 1 1 5-1a2 2 0 0 0 0-4h-1l-1-1-2-1a1 1 12 0 1 0-1l2-3a1 1-43 0 0 0-2h-1l-6 7q-1 0 0 0l1 3a1 1-17 0 0 1 1l4-2q0-1 0 0Zm-116-4a2 1 61 0 0 0-2 2 1 61 0 0-2-2 2 1 61 0 0 0 2 2 1 61 0 0 2 2Zm-152-3a1 1 2 0 0-2 0 1 1 2 0 0-1 0 1 1 2 0 0 1 1 1 1 2 0 0 2-1Zm118 2q3 0 5 2h2q-2-5-6-4l-4 1-1 1 2 2 5 3q0 2 2 2a1 1 0 0 0 1-2q-2-3-6-4v-1Zm46 8q-4-4-6-9l-3-2a1 1-80 0 0 0 1l1 3q3 2 4 6l3 2a2 2 0 0 1 2 3v3q3 0 4 2h2q0-3-3-4a1 1-84 0 1 0-1l-1-3a1 1 0 0 0-1-1h-2Zm7-7a2 1 58 0 0 0-2 2 1 58 0 0-2-1 2 1 58 0 0 0 2 2 1 58 0 0 2 1Zm-147-2v-1c-2 0-3 2-2 3a1 1-50 0 0 1 0l1-2Zm45 1a1 1 52 0 0 1-1 1 1 52 0 0-2-1 1 1 52 0 0 0 2 1 1 52 0 0 1 0Zm214-1c-1 0-2 1-1 2v1l-1 6h1q4-4 4-9l-1-1-1 1h-1Zm-274 1a1 1 24 0 0-1-1 1 1 24 0 0-1 0 1 1 24 0 0 1 1 1 1 24 0 0 1 0Zm20 1a1 1 75 0 0 0-1 1 1 75 0 0-1-1 1 1 75 0 0 0 1 1 1 75 0 0 1 1Zm149 2 1 8h1l-1-7v-1l-1-4a1 1 0 0 0-1 1q-1 2 1 3Zm-38-2v-1h-1l1 1Zm104 3-1 1h1l1-3a1 1-72 0 0-1-1l-4-2a1 1 0 0 0-1 1v1a1 1 0 0 0 1 1l3 1 1 1Zm17-4a1 1-32 0 0-2 0 1 1-32 0 0 0 1 1 1-32 0 0 1 0 1 1-32 0 0 1-1Zm-194 1a2 1-29 0 0-3 0 2 1-29 0 0-1 2 2 1-29 0 0 3 0 2 1-29 0 0 1-2Zm83 2a2 1 49 0 0-1-2 2 1 49 0 0-2 0 2 1 49 0 0 1 2 2 1 49 0 0 2 0Zm-15 6a1 1 0 0 0 0-1l-3-4-4-1a1 1 0 0 0 0 1l1 2 6 3Zm-125-3q0 1 0 0l-6-2-1-1a1 1 0 0 0 0 1l4 5 3 5q1 2 1-1c1-1 1-9-2-10v1l2 2h-1Zm137 2a3 1 52 0 0 0-3 3 1 52 0 0-3-2 3 1 52 0 0 1 3 3 1 52 0 0 2 2Zm8-2q3 1 3 3l1 1v-1c0-2-1-3-3-5l-1-1a1 1 83 0 0-1 1v2a1 1 0 0 1-1 0h-1l-1 1q3 0 4 3h1l-1-3v-1Zm14-1a1 1 60 0 0 0-1 1 1 60 0 0-1-1 1 1 60 0 0 0 2 1 1 60 0 0 1 0Zm5 3a1 1 0 0 0-1 1l3 8c0-2-2-5-1-8 2-1 2-4 1-5a1 1 0 0 0-1 0v3l-1 1Zm-55-3a2 1 5 0 0-2-1 2 1 5 0 0-2 1 2 1 5 0 0 2 1 2 1 5 0 0 2-1Zm174-1-3 3h4v-3h-1Zm-151 7 3 1 1-1c1-2-3-5-4-6a2 2 0 0 0-3 0c-1 3-1 9 4 9v-1l-1-2q-1 0 0 0Zm111-6a1 1 37 0 0-1 0 1 1 37 0 0 0 1 1 1 37 0 0 1-1Zm-136 4h5a2 2 7 0 0-2-2h-1a2 2 7 0 0-2 2Zm9 0 8 4a5 3 21 0 0-3-5 5 3 21 0 0-5 1Zm138 6v1l-1 1v1c7-1 9-3 13-7l1-3h-3a1 1-73 0 0-1 1c-2 3-3 6-7 6l-2-1v1Zm-5-4a3 1 27 0 0-2-3 3 1 27 0 0-3 0 3 1 27 0 0 2 3 3 1 27 0 0 3 0Zm-233 0a1 1 69 0 0 0-2 1 1 69 0 0-1-1 1 1 69 0 0 0 2 1 1 69 0 0 1 1Zm278 1-1-1a1 1 0 0 0-2 0l-1 2a2 2 64 0 0 4 1c1-1 3-3 3-5h-1l-1 3a1 1-52 0 1-1 0Zm-34-4-4 3a2 2-36 0 0 3 1v-1a2 2-36 0 0 1-2v-1Zm-268 2 7 11a6 4 56 0 0 0-7l-1-1a6 4 56 0 0-6-3Zm-5 4 1-3v-1l-3 2a1 1 0 0 0 0 1l1 1a1 1 0 0 0 1 0Zm40 4v1l-1 4h-1l-3 1a1 1-69 0 0-1 0v2l3-1a1 1 66 0 1 1 0l1 3a1 1 0 0 0 2 0c2-3 2-7 6-8l1-4a1 1-34 0 1 0-1l2-4a1 1 34 0 0 0-1h-2l-7 5q-2 1-1 3Zm261-8-1 1v1h1v-2Zm13 0-2 4h1q0 1 0 0 2-1 2-3l-1-1Zm-252 2v-1a1 1 0 0 0-2 0l-4 4a1 1-63 0 0 1 1h1l4-3a1 1 61 0 0 0-1Zm-30 0-1 2h1l1-1c1-1 0-2-1-2a1 1 0 0 0 0 1Zm233 0a1 1-2 0 0-2 0 1 1-2 0 0-1 0 1 1-2 0 0 1 1 1 1-2 0 0 2-1Zm-198 0-1 4v1l1-1v-4Zm90 3a2 1 54 0 0-1-2 2 1 54 0 0-1-1 2 1 54 0 0 0 2 2 1 54 0 0 2 1Zm-36-1c3-1 7 1 10 2h1a1 1 0 0 0-1-1l-10-3-1 1a1 1 82 0 0 1 1Zm17 3 3-4q0-1 0 0l-6 1a1 1 0 0 0 0 1l1 2v1l2 6h1l4 1a1 1 0 0 0 1 0c1-2-1-4-2-5l-4-2v-1Zm-133-4a1 1 0 0 0-2 0 1 1 0 0 0-1 2l7 11a1 1 0 0 0 2 0 1 1 0 0 0 0-2l-6-11Zm328 5 2-1h1v-2q-1-3-2 0l-1 3Zm4 0h1q3-2 1-4t-2 1v3Zm-276-1q2 0 3-2a1 1 0 0 0-2-1l-2 2a1 1 0 0 0 1 1Zm94 0-1-3h-1a1 1-12 0 0-1 1l2 2h1Zm116 3h3l3-3v-2l-6 5Zm-147-5q-3-1-5 1h-1l-2 1a1 1 75 0 0 0 1v1h1l2-2a1 1 0 0 1 1 0h4l5 1 2 2h1l-3-3-4-1-1-1Zm41 2a1 1 48 0 0 0-1 1 1 48 0 0-2-1 1 1 48 0 0 1 2 1 1 48 0 0 1 0Zm146 1a2 1 48 0 0 0-2 2 1 48 0 0-3 0 2 1 48 0 0 1 2 2 1 48 0 0 2 0Zm6-3h-1l-1 1-2 4h3l1-1v-4Zm-281 1-1-1-1 1a3 1-62 0 0-1 3 3 1-62 0 0 3-2v-1Zm-40 4a2 1 97 0 0 1-2 2 1 97 0 0 0-1 2 1 97 0 0-1 1 2 1 97 0 0 0 2Zm9 4-3-8h-1a4 2 64 0 0 0 5v1a4 2 64 0 0 4 3v-1Zm158-4a2 1 45 0 0-1-2 2 1 45 0 0-2-1 2 1 45 0 0 1 2 2 1 45 0 0 2 1Zm-19 0v1a1 1 0 0 0 2 0q2-2 0-4a2 2 0 0 0-2 0q-2 1 0 3Zm194 3 3 3a1 1 17 0 1 0 1l3 8 1 1 2-1v-1l-3-11v-1h-1l-1-3q0-3-2-1l-1 3v1a1 1 0 0 1-1-1h-2v1h2v1Zm-271-3q2 1 1 2l-3 3h1l4-4a2 2-46 0 0 0-3l-2-1-1 1-5 4a1 1-33 0 0 0 1 1 1 0 0 0 1 1l4-4Zm84-1h1v-1h-1v1Zm16 3 1 2 1-1a1 1 0 0 0 0-1l-1-1-1-2h-1v1l1 2Zm-112 8c-1-3 4-7 6-9a1 1 45 0 0 0-1h-1l-4 4c-2 2-5 4-4 7a1 1 0 0 0 2 1l1-1v-1Zm17-6-1 1h1l2-1a1 1-88 0 0 1 0v-4l-1 2a1 1 0 0 1-1 1l-1 1Zm252 7 1-1q-1-5 1-9a1 1 17 0 0-1-1h-1l-2 10 1 1h1Zm-271-6 3-4a3 2-48 0 0-3 1 3 2-48 0 0-1 3h1Zm70-3h2l-1-1-1 1Zm9-1-2 1-1 1h1a2 1 75 0 0 1 1h1a2 1 75 0 0 0-2v-1Zm46 11 2 2c1 1 0 5 2 6v-8l-2-4-3-4 2 5v2q-5-3-4-8a1 1-74 0 0-1 0l-2-1c2 2 1 4 0 6a1 1-68 0 0 1 0l5 4Zm137-5-1 3h1l4-6a1 1 15 0 0-1-2 1 1 18 0 0-1 0l-2 5Zm-268 4v-9c-2 2-1 9 0 11l1 1-1-2a1 1-60 0 1 0-1Zm47-8 1-1h-1q-2 1 0 1Zm219 3a2 1 89 0 0 1-1 2 1 89 0 0-1-2 2 1 89 0 0 0 2 2 1 89 0 0 0 1Zm-154 8h-1l-3-3q0-1 0 0c-2 1 1 4 2 5a1 1 0 0 0 1 0l1-2q2 1 2-1c1-2 5-10-1-10l1 4a2 2 0 0 1 0 2l-2 5Zm7-10a1 1 0 0 0-1-1 1 1 0 0 0-1 1 1 1 0 0 0 1 1 1 1 0 0 0 1-1Zm-50 1 2 1 2 1 4 1 4 1h1v-1l4 1q3 1 1-1l-1-1-7-3h-16v1h6Zm-100 1a1 1 67 0 0 0-2 1 1 67 0 0-1-1 1 1 67 0 0 0 2 1 1 67 0 0 1 1Zm256-2h-1l2 1v-1h-1Zm-175 0-1 2a1 1-74 0 0 1 1l4-1h5a1 1 0 0 0 0-2h-7a2 2 21 0 0-2 0Zm-19 1h-1v1q0 1 0 0l1-1Zm64 3 1 4-1 1-1 1q5 4 8 9l3 1-1-3q-6-3-7-10l-2-5-1-1a1 1-3 0 0-2 1l2 2h1Zm-62 0a2 1 116 0 0 1-1 2 1 116 0 0 0-2 2 1 116 0 0-1 1 2 1 116 0 0 0 2Zm-78 3q1-3-1-5h-1c0 2 2 4 0 6v1q1 2 1 0v-1l1-1Zm23 1a4 1 79 0 0 0-3 4 1 79 0 0-2-4 4 1 79 0 0 0 4 4 1 79 0 0 2 3Zm-29-4v-2l-1-1v2l1 1Zm65 0a1 1 127 0 0 1-1 1 1 127 0 0 0-1 1 1 127 0 0-1 0 1 1 127 0 0 0 2Zm-52 3a2 1 63 0 0-1-2 2 1 63 0 0-1-2 2 1 63 0 0 0 2 2 1 63 0 0 2 2Zm31 5a5 1 110 0 0 2-4 5 1 110 0 0 1-5 5 1 110 0 0-3 4 5 1 110 0 0 0 5Zm106-3a3 1 93 0 0 2-3 3 1 93 0 0-1-3 3 1 93 0 0-1 3 3 1 93 0 0 0 3ZM38 324h3q2 0 1-2l-3-14h-1c-2 5 3 8 2 13l-1-1v-4l-1-1-2-2h-1l1 2c1 8-3 14-1 22v5h1v-5l1-6 1-6v-1Zm299-15-2 4v1h1a1 1 0 0 0 2 0l1-6-1-1-1 2Zm-230 2a2 2 132 0 0 2-1 2 2 132 0 0 0-2 2 2 132 0 0-2 0 2 2 132 0 0 0 3Zm-30-1a1 1 112 0 0 1-1 1 1 112 0 0-1-1 1 1 112 0 0 0 1 1 1 112 0 0 0 1Zm56 0 5 1 1-1-3-1h-3q-3 1 0 1Zm44 8-4-1v1h1l2 2 3 2q1 1 0 0l-6-2q-2-1-1 1 4 5 10 6a1 1 19 0 0 1 0c1-3 3-2 4-3v-2l-5-2c3 0 7 1 10 4v1l4 2q2 1 2-1c0-5-9-7-14-9v-1h1l12 6 6 4 1-1v-2a1 1 0 0 0-2 0h-3c-2-4-4-8-9-9-3 0-4-1-3-4h-1c-2 5-3 7-9 8Zm15-4 6 2q-2-4-5-6a1 1 0 0 0-2 1v1a2 2 0 0 0 1 2Zm-37-1-2-2-1-1 1 2 2 1Zm203 4a4 2 75 0 0 2-4 4 2 75 0 0-4-3 4 2 75 0 0-1 4 4 2 75 0 0 3 3Zm-331 0a3 1 68 0 0 0-3 3 1 68 0 0-2-3 3 1 68 0 0 1 3 3 1 68 0 0 1 3Zm94-5a3 1-33 0 0-2 0 3 1-33 0 0-2 3 3 1-33 0 0 3-1 3 1-33 0 0 1-2Zm18 1a2 1 12 0 0-2-1 2 1 12 0 0-2 0 2 1 12 0 0 2 1 2 1 12 0 0 2 0Zm-40 3a2 1 125 0 0 2-1 2 1 125 0 0 0-2 2 1 125 0 0-2 1 2 1 125 0 0 0 2Zm67 5-5-5-5-3-1 1q3 4 8 6 2 1 2 3l1 1v-1a1 1 0 0 0 1 0l-1-2Zm-24-7 3 1v-1h-3Zm226 0-2 4a2 2-68 0 0 3-1 2 2-68 0 0-1-3Zm-261 1-7 5v1l7-5 1-1h-1Zm-22 2a1 1 105 0 0 1-1 1 1 105 0 0 0-1 1 1 105 0 0-1 1 1 1 105 0 0 0 1Zm45-2-6 1-1 1a1 1 83 0 0 1 1c4-3 10-2 16 0l2-1h-1l-11-2Zm-18 2a1 1 127 0 0 2-1 1 1 127 0 0 0-1 1 1 127 0 0-1 1 1 1 127 0 0-1 1Zm5 2a2 1 113 0 0 2-1 2 1 113 0 0 0-3 2 1 113 0 0-2 2 2 1 113 0 0 0 2Zm-44 2a3 1 124 0 0 3-2 3 1 124 0 0 1-3 3 1 124 0 0-3 2 3 1 124 0 0-1 3Zm-10 2h-1v1c4 1 6-3 7-6l-1-2-2 2-3 4v1Zm268 1h-3v1l3 1 2 4v2a1 1 0 0 0 0 1h1a1 1-9 0 0 1-1l1-2-1-1c-3-2 0-7 1-10a1 1-82 0 1 1-1l1-1v-1q-3 0-3 3h-1l-1 1v-1h-1l-1 5Zm-238-7a1 1 0 0 0-1 1l-1 1a1 1 0 0 0 1 2l3-1a1 1 0 0 0 0-1l1-1a1 1 0 0 0-1-1h-2Zm-72 2a1 1 58 0 0 0-1 1 1 58 0 0-1-1 1 1 58 0 0 0 2 1 1 58 0 0 1 0Zm5-1 1 2v-2h-1Zm52 3a2 1 131 0 0 3 0 2 1 131 0 0 0-3 2 1 131 0 0-2 1 2 1 131 0 0-1 2Zm67-3 3 2 1-1-1-1h-3Zm-18 6a1 1 0 0 0 1-2v-2a1 1 0 0 0-2-2l-1 1a1 1 0 0 0-1 2v1a1 1 0 0 0 1 2h2Zm-16-4a1 1 0 0 0 1 1l1-1v-1h-1l-1 1Zm-99 0a1 1 97 0 0 1 0 1 1 97 0 0 0-1 1 1 97 0 0-1 1Zm108 1a1 1 0 0 0-1-2 1 1 0 0 0-1 2 1 1 0 0 0 1 1 1 1 0 0 0 1-1Zm3 9v-1q7-4 15-5a1 1 0 0 0 1-1c2-2 5 0 8 0v-1l-6-2a2 2 0 0 0-3 1v2h-1c-5 0-13 2-17 5l-5 4a1 1 0 0 0-1 1v2a1 1-16 0 1 0 1l-2 2-1-1-1-1a1 1 0 0 0-2 0v4l2-1a1 1-39 0 1 1 0q2 1 4-1l7-7h1l2-1v-1l-2 2v-1Zm-16-7a1 1 126 0 0 2-1 1 1 126 0 0 0-1 1 1 126 0 0-2 0 1 1 126 0 0 0 2Zm-52 0a1 1 73 0 0 0-1 1 1 73 0 0 0-1 1 1 73 0 0-1 1 1 1 73 0 0 1 1Zm299 1a1 1 83 0 0 1-1 1 1 83 0 0-1-1 1 1 83 0 0-1 1 1 1 83 0 0 1 1Zm-333 2a2 1 63 0 0 0-2 2 1 63 0 0-2-1 2 1 63 0 0 1 2 2 1 63 0 0 1 1Zm90 1a2 1 124 0 0 3-2 2 1 124 0 0 0-2 2 1 124 0 0-2 1 2 1 124 0 0-1 3Zm-84-4-1 4c0 2 0 3 2 5v-1l-1-2v-6Zm74 5a3 1 117 0 0 2-1 3 1 117 0 0 0-3 3 1 117 0 0-2 1 3 1 117 0 0 0 3Zm-30-2q0-2-2-2a1 1 0 0 0 0 2h2Zm7 13-1 3q0 1 0 0l1-2q3-9-1-16a1 1 0 0 0-1 0l-1 2 1 1c3 0 2 5 2 7v5Zm69-13a4 1-2 0 0-3-1 4 1-2 0 0-4 1 4 1-2 0 0 4 0 4 1-2 0 0 3 0Zm-50 4 2-2-1-2a2 2 0 0 0-2 1v4l-3 6a1 1-66 0 0 0 1l3-1 2-4a1 1 38 0 0 0-1l-1-1v-1Zm-46 3a3 1 98 0 0 1-3 3 1 98 0 0 0-3 3 1 98 0 0-1 3 3 1 98 0 0 0 3Zm147-4a1 1 0 0 0-1 0l-3-2a1 1 0 0 0-1 1l2 5a1 1 0 0 0 1 0h2a1 1 0 0 0 1-1l-1-3Zm-96 3-1-1-1 1 1 1h1q0 3-3 3l-1 1 2 2a1 1-70 0 0 2-1q0-2 2-3v-1l1-3a1 1-11 0 1 0-1l2-2v-1h-1a1 1-79 0 0-1 1l-3 4Zm11-1a2 1 122 0 0 2-1 2 1 122 0 0 0-2 2 1 122 0 0-2 1 2 1 122 0 0 0 2Zm-52-2h-1l-3 8h1l3-8Zm-40 1a1 1 7 0 0-1-1 1 1 7 0 0-1 1 1 1 7 0 0 1 0 1 1 7 0 0 1 0Zm334-1h-1l-1 4 1 1 1-1v-4 1-1Zm-196 1h-2l1 1 1-1Zm-29 5v1h1a11 1-28 0 0 9-6 11 1-28 0 0-10 5Zm210-4a1 1-8 0 0-1 0 1 1-8 0 0-1 0 1 1-8 0 0 1 1 1 1-8 0 0 1-1Zm-298 5a3 1 85 0 0 1-2 3 1 85 0 0-2-3 3 1 85 0 0 0 3 3 1 85 0 0 1 2Zm104-3-1-1-1 1h2Zm18-1a1 1-42 0 0-1 0 1 1-42 0 0 0 1 1 1-42 0 0 1 0 1 1-42 0 0 0-1Zm-117 6h1a5 1 86 0 0-1-5 5 1 86 0 0-1 5h1Zm42-4a1 1 0 0 0 1 1l1-1h-2Zm108 2a1 1 54 0 0 0-1 1 1 54 0 0-1-1 1 1 54 0 0 0 2 1 1 54 0 0 1 0Zm-39 16h-1l1 2q2 5 9 4l2 1v1h-3l-1 2 2 1 5-1 1 1-1 1-5 5a1 1-77 0 0 1 2l3-1 1-1h3l-1 1c-2 1-5 1-6 4-2 3 0 5 1 8l1-1q3-8 11-9a1 1-4 0 1 0 1l1 5a2 2 67 0 1-1 2l-3 3-1-1 3-3q2-3-1-2l-3 2a1 1 0 0 1-1 0v-1l4-3 1-1h-1l-3 1h-1l-3 6-1 1-1 2a1 1 0 0 1 0 1c-2 2-4 3-4 6q0 1 0 0l1-1h1l4-2h4v2l-1 1-2-1a1 1 0 0 0-2 1q-3 4-1 8v1l-3-4h-1a1 1 81 0 0 0 1c0 3 4 8 7 10v1c-3 0-5-4-7-6v1l1 1q2 6 7 8h1l-1 1c-4-1-5-3-7-5q-4-3-1 1c1 3 4 6 8 5l4-4c2-3 7-5 11-6l7-2 1-1 2-7-2-4 3 3q0 1 0 0l-1-4c-4-1-11-3-11-6q-1-5-5-9a1 1 0 0 1 1-2l2 1a1 1 0 0 0 1 0q0-3 3-5v-1l2-1a1 1 0 0 0 1 0v-1a1 1-88 0 0-1-1c-4 0-5 2-8 4v-1q0-2 2-3h3l1-1 1-1a1 1 28 0 0 0-1q-2-2-4-1h-2l-1-1v-2a1 1 0 0 1 1-1h2v2l4 1 2-1a1 1-60 0 0 0-1c-4-2-7-4-11-4a1 1 13 0 1-1-1v-2l-3 1q-2 0-1-2l4-1 1-1h-1l-1-1-5 3h-1l-1 2-1 1-4 2v-1q0-2-2-3h-1l-2 1a1 1 0 0 1-1-2l-1-3 1-1 2-1a1 1 81 0 0 1-1l-1-2h-1v-2c0-4-7-5-10-5l-1 2a1 1 0 0 0 1 1l5-1a1 1 0 0 1 2 1c1 2-1 5-2 7v1c-3 0-4 0-7-2l-1 1-1 1h-2a1 1 14 0 0-1 0q-1 2-3 1v2a1 1-27 0 1-1 1l-4 4h-1c-2 1-2 2-3 5v1q2 1 2-1v-3c3 0 4 1 6-2a1 1 0 0 1 1 1l-1 1 1 1 2-2a1 1 0 0 1 1 0l4-1-1-1-4-2a1 1 0 0 1 1-1q3 0 5-2 1-1 1 1v2l-2 2v1h2a1 1 0 0 0 1-1v-1h1v2a1 1 82 0 0 0 1l2-1v-1l1-2h1v2Zm44-17v-1h-1l-1 2 1 1 1-1a1 1-18 0 0 0-1ZM7 336l-1-1H5l1 1h1Zm22 8-2 2h1l2-1a1 1 0 0 0 1-2q-3-3-2-6c0-2 0-2-2-3a1 1 83 0 0 0 1v2a1 1-41 0 1 0 1c-1 2 1 4 2 5v1Zm33-6 1-1v-2l-1 1v2Zm-48-1a1 1 46 0 0 0-1 1 1 46 0 0-1-1 1 1 46 0 0 0 1 1 1 46 0 0 1 1Zm57 3a3 1 65 0 0 0-2 3 1 65 0 0-2-2 3 1 65 0 0 1 2 3 1 65 0 0 1 2Zm101-3h-5a1 1 0 0 0 0 1h5a1 1 0 0 0 0-1Zm-83 2 2-1a1 1 0 0 0 0-1q-2-1-3 1l-1 1h-1v4l-2 7 2-3c0-2 0-4 2-5v-2l1-1Zm48-2a4 1-35 0 0-4 2 4 1-35 0 0-2 3 4 1-35 0 0 3-2 4 1-35 0 0 3-3Zm-96 7a3 1 84 0 0 1-4 3 1 84 0 0-2-3 3 1 84 0 0-1 4 3 1 84 0 0 2 3Zm103-4c-2-2-5-4-7-1q0 2 1 1 3-2 7 0a1 1 11 0 1 0 1l1 2a1 1 74 0 0 1 1l3-1v-2a2 2-86 0 1 2-2l4 1v-2h-4c-3 0-4 4-8 2Zm-38 1a2 1 31 0 0-1-2 2 1 31 0 0-3 0 2 1 31 0 0 2 1 2 1 31 0 0 2 1Zm22-2a3 1-24 0 0-3 0 3 1-24 0 0-2 2 3 1-24 0 0 3 0 3 1-24 0 0 2-2Zm62 0q-3-1-6 1h-1v1h6a1 1-66 0 0 1-1v-1Zm155 1a1 1 0 0 0-2 0l-2 3a1 1 0 0 0 1 1l2 1a1 1 0 0 0 1 0l1-2a1 1 0 0 0 0-1l-1-2Zm-7 1v-1l-1-1-1 1v1h2q1 1 0 0Zm-278 2 1 2q0 1 0 0l-1-2v-3h-1l1 3Zm112 1 1 4a1 1 0 0 0 1 0c2-1 0-4 5-3a1 1 0 0 0 1-1q1-1-1-1h-2a2 2-37 0 1-4 0q-1-3-4-2v1l3 1v1Zm-152 1-1-2a1 1 0 0 0-1-1v2l1 2 1-1Zm50-3-1 2h1v-2Zm-57 1 2 1a1 1 0 0 0 0-1l-1-1-1 1Zm-9 1a1 1 63 0 0 0-1 1 1 63 0 0-1 0 1 1 63 0 0 0 1 1 1 63 0 0 1 0Zm347-1-3 4-1 1c0 2 3 3 4 1a2 2-24 0 0 0-1v-5q1 0 0 0Zm14 1h-2 2Zm-193 2a1 1 0 0 0-1-2h-1a1 1 0 0 0-1 1l-1 2a1 1 0 0 0 1 1h2a1 1 0 0 0 1-1v-1Zm-57-2-1 1-1 1 2-1v-1Zm18 3 3 2h1q2-1 2-3a1 1 0 0 0-1-1h-5a1 1-45 0 0 0 2Zm30-1v4a1 1-74 0 0 2-1v-4q0-1 0 0l-2 1Zm-44 4q1-4 4-4v-1c-2-1-4 3-4 5q0 1 0 0Zm-66-4 1 1a1 1-36 0 0 0-1h-1Zm136 4 1-2v-1h-1l-4-1a1 1 0 0 0-1 1v1l1 1q1 0 0 0l-1 1v1l6 1-1-2Zm-84-2-3-1q-3-2-1 1l4 2v-2Zm4 0a1 1 0 0 0-1-1 1 1 0 0 0-1 0l-1 4a1 1 0 0 0 0 1h1l2-4Zm87 0a2 1 5 0 0-1-1 2 1 5 0 0-2 1 2 1 5 0 0 1 1 2 1 5 0 0 2-1Zm-106 1a1 1 0 0 0 0-1l-1-1a1 1 0 0 0-1 1l-3 11a1 1 0 0 0 1 1h1a1 1 0 0 0 1 0l2-11Zm-63 1v-2h-4v1l4 1Zm96 10 2-11q-2 1-2 3c0 3-4 6-1 8a1 1 26 0 0 1 0Zm72-7-1 2h1l1-1q2-1 1-2a1 1 66 0 0-2-1v2Zm-64 1a2 1 41 0 0-1-2 2 1 41 0 0-2-1 2 1 41 0 0 1 2 2 1 41 0 0 2 1Zm-95-1v-2l-1 1 1 1Zm75 1a1 1 119 0 0 1-1 1 1 119 0 0 0-1 1 1 119 0 0-1 1 1 1 119 0 0 0 1Zm96 0 6 4a4 3 37 0 0-1-5 4 3 37 0 0-5 0v1Zm-155 0 1 1q0 1 0 0v-2h-1v1Zm-10 6h-1a1 1 0 0 0 0 1l3 5v-5l1-7a1 1 0 0 0-2-1h-1q-3 0-1 3 3 2 1 4Zm-14-3a2 1 60 0 0 0-2 2 1 60 0 0-2 0 2 1 60 0 0 0 1 2 1 60 0 0 2 1Zm125-2h-2q-1 0 0 0h2Zm-61 1a1 1 0 0 0-1-1 1 1 0 0 0-1 1l-1 5a1 1 0 0 0 0 1h1a1 1 0 0 0 1 0l1-6Zm-77 1a1 1 54 0 0 0-2 1 1 54 0 0-1 0 1 1 54 0 0 0 1 1 1 54 0 0 1 1Zm46 1a2 1 52 0 0 0-2 2 1 52 0 0-2-1 2 1 52 0 0 1 2 2 1 52 0 0 1 1Zm-11 5-1-7v6l1 1Zm160-3-3 3q0-3-2-5a1 1 0 0 0-1 1v3a1 1 8 0 0 1 0l2 1q1 2 4 2a1 1 0 0 0 1-1v-3l-2-2-1-2a1 1 77 0 0-1 0l-1 1 3 2Zm-156 1a2 1 87 0 0 0-2 2 1 87 0 0-1-2 2 1 87 0 0 0 2 2 1 87 0 0 1 2Zm73-3a1 1-26 0 0-1 0l-2 2a1 1-71 0 0 1 1h4v-2h-1a1 1 64 0 1-1-1Zm-10 3a2 1 117 0 0 2-1 2 1 117 0 0 0-2 2 1 117 0 0-2 1 2 1 117 0 0 0 2Zm-77 7v6l1 1v-3h1l1-2a1 1 34 0 0 0-1l-4-5-2-5h-1a1 1-47 0 0 0 1l4 8Zm-33-8v1l1 1a2 1 3 0 0 3-1v-1a2 1 3 0 0-3-1l-1 1Zm142 23v2h1v-2l2-1v1l1 3a1 1 0 0 0 1 0c0-1 0-4 2-4l1 5q0 1 0 0h1v-3l1-1a1 1-12 0 1 1 1v2a1 1-40 0 0 1 0l2-4a1 1 0 0 0 0-1l-1-4a1 1 65 0 1 0-1q3-3 2-8h-1v1a1 1-88 0 1-1 1h-1a1 1 16 0 0-1 0q-1 3-4 3-6 1-8-2h-4l-3-5v-1l1-1v-4l-3-1a1 1-1 0 0-1 1l2 2a2 2 44 0 1 0 4h-1l-1 1-1 3h2l1-1 1 1-1 1a1 1-50 0 0 0 1l1 2q2 2-1 1h-4l-1 1 1 3q2 2 3-1l1-1a1 1-78 0 1 1 2c-2 3 1 6 3 6a1 1 26 0 0 1 0l3-2a1 1 0 0 1 1 0ZM23 360l1 3h1q1 0 0 0 0-2-2-3Zm10 6a4 1 53 0 0-2-4 4 1 53 0 0-3-2 4 1 53 0 0 1 4 4 1 53 0 0 4 2Zm126-5a2 1 13 0 0-2-1 2 1 13 0 0-2 0 2 1 13 0 0 1 2 2 1 13 0 0 3-1Zm-141 0h-1q-1 0 0 0l1 1h1v-1a1 1 81 0 0-1 0Zm100 5a1 1 78 0 0 1-1 1 1 78 0 0-1-1 1 1 78 0 0 0 1 1 1 78 0 0 0 1Zm-35 1a1 1 0 0 0 0-1 1 1 0 0 0-1 1l-1 5a1 1 0 0 0 1 0 1 1 0 0 0 1 0v-5Zm-27 2a1 1 73 0 0 1-1 1 1 73 0 0-1-1 1 1 73 0 0-1 1 1 1 73 0 0 1 1Zm8 0a1 1 72 0 0 0-1 1 1 72 0 0-1-1 1 1 72 0 0 0 1 1 1 72 0 0 1 1Zm-57-1a1 1 8 0 0-1-1 1 1 8 0 0-1 1 1 1 8 0 0 1 0 1 1 8 0 0 1 0Zm15-1c-3 0-3 2-4 4l-1 1-1 6a1 1-60 0 0 1 1l2 3a1 1 0 0 0 1 0h1v-1l-2-2v-7l3-4a1 1 0 0 0 0-1Zm-13 0v4c0 3 2 4 3 7h1v-2q-2-2-2-5c1-2 0-4-2-4Zm125 3a1 1 52 0 0 0-2 1 1 52 0 0-2-1 1 1 52 0 0 0 2 1 1 52 0 0 2 1Zm-96 1a2 1 78 0 0 1-1 2 1 78 0 0-1-2 2 1 78 0 0-1 2 2 1 78 0 0 1 1Zm15-3c-3-1-5 2-3 4h1q0-2 2-3v-1Zm101 1 1 1 2-1v-1l-3 1Zm-24 1a1 1 56 0 0 0-1 1 1 56 0 0-1 0 1 1 56 0 0 0 1 1 1 56 0 0 1 0Zm74 4v3q1 1-1 2h1l3 1a1 1 23 0 0 1-1v-1l-1-1c-3-3-5-9-10-8v1l3 1a1 1 72 0 1 1 0v1a1 1-64 0 1-1 1l-4-1-1 1 1 1h8Zm-94-2 1-1-1-2v3Zm-49 2a2 1 84 0 0 0-2 2 1 84 0 0-1-2 2 1 84 0 0 0 2 2 1 84 0 0 1 2Zm31-1a1 1 78 0 0 0-2 1 1 78 0 0-1-1 1 1 78 0 0 0 1 1 1 78 0 0 1 2Zm75-1v-1l-1 1v1l1-1Zm24-1-1 1-1 1 1-1 1-1Zm-164 1 1 3a2 2 0 0 0 2 1h1l1 1v2l1-3q1-4-4-5l-2 1Zm11 5a1 1 0 0 0 1 0l1-2a1 1 0 0 0-1-1l-3-2a1 1 0 0 0 0 1l2 4Zm88-2a2 1 66 0 0 0-2 2 1 66 0 0-2-1 2 1 66 0 0 0 2 2 1 66 0 0 2 1Zm67-1a1 1 21 0 0 0-1 1 1 21 0 0-1 1 1 1 21 0 0 0 1 1 1 21 0 0 1-1Zm-169 1a1 1 109 0 0 1-1 1 1 109 0 0-1-1 1 1 109 0 0-1 1 1 1 109 0 0 1 1Zm106 1a1 1 129 0 0 2 0 1 1 129 0 0 0-2 1 1 129 0 0-1 1 1 1 129 0 0-1 1Zm33 3 2 1v3q0 1 0 0 2-1 0-3l-1-5q-2 2-1 4Zm28-4a1 1 1 0 0-1 0 1 1 1 0 0-2 0 1 1 1 0 0 2 1 1 1 1 0 0 1-1Zm10 2v1a1 1 41 0 0 0-2l-4-1a1 1 0 0 0-1 1 1 1 0 0 0 1 1h4Zm-88 2a2 1 91 0 0 1-2 2 1 91 0 0-1-1 2 1 91 0 0-1 1 2 1 91 0 0 1 2Zm80-2v1h2a1 1-43 0 0 0-2l-1 1h-1Zm-70 1a1 1 0 0 0-2-2 1 1 0 0 0-1 2 1 1 0 0 0 1 1 1 1 0 0 0 2-1Zm-17 1 1-1v-1l-1 1v1Zm-61 0a1 1 106 0 0 1-1 1 1 106 0 0 0-1 1 1 106 0 0-1 1 1 1 106 0 0 0 1Zm55-1h1l-1-1v1Zm30 2v-1l-1-1v1l1 1Zm-99-1-2-1a1 1 0 0 0-1 0 2 1-66 0 0 1 3 2 1-66 0 0 2-1v-1Zm159-1a1 1 0 0 0-1 0 1 1 0 0 0 0 1l1 2a1 1 0 0 0 1 0h1a1 1 0 0 0 0-1l-2-2Zm-72 0v2l1-2h-1Zm75 2h6a1 1 0 0 0 1-1l-2-1-3 1h-1l-1 1Zm-115-1a3 1-26 0 0-2 0 3 1-26 0 0-2 2 3 1-26 0 0 3 0 3 1-26 0 0 1-2Zm49 2a2 1 60 0 0 0-1 2 1 60 0 0-2-1 2 1 60 0 0 1 1 2 1 60 0 0 1 1Zm-84 2a2 1 83 0 0 1-1 2 1 83 0 0-1-2 2 1 83 0 0-1 2 2 1 83 0 0 1 1Zm-4 1v-2l-1-1-1 2 1 1h1Zm-27-1a1 1 60 0 0 0-1 1 1 60 0 0-1-1 1 1 60 0 0 0 1 1 1 60 0 0 1 1Zm124 4-1 1h-1l1 1h1v-2q2 1 3-1a1 1-41 0 0 0-1v-3h-1q-2 2-2 5Zm-77-1c3 2 7 1 7-2v-1a1 1 28 0 0-1 0q-1 4-6 3 0-1 0 0Zm57 1a2 1 68 0 0 0-3 2 1 68 0 0-2-1 2 1 68 0 0 0 2 2 1 68 0 0 2 2Zm-83-3a3 1-31 0 0-4 0 3 1-31 0 0-1 3 3 1-31 0 0 3-1 3 1-31 0 0 2-2Zm60 0v-1a1 1 0 0 0-1 1v1h1v-1Zm13 1 3 2a2 2 27 0 0-1-3 2 2 27 0 0-2 1Zm-67 3a1 1 90 0 0 1-1 1 1 90 0 0-1-1 1 1 90 0 0-1 1 1 1 90 0 0 1 1Zm3 2-1 1a2 2-30 0 0 0 2v1a1 1 0 0 0 1 0l3-6v-1l-2-1-1 1v3Zm-20 1 1-3a1 1 0 0 0 1-1h-2l-2 1v1l1 2a1 1 41 0 0 1 0Zm126-2h-1v1l-1 2 1 1 2-1v-2a1 1 70 0 1 0-1l2-1v-1h-1l-1 2a2 2-62 0 1-1 0Zm-17-1a1 1 0 0 0-1-1 1 1 0 0 0-1 1 1 1 0 0 0 1 1 1 1 0 0 0 1-1Zm12 0v2h1v-1l-1-1Zm-109 5a1 1 0 0 0 0 1l5 2a1 1 0 0 0 1-1l-5-6-2 1a1 1 0 0 0 0 1l1 2Zm16 2a3 1 67 0 0 0-3 3 1 67 0 0-2-2 3 1 67 0 0 0 3 3 1 67 0 0 2 2Zm60-2a2 2 29 0 0 0-2 2 2 29 0 0-3 1 2 2 29 0 0 1 2 2 2 29 0 0 2-1Zm-33 3h1v-1l-3-4v1l2 4Zm22-4a1 1 0 0 0-1 0 1 1 0 0 0-1 1l1 2a1 1 0 0 0 1 1 1 1 0 0 0 0-1v-3Zm15 0h-1v3h2l-1-3Zm5 2a1 1 60 0 0 0-1 1 1 60 0 0-2-1 1 1 60 0 0 0 2 1 1 60 0 0 2 0Zm-49 1h1v-2l-1-1v1h-1l1 2Zm26-3-1 1h1v-1Zm-79 1v2h1l-1-2Zm120 2h1v-1l-1-1h-1l1 2Zm-67 10 3 1h1l-3-2q0-2-2-2a1 1 87 0 1-1-1q-2-3-5-3v-1l-4-4h-1q0 4 3 5v1l-3-1v1q5 4 12 6Zm-2-12h-1v1l4 6s0 2 2 3a1 1-14 0 0 0-2l-1-1-2-4-2-2v-1Zm52 2h2l-1-1-1 1Zm-38 2a2 1 49 0 0 0-2 2 1 49 0 0-2 0 2 1 49 0 0 0 2 2 1 49 0 0 2 0Zm-48-1 1 2 5 4h1q-2-5-6-6h-1Zm17 4a2 1 59 0 0-1-2 2 1 59 0 0-2-1 2 1 59 0 0 1 2 2 1 59 0 0 2 1Zm-34-2a1 1 0 0 0-1-1 1 1 0 0 0 0 1l1 4a1 1 0 0 0 1 0 1 1 0 0 0 0-1l-1-3Zm19 7q3 1 5 4l1-1c-2-3-5-8-8-7q-6 4-8-1-1-3-3 0c-1 4 4 4 6 4a1 1-67 0 0 1 0v-1a1 1-42 0 1 2 0q1 2-1 4l1 1 6 4a1 1 0 0 0 1 0v-1a3 3-67 0 0-1-3l-3-3h1Zm70-4a1 1 79 0 0 1-1 1 1 79 0 0-1-1 1 1 79 0 0 0 1 1 1 79 0 0 0 1Zm-60 4-1 4q1 3 2 0l-1-3a1 1-50 0 1 0-1q1-3-1-6h-1v2l2 3v1Zm75-5q-1 2 1 3a1 1 0 0 0 1 0v-1l-2-2Zm24 1a1 1 7 0 0-1-1 1 1 7 0 0-1 1 1 1 7 0 0 1 0 1 1 7 0 0 1 0Zm-4 0a1 1 0 0 0-1-1 1 1 0 0 0-1 1 1 1 0 0 0 1 1 1 1 0 0 0 1-1Zm-61 2-1 1 3 7a1 1 0 0 0 2 1v-1a1 1-30 0 0 1-1l-4-6a2 2 0 0 0-1-1Zm52 3a2 1 58 0 0 0-2 2 1 58 0 0-2-1 2 1 58 0 0 1 2 2 1 58 0 0 1 1Zm-114 1a3 1 48 0 0-1-2 3 1 48 0 0-2-2 3 1 48 0 0 1 3 3 1 48 0 0 2 1Zm142 6-2-9v8l1 1a1 1-11 0 0 1 0Zm-137-7a1 1 119 0 0 1 0 1 1 119 0 0 0-2 1 1 119 0 0-1 1 1 1 119 0 0 0 1Zm62 1 1 1v-1l-1-2-1-1-1 1 2 2Zm10 1v-1l-1-1h-2v2c4 1 5 5 8 7q3 2 1-1l-2-3-3-2-1-1Zm14 0 1 1q0 1 0 0v-2h-1v1Zm37 0a1 1 0 0 0-1-1 1 1 0 0 0-1 1 1 1 0 0 0 1 1 1 1 0 0 0 1-1Zm-60 0v1l2 4 5 2v-1l-2-3-5-3Zm-67 7a4 1 53 0 0-1-4 4 1 53 0 0-3-2 4 1 53 0 0 1 3 4 1 53 0 0 3 3Zm184-6-2 1h1l1-1Zm-176 8-3-1h-1a1 1 51 0 0 0 2l6 6q1 1 1-1a1 1 48 0 0 1-1l-1-3v-1l1-1a1 1 52 0 0 1-2l-8-6a1 1 0 0 0-1 1c-1 3 2 5 4 6v1q0 1 0 0Zm4-5a1 1 64 0 0 0-2 1 1 64 0 0-2 0 1 1 64 0 0 0 1 1 1 64 0 0 2 1Zm75 0a2 1 33 0 0-1-2 2 1 33 0 0-2 0 2 1 33 0 0 1 2 2 1 33 0 0 2 0Zm102 1a2 1 55 0 0 0-2 2 1 55 0 0-2-1 2 1 55 0 0 0 2 2 1 55 0 0 2 1Zm-14-2a1 1-26 0 0-1 0 1 1-26 0 0-1 2 1 1-26 0 0 1 0 1 1-26 0 0 1-2Zm-7 1a1 1 0 0 0-1-1q-4 1-3 5a1 1 0 0 0 2 0l2-4Zm10 1 1 1h1v-1l-2-1v1Zm-159 3v-1c-1-1-1-2-3-2a1 1 0 0 0-1 1c0 2 2 2 4 3v-1Zm166 2a2 1 82 0 0 0-2 2 1 82 0 0-1-2 2 1 82 0 0-1 2 2 1 82 0 0 2 2Zm-106 1v1h1l9 6 1-1-13-9v1l2 2Zm55-2q0-1 0 0l2 2-2-2Zm-37 2a2 1 30 0 0-1-2 2 1 30 0 0-2 0 2 1 30 0 0 1 2 2 1 30 0 0 2 0Zm-6 2a2 1 64 0 0 0-2 2 1 64 0 0-1-2 2 1 64 0 0-1 2 2 1 64 0 0 2 2Zm15-1a1 1 26 0 0-1-2 1 1 26 0 0-2 0 1 1 26 0 0 1 2 1 1 26 0 0 2 0Zm-105 1a2 1 45 0 0-1-2 2 1 45 0 0-1 0 2 1 45 0 0 0 1 2 1 45 0 0 2 1Zm17 1a2 1 41 0 0 0-3 2 1 41 0 0-3 0 2 1 41 0 0 1 2 2 1 41 0 0 2 1Zm95-3 4 2q3 1 1-1l-5-1Zm57 3a2 2 26 0 0-1-2 2 2 26 0 0-2 0 2 2 26 0 0 1 3 2 2 26 0 0 2-1Zm-23 1v-2l-1-1v2l1 1Zm-122 1a2 1 77 0 0 1-2 2 1 77 0 0-1-1 2 1 77 0 0 0 2 2 1 77 0 0 0 1Zm83 3a6 1 17 0 0-6-3 6 1 17 0 0-5-1 6 1 17 0 0 5 3 6 1 17 0 0 6 1Zm-109-4 1 2h1v-2a1 1 0 0 0-2 0Zm181 0h-1l-1 1h1l1-1ZM27 436l1 4h-2a1 1-86 0 0-1 1l1 2 3 2v2-2h-3q-1-1-1 1l2 2 1 1h1l1 1-1 3h1l-2 1q-2 0-1 2 0 1 0 0h2v1l-2 1c-1 2 0 2 2 3l5 1h-1c-2 1-3-1-6 1v5l4 1v1q-6-1-6 5h3l1-1-1-1 1-1q4 1 5-2c2-5 0-10 0-15a1 1-68 0 0 0-1h-1v-1l1-2q3 3 5-1a1 1 0 0 0-1-1l-4 1-1-1 2-1a1 1 0 0 0-2-2l-3 1-1-2 7 1 4 1h2v-1l-5-1-3-1h-1l-3-2q4-4 1-7l-1-1v-1l-1-4c1-2-2-5-3-5h-1l1 2a1 1-38 0 1 0 1l-1 1a1 1 0 0 0 0 1l2 3h-2a1 1 0 0 0-1 1l3 3Zm14-9a2 1 54 0 0 0-2 2 1 54 0 0-2-1 2 1 54 0 0 1 2 2 1 54 0 0 1 1Zm93-2-4-1h-1v2h5v-1Zm54 2q3 0 5-2h-1l-8 1v1l1 2a2 2-43 0 0 0 1q1 7 5 14l1 1a1 1 0 0 0 1-2l-2-5-2-9v-2Zm-169 0a1 1 0 0 0-1 0 1 1 0 0 0-1 0 1 1 0 0 0 1 1 1 1 0 0 0 1-1Zm23 3a3 1 28 0 0-2-2 3 1 28 0 0-3-1 3 1 28 0 0 2 2 3 1 28 0 0 3 1Zm1-2a1 1-3 0 0 1 0v-1h-1v1Zm75 1a2 1 17 0 0-2-2 2 1 17 0 0-3 1 2 1 17 0 0 2 2 2 1 17 0 0 3-1Zm27 0 1 1h1l-1-2-1 1Zm36 1c0 6 2 11 7 15v-1q-4-6-4-14l-2-2a1 1 2 0 0-1 2Zm-9 2 2 1 2 3-1-5a1 1 0 0 0 0-1l-6-1h-1v1q3-1 4 2Zm-136-2h-1l1 1 5 3h1l-1-2-5-2Zm90 1 1 3v-1q1 0 0 0l-1-2v-1a1 1 0 0 0-1 0l-2 1q-1 0 0 0h3Zm56 11q-1 3 1 3 0 1 0 0v-3q-3-5-3-11l-1-1h-1l-1 2q1 6 5 10Zm-163-9a2 2 20 0 0-1-2 2 2 20 0 0-2 1 2 2 20 0 0 1 2 2 2 20 0 0 2-1Zm19 5h-2v4q2-2 4-1 0 1 0 0v-4a1 1-66 0 0 0-1l-4-2h-1v2h2l1 1a1 1-74 0 1 1 1h-1Zm118-4-1 1 3 1v-1l-2-1Zm-137 8v2l1 1q2 0 3-3a1 1-67 0 0-1-1l-6-5q0-1 0 0v3l2 2 1 1Zm133-6a3 1-10 0 0-3 0 3 1-10 0 0-3 1 3 1-10 0 0 3 0 3 1-10 0 0 3-1Zm-5 4-4-2a1 1 0 0 0-1 0 1 1 0 0 0 1 1l4 2a1 1 0 0 0 0-1Zm21 1a1 1 80 0 0 1-2 1 1 80 0 0-1-1 1 1 80 0 0-1 2 1 1 80 0 0 1 1Zm-154-2v1h1l-1-1Zm110 0-1 1v1h2l-1-2Zm14 8-1-6h-2a1 1 0 0 0 0 1l1 4v1l2 1v-1Zm11-3-2-1h-1l1 1h2ZM9 444a1 1 2 0 0-1 0 1 1 2 0 0 0 1 1 1 2 0 0 1-1Zm162 0-2 1h2v-1Zm-47 3a1 1-74 0 0 1-1v-1a1 1 6 0 0 0-1l-2 1v1l1 1Zm-111 0 1-1a1 1-83 0 0-1-1h-1a1 1 82 0 0-1 1v3l2-1a2 2-17 0 1 0-1Zm132 1-1-1-4-2h-1v2h1l4 1h1Zm11-2h-1l2 5h1v-1l-2-4Zm-110 1v-1a1 1 0 0 0-1 1h1Zm133 2v-2h-1v2a1 1 0 0 0 1 0Zm-158-1-1 1-2 1v2a1 1 73 0 1-1 1l-1 2q-1 0 0 0l2 1v1h-2v1c0 2 3 4 5 5q1 0 0 0l-5-1a1 1 0 0 0 0 1c1 1 3 4 5 3a2 2-14 0 0 1-2l1-10v-1h-2q3 1 4-3 1-1-2-2l-2-1a1 1 0 0 0 0 1q0 1 0 0Zm155 2a1 1 0 0 0-1-1l-3-1a1 1 0 0 0-1 0 1 1 0 0 0 0 1l4 1a1 1 0 0 0 1 0Zm-6 0a2 1 19 0 0-2-1 2 1 19 0 0-2 0 2 1 19 0 0 1 1 2 1 19 0 0 3 0Zm-38-1a1 1-42 0 0-2 0 1 1-42 0 0 0 2 1 1-42 0 0 1 0 1 1-42 0 0 1-2Zm5 3v-2l-1-1-1 1v3l1 2a1 1 72 0 0 1 0h1v-1l-2-1a1 1 0 0 1 1-1Zm10 0v-1l-4-2q-2 0 0 2 2 0 3 2l1-1Zm39-2-2 1q-1 1 1 2l2 2a1 1-60 0 1 0 1v1l-1 1q-2 1-2 3c-1 2 3 3 5 3l-1 1 1 2a1 1 46 0 0 1 0h2q1-3-1-4l-1-7-1-3v-1h2l2 1q0 1 0 0c0-2-4-2-5-4h-1l-1 1Zm-146 4-1 3-1 2h1q3-1 5 1a2 2 0 0 0 3 0l1-4v-1q1-3-1-5h-1l-1 1 2 3v1-1q-3-2-7 0Zm131 0-7-3-1 1 8 3v-1Zm2-2 4 2h1v-1h-1l-4-1ZM8 454a1 1 0 0 0-1-1 1 1 0 0 0-1 1 1 1 0 0 0 1 1 1 1 0 0 0 1-1Zm139 1a2 1 28 0 0-2-2 2 1 28 0 0-2 1 2 1 28 0 0 1 1 2 1 28 0 0 3 0Zm12-1 3 2v-1q-1-2-3-1Zm-23 3a1 1 49 0 0 0-2 1 1 49 0 0-2 0 1 1 49 0 0 0 2 1 1 49 0 0 2 0Zm30 0 4 1-4-2v1Zm-11 1-1-1-1 1h2q1 0 0 0Zm22 1a1 1 47 0 0 0-1 1 1 47 0 0-1 0 1 1 47 0 0 0 1 1 1 47 0 0 1 0Zm28 6q2 1 1-2l1-3v-1h-1l-2 4 1 2Zm-37-4-1-1v1h1Zm-11 1a1 1 7 0 0-1-1 1 1 7 0 0-1 0 1 1 7 0 0 1 1 1 1 7 0 0 1 0Zm-19 1v-1l-1-1q-2 0-2 2h3Zm-91 0a1 1 0 0 0-1-1h-2a1 1 0 0 0-2 1 1 1 0 0 0 1 2h3a1 1 0 0 0 1-1v-1Zm131 1a1 1 29 0 0-1-1 1 1 29 0 0-1 0 1 1 29 0 0 1 1 1 1 29 0 0 1 0ZM9 465a1 1 59 0 0 0-1 1 1 59 0 0-2-1 1 1 59 0 0 0 2 1 1 59 0 0 2 0Zm158 0a1 1-2 0 0-1-1 1 1-2 0 0-1 1 1 1-2 0 0 1 0 1 1-2 0 0 1 0Zm-29 1v1h1a4 1-26 0 0 3-2v-1a4 1-26 0 0-4 1v1Zm20 0a1 1 30 0 0-1-1 1 1 30 0 0-1 0 1 1 30 0 0 1 1 1 1 30 0 0 1 0Zm-112 1a2 1-17 0 0-2-1 2 1-17 0 0-1 2 2 1-17 0 0 2 0 2 1-17 0 0 1-1Zm104 0v1h2q2-1 0-1h-2Zm10 0c1 1 1 2 3 1q1 0 0 0l-3-1q-1 0 0 0Zm36 1h-1a1 1 0 0 0 0 1l3 4h1l3 3h1q1-1-1-1a1 1 0 0 1 0-1l-2-2 1-1a1 1 85 0 0 1 0l-1-1-1-2a1 1 0 0 0-2-1l-2 1Zm-19 1-3-1h-2l1 1 4 1v-1Zm-24 2-4-3a1 1 0 0 0-2 0v1a1 1 0 0 0 0 1l6 2q2 0 0-1Zm32 1 6-2a3 2-21 0 0-4-1 3 2-21 0 0-2 3Zm-46-2h3-3Zm20 1 1 1q3 0 5 2v-2l-5-1h-1Zm-139 4a2 1 59 0 0 0-2 2 1 59 0 0-2-1 2 1 59 0 0 0 2 2 1 59 0 0 2 1Zm157-2a2 1 15 0 0-1-1 2 1 15 0 0-3 0 2 1 15 0 0 2 2 2 1 15 0 0 2-1Zm-137 2a2 1 49 0 0 0-2 2 1 49 0 0-2-1 2 1 49 0 0 0 2 2 1 49 0 0 2 1Zm148 18h-1l-2-1 1 2v1l-1 2v1l2 1c2-1 4-2 6 1 1 3 7 7 9 8l1-1-2-2a1 1 0 0 1-1-2l2-1 3 1a1 1 0 0 1 0 1q-2 3 3 6l-6-1-6-2c-2 0-3-2-5-4a1 1 56 0 0-1 0l-4 1v1c0 2 3 5 4 6l1 1q3-2 6-1l1 1-1 1a1 1 2 0 1 0 1l-3 1-1-1h-1l-1 1c1 2 2 5 4 5l7 2h-3l-1 1v1h1l2 1h1l5 3v1a1 1 46 0 1-1 0l-3-3v2a1 1-78 0 0 1 1l2 2a1 1 40 0 1 0 1l1 1h3q0-3-2-4v-1c1-3-3-4-5-6v-1q2-5-2-6l-1-1v-1a3 3-57 0 1 4-1l3 5v1q-1 2 1 3v2h8v-2q-3 0-4-3h-1l-1 1v2h-1v-3l2-1 5 3q0 1 0 0l2-1a1 1 0 0 0 1-1l-2-1q-2 1-3-1v-11q2-4-2-7l-4-12v-1l-1-1q-1-2-1 0c1 5 1 11 5 15l-1 1v3l-1 1q0 1 0 0-4-7-5-16h-1v-9l-5-6a1 1 0 0 0-3 1v1l3 2h1l1 2v1h-2v3q1 0 0 0l-2 2a1 1 0 0 1-3 0q-2-4-7-5a1 1 36 0 1 0-1l4-1a1 1-17 0 1 1 0l1 2a3 3-63 0 0 4-2q1-1-1-2l-3-3c-4-3-5 6-10 3a1 1 43 0 0-1 0l-1 1a1 1-42 0 1-1 0l-4-1h-1l-1 1 6 2a1 1 0 0 0 1 0v-1a1 1 19 0 1 1-1l3 3a1 1 0 0 1-1 2l-3-2-1 1 1 1 1 1-1 1h-1q-4 0 0 2l1 2a1 1-10 0 1 0 1c-2 0-4 0-5-2l-3-5h-1l2 5v1l2 1a1 1 0 0 1 1 0c1 2 3 4 5 1l3-6h2a1 1-54 0 1 0 1l-2 3 3-1 7 2q3 1 3 5v1l2-1a1 1 66 0 1 2 1c2 4-3 4-4 2l-5-5-4 1Zm-27-19 5 3a1 1 23 0 0 1 0v-2h-1l-4-1-1-1-1 1h1Zm-14 2v-1h-2l1 1h1Zm9-1h-3v1l3 1a1 1 7 0 0 0-1v-1Zm6 4 3 1a1 1 13 0 0 1 0v-2h-3q-2 0-1 1Zm-4 2a1 1 19 0 0-1-1 1 1 19 0 0-2 0 1 1 19 0 0 1 1 1 1 19 0 0 2 0Zm7 2h-1q-2-1 0 0l2 2 1 1a2 2 0 0 0 0-4l-1 1h-1Zm5 7a2 1 29 0 0-1-2 2 1 29 0 0-2 0 2 1 29 0 0 1 2 2 1 29 0 0 2 0Zm22 1a1 1 70 0 0 0-1 1 1 70 0 0-1-1 1 1 70 0 0 0 2 1 1 70 0 0 1 0Zm-10 5 3 1q0 1 0 0l-3-1q-3-3-7-4c0 2 0 2 2 3l5 1Zm-10-2a1 1 33 0 0-1-2 1 1 33 0 0-1 0 1 1 33 0 0 0 2 1 1 33 0 0 2 0Zm13 6-8-4q-2 0 0 1l6 5a1 1 0 0 0 2 0v-1a1 1-56 0 0 0-1Zm-16-1a1 1-37 0 0-1 0 1 1-37 0 0-1 1 1 1-37 0 0 1 0 1 1-37 0 0 1-1Zm8 8a2 1 10 0 0-3-1 2 1 10 0 0-2 0 2 1 10 0 0 2 1 2 1 10 0 0 3 0Zm6-1a1 1 0 0 0 0-1 1 1 0 0 0-1 1 1 1 0 0 0 1 1 1 1 0 0 0 0-1Zm-5 6v-2h-1v3q0 1 0 0l1-1Zm6 0a1 1-13 0 0-1 0 1 1-13 0 0-1 1 1 1-13 0 0 1 0 1 1-13 0 0 1-1Zm33 2a1 1 0 0 0 0 1q0 1 0 0l3-1a1 1 0 0 0 0-1l-2-1v1l-1 1Zm-31 4v7h1v-2a1 1-20 0 1 0-1l1-1v-4a1 1 0 0 0-2-1v2Zm38 3a1 1 0 0 0-1-1 1 1 0 0 0-1 1l1 4a1 1 0 0 0 1 0 1 1 0 0 0 1-1l-1-3Zm-29 3q1 2-3 3l7 3 1-1-2-2-1-3h-2Zm3 9q1 2 3 2h1v-1a1 1 0 0 0-1-1l-5-2v1h1a1 1-7 0 1 1 1Zm29-1-1 1 2 1q4 2 9 2v-1q1 0 0 0v-1l-2-1h-2a1 1 0 0 1-2-1l-1-1-3 1Zm-25 7v-1l-4-2 1 3h3Zm11 7c-2 0-4-1-6 1v1l1 3h1l1-1v-1l3-1h1l-1-2 3-1v-1l-2-5a1 1-79 0 0 0-1l-3-1h-2l-1 7a1 1 89 0 0 1 1l4 1Zm17-6 8 3a1 1 0 0 0 1-1v-4a1 1 0 0 0-1-1l-7 1a1 1 0 0 0-1 2Zm-24-1a1 1 75 0 0 1-1 1 1 75 0 0-1 0 1 1 75 0 0 0 1Zm-8 2q1 2 4 2c0-2-2-2-3-2h-1Zm25 2a2 1 16 0 0-2-2 2 1 16 0 0-3 1 2 1 16 0 0 2 1 2 1 16 0 0 3 0Zm7 9 1-2-1-1-1 1 1 3c-1 3 2 4 4 3a1 1 0 0 0 0-1h-1l1-1 1-1v-1l2 4v3h3a1 1 0 0 0 0-1v-2l1-2a1 1 2 0 0-1-1l-1-1h1v-1l-1-4c-1-3-6-4-9-4h-1v1h1v1l-1 1 1 1h2a1 1 0 0 1 0 1v4h-2Zm-34-6a1 1 18 0 0-1-2 1 1 18 0 0-1 1 1 1 18 0 0 1 1 1 1 18 0 0 1 0Zm28 9q2 1 2-2v-1q-3-2-4-5l2 1 1 1h1l-2-2-2-2v-1h-3a1 1 20 0 0 0 1l-3 2a1 1 0 0 0-1 1l2 4v2a1 1 0 0 0 1 2l6 2h1l1-1q-2 0-2-2Zm-22-7-1-1-1-1 1 1 1 1Zm-6 1v1l1-1q1 0 0 0l-1-1-1 1h1Zm15 5a2 1 15 0 0-1-1 2 1 15 0 0-3 0 2 1 15 0 0 2 2 2 1 15 0 0 2-1Zm-1 5q-1 2 1 2h3q4-2 0-2h-3v-2h-1v2Zm8 0a1 1 26 0 0-1-1 1 1 26 0 0-1 0 1 1 26 0 0 1 1 1 1 26 0 0 1 0Zm18 6-4-1v1l1 1q2 1 3-1a1 1 36 0 1 1 0l2 1v-1c0-2 2-3 3-4v-1l-4 1h-1c-1 2-4 1-5 0a1 1-45 0 1 0-1h2a1 1-64 0 0 1 0v-1a1 1 0 0 0 0-1h-4l-1 1v2q0 2 2 2l4 1v1Zm-13-1 2-1a1 1 17 0 0 1 0c1-1 0-2-1-3l-4-2a1 1 0 0 0-2 1 1 1-70 0 0 1 1l3 2h1l-1 1h-4v1l2 3q2 3 3 1a1 1 0 0 0 0-2l-1-2Zm23-3 1 1 1-1-1-1h-1v1Z"/>
  <path d="M212 144c2 1 5 1 5 4q0 4-3 5h-1v2h-1v-1l-1-1a1 1-22 0 0-1-1l-4 1v2a1 1-45 0 1-3 1l-1-4 1-1 1-2v-6l1-1h7l2 1h-2v1Zm-4 0v1l1 1v-2h-1Zm-28 2a1 1 0 0 1 1 1 5 3-89 0 1-3 5h-1a5 3-89 0 1-3-5 1 1 0 0 1 1-1h5Z"/>
  <path d="M221 163c-5 0-13 2-17 0-3-2-2-5-5-7l-3-4h-3l-2-2q0-2 3-3l3 2h1l-1 1a1 1 34 0 0 0 2l6 4v2l1 1 5 1a1 1-58 0 0 1 0c4-4 7 0 11 2v1Zm-3-14a1 1-49 0 1 1 0l6 3 2 1q2 1 0 1l-4-2h-5a1 1 0 0 1-1-2l1-1Zm-47 4q0-1 0 0l7 3c-2 0-7 1-8-1a1 1 46 0 1 0-1l1-1Zm19 2h1a1 1 0 0 1 1 0q2 2 1 5a1 1 0 0 1 0 1l-6-2a1 1-42 0 1 0-2l3-1a1 1-87 0 0 0-1Zm-8 4h1c3 4 8 5 9 10a1 1-41 0 1 0 1c-2 5-8 4-9-2l-2-7 1-1v-1Zm6 10a1 1 55 0 0 0-1 1 1 55 0 0-2-1 1 1 55 0 0 0 2 1 1 55 0 0 2 0Zm-47-6-4 1 4-1Zm34 10c-2 0-4-3-6-4v-1l5-1a1 1 60 0 1 1 0l3 1 1 1-3 4h-1Zm25-4h5a3 3 0 0 1 2 4v3a3 3 0 0 1-4 3l-3-1a3 3 0 0 1-2-2l-1-2a3 3 0 0 1 3-5Zm-33 6q0 5-5 6l-5-3-3 1q-2 1-1-1v-1a1 1 0 0 0 0-2l-6-2h-1l-2 2a1 1-62 0 0 1 1l2 2a1 1 25 0 1 1 1q-1 2-2 1c-3 0-4-3-7-4v-1l1-2a1 1-64 0 1 1-1l3 1q3-2-1-2h-3l-1-1h7a1 1 0 0 1 1 0c2 3 5 3 8 4h1q2-4 5-2h1l5-1a1 1 0 0 1 1 0l2 3-1 1h-2Zm-7 0a2 1 3 0 0-2-1 2 1 3 0 0-3 1 2 1 3 0 0 2 1 2 1 3 0 0 3-1Zm60 1 1 3a3 3 0 0 1-1 4l-2 1a3 3 0 0 1-4-1l-2-4a3 3 0 0 1 2-4h3a3 3 0 0 1 3 1Zm4 15 1 1q3 0 1-2h-2v1l-3-3c0-3 2-4 4-4a1 1-89 0 0 1-1q1-2 3-1v-4h1l2 7-1 2-2 1v4l-3 1h-1l-1-2Zm-52-5 2 2a2 2-39 0 1 0 3l-4 2q-2 1-2-1l-1-4 1-2 3-3a1 1 0 0 1 1 0v3Zm-16 5v-2l1 1c2 1 6 3 4 6l-1 1a1 1 0 0 0-1 0l-2 2-1 1c-5 1-4-4-8-5a2 2 0 0 1-2-3v-4a1 1 0 0 1 0-1l6-3a1 1 0 0 1 1 1c-1 2 1 4 2 6h1Zm-3 2a1 1 2 0 0-1 0 1 1 2 0 0-1 0 1 1 2 0 0 1 1 1 1 2 0 0 1-1Zm6 2v1l1-1h-1Zm123-3 1 4-1 1a1 1-6 0 1 0-1l-2-8h1l1 4Zm-48-1 3 1v2l1 1 1-1h1v2l1 1a1 1 0 0 0 1-1v-2q0-1 0 0l5 7a1 1 0 0 0 1 0 1 1-22 0 0 1-2l-1-3q0-1 0 0c3 4 0 6 2 10l2 1v-4h1v3a3 1 86 0 0 2 2v-1c2-4 1-7 0-11h1l1 6h2a1 1 0 0 1 1 0c-4 5 0 6 3 7a3 3 11 0 1 2 3l-1 5a1 1-80 0 1-1 0l-4 3h-1l-4-2a1 1-28 0 0-1 0h-1l-1-1 1-6c0-2-2-2-2-3l-6-6c-1-1-1-3-4-2l-1-1-1-2-1-1a1 1-10 0 1-1 0c-1-2-4-3-4-5a1 1 0 0 1 1 0h1Zm23 22a1 1 0 0 0-1-1 1 1 0 0 0-1 1 1 1 0 0 0 1 1 1 1 0 0 0 1-1Z"/>
  <path d="M251 195q0-1 0 0 2 2 2 5h-1l-1-5Zm-114 4a1 1 0 0 0-2-1l-7 4c-2 1-2 2-2 3l-1 1q-1 2-3 1h-10a1 1 0 0 1-1-2q2-5 6-5h2l1-1a2 2-70 0 1 3-1l4 1a2 2 0 0 0 2 0c4-3 6-3 10-1a1 1 28 0 1 1 2c-3 3 2 6 5 7a1 1 2 0 1 0 1l1 3c-3 0-5 3-8 2h-1l-5-6 4-2 1-1v-5Zm-13 2a1 1-12 0 0-1 0 1 1-12 0 0-1 1 1 1-12 0 0 1 0 1 1-12 0 0 1-1Zm-9 2h-2l2 1v-1Zm2 0 1 1h1v-1h-2Zm24 12 4 1h-4v-1Zm9 7 1 2c-3 3-5 1-7 2v1l5 2a1 1-39 0 0 1 0q4-1 6 3l-1 4-7-3h-1v-1a1 1 0 0 1 1 0h3l-1-2-7-2q-3 0-1 1l3 2a1 1 2 0 1 1 1l1 3a1 1 90 0 0 1 1c1 1 5 2 5 4q0 1 0 0l-6-2-1 1c-2 2-6 2-6-1l-1-1q-1-2-3-2-5 0-8-2h-3 2a1 1-62 0 0 1 0c2-2 5-6 8-6h1l-1-2 1-1c4-1 6-3 10-3h1l-2-4v-1l10 6q1 1-1 1l-4-1h-1Zm-12 11v-1h-1v2l1-1Zm8 3a2 1 31 0 0-1-2 2 1 31 0 0-2 0 2 1 31 0 0 0 2 2 1 31 0 0 3 0Zm-31-6q-1 0 0 0h4v1l-4-1Zm100 8 1-1 1-3 1 4a1 1 0 0 1-2 0h-1Zm-96 36 8 1v2l-8-2h-1v-1h1Zm5 13h1v1c-4 1-5-1-6-4v-1l6-1a1 1 0 0 1 0 1l-2 2a1 1 0 0 0 1 2Zm5-1 5 2a1 1 0 0 1-1 2h-3a2 2 0 0 1-2-2v-1a1 1 0 0 1 1-1Zm238 45h1v2q0 2-2 2a1 1 11 0 1 0-1l1-3Zm-191 21v1a1 1 0 0 1-1 0l-1-1a1 1-21 0 1 0-1h1l1 1Zm-32 27a1 1 0 0 1 1 0 3 1 69 0 1-1 3v1a3 1 69 0 1-2-2 1 1 0 0 1 0-1l2-1Zm48 19 1-2a1 1-69 0 1 1-1v1c0 2-3 2-5 2h-2a1 1 0 0 1-2 0v-2a1 1 0 0 1 1-1l3 1a1 1 75 0 1 1 0l1 2h1Zm-15 7 1-1h-1q-4-3-3-7a1 1 0 0 1 2-1h2a1 1 0 0 1 1 2l-2 1q-2 0-1 2 2 1 2 3v1l-1 1-1 1-3-1q-1-5 3-2v1h1Zm-111-6 1 2 1 1v1h-1l-3-2a1 1 28 0 1 0-1l1-1a1 1 0 0 1 1 0Z"/>
</svg>