<?xml version="1.0" encoding="UTF-8" standalone="no"?>
<svg xmlns="http://www.w3.org/2000/svg" version="1.2" baseProfile="tiny" viewBox="0.00 0.00 660.00 197.00">
<path fill="#ffffff" d="
  M 0.00 0.00
  L 660.00 0.00
  L 660.00 197.00
  L 0.00 197.00
  L 0.00 0.00
  Z
  M 154.17 75.45
  C 148.25 89.20 150.22 108.03 161.01 118.70
  C 172.55 130.10 192.95 129.78 204.61 117.93
  C 209.08 113.39 203.80 108.27 198.79 109.30
  C 196.16 109.84 193.98 112.67 191.87 113.86
  C 184.16 118.21 173.63 116.69 168.02 109.73
  C 160.81 100.78 160.73 84.12 167.61 74.91
  C 173.63 66.84 186.46 65.25 194.52 72.02
  Q 197.37 74.41 198.86 74.79
  C 202.99 75.86 208.67 70.99 205.44 67.07
  Q 199.75 60.15 189.73 57.89
  C 174.93 54.56 160.39 61.00 154.17 75.45
  Z
  M 332.33 115.09
  C 341.89 102.18 341.71 81.92 332.36 69.12
  C 319.61 51.68 292.27 53.29 281.51 71.80
  C 271.36 89.23 275.94 117.88 297.11 125.18
  C 309.83 129.57 324.14 126.16 332.33 115.09
  Z
  M 248.57 68.03
  Q 255.81 67.94 263.24 67.92
  C 270.08 67.90 270.37 57.97 263.00 57.91
  Q 242.62 57.74 222.26 57.64
  C 215.28 57.61 214.16 67.69 222.00 67.84
  Q 229.36 67.99 236.49 68.03
  A 0.49 0.49 0.0 0 1 236.98 68.52
  Q 236.95 93.61 236.99 118.71
  Q 236.99 120.77 237.42 121.73
  C 239.04 125.33 245.68 125.58 247.46 121.98
  Q 248.19 120.52 248.20 118.76
  Q 248.25 93.61 248.14 68.47
  A 0.44 0.44 0.0 0 1 248.57 68.03
  Z
  M 56.78 108.70
  Q 56.45 109.67 56.12 108.71
  Q 48.66 86.71 41.20 64.61
  Q 39.91 60.78 38.30 59.43
  C 35.16 56.79 26.83 57.50 29.06 63.75
  Q 38.78 91.05 48.58 118.32
  Q 49.87 121.92 51.29 123.16
  C 54.86 126.29 61.79 125.24 63.42 120.70
  Q 73.61 92.36 83.60 63.96
  C 85.87 57.51 77.50 56.68 74.56 59.41
  Q 73.09 60.76 71.65 64.99
  Q 64.10 87.04 56.78 108.70
  Z
  M 107.50 96.05
  Q 119.88 95.90 132.25 95.94
  C 140.06 95.96 139.02 85.75 133.23 85.74
  Q 120.38 85.73 107.37 85.72
  Q 106.85 85.72 106.85 85.20
  L 106.85 68.77
  Q 106.85 68.25 107.38 68.25
  Q 120.94 68.22 134.49 68.23
  Q 140.12 68.23 140.67 63.86
  C 141.06 60.72 139.32 58.09 136.00 58.04
  Q 126.44 57.89 102.00 57.82
  Q 95.80 57.80 95.79 64.25
  Q 95.75 91.07 95.80 117.90
  C 95.80 121.80 96.56 124.99 101.00 124.99
  Q 117.56 125.01 134.14 125.00
  Q 137.99 124.99 139.28 124.39
  C 143.55 122.40 142.36 114.81 136.98 114.79
  Q 122.28 114.76 107.38 114.76
  Q 106.85 114.76 106.85 114.23
  L 106.86 96.71
  Q 106.86 96.06 107.50 96.05
  Z
  M 471.59 68.31
  A 0.14 0.14 0.0 0 1 471.70 68.53
  Q 456.41 89.93 441.11 111.37
  C 438.74 114.71 436.30 124.95 443.25 124.97
  Q 461.10 125.02 478.94 124.99
  Q 482.73 124.98 483.97 124.41
  C 488.27 122.42 487.08 114.82 481.75 114.80
  Q 467.26 114.75 452.87 114.77
  A 0.23 0.22 -71.9 0 1 452.69 114.41
  Q 467.93 93.05 483.14 71.85
  C 485.80 68.14 488.03 58.18 480.98 58.06
  Q 470.15 57.88 445.00 58.12
  C 438.14 58.18 437.84 67.91 445.01 68.00
  Q 458.33 68.16 471.59 68.31
  Z
  M 510.49 68.26
  Q 523.25 68.10 535.99 68.45
  C 539.58 68.55 543.33 67.75 543.64 63.99
  Q 544.13 58.09 538.25 58.06
  Q 521.50 57.95 504.75 57.81
  Q 498.93 57.76 498.89 63.49
  Q 498.74 91.37 498.76 119.25
  Q 498.76 124.99 504.25 124.99
  Q 520.96 125.01 537.69 124.99
  Q 541.30 124.98 542.67 124.17
  C 546.51 121.86 545.15 114.80 539.98 114.79
  Q 525.24 114.77 510.36 114.76
  Q 509.80 114.76 509.80 114.20
  L 509.80 96.55
  Q 509.80 96.02 510.33 96.02
  Q 523.05 95.99 535.74 95.87
  Q 540.29 95.82 540.75 91.52
  C 541.25 86.85 538.22 85.75 534.12 85.74
  Q 522.18 85.70 510.30 85.73
  A 0.50 0.49 90.0 0 1 509.81 85.23
  L 509.80 68.97
  Q 509.80 68.27 510.49 68.26
  Z
  M 557.32 63.04
  L 557.22 119.90
  A 5.07 5.07 0.0 0 0 562.28 124.98
  L 581.44 125.01
  A 30.13 30.09 -89.9 0 0 611.58 94.94
  L 611.60 88.20
  A 30.13 30.09 -89.9 0 0 581.56 58.01
  L 562.40 57.98
  A 5.07 5.07 0.0 0 0 557.32 63.04
  Z
  M 426.2903 63.1504
  A 4.86 4.86 0.0 0 0 421.4218 58.2989
  L 420.0818 58.3012
  A 4.86 4.86 0.0 0 0 415.2303 63.1697
  L 415.3297 120.1296
  A 4.86 4.86 0.0 0 0 420.1982 124.9811
  L 421.5382 124.9788
  A 4.86 4.86 0.0 0 0 426.3897 120.1103
  L 426.2903 63.1504
  Z
  M 363.29 97.00
  L 375.73 97.00
  Q 376.30 97.00 376.55 97.52
  Q 381.60 108.41 386.69 119.33
  C 388.86 123.98 391.41 125.93 396.53 124.88
  Q 401.55 123.85 399.25 119.22
  Q 393.75 108.20 388.13 97.15
  Q 387.88 96.67 388.39 96.48
  Q 389.94 95.90 391.52 95.41
  Q 401.15 92.44 402.65 82.46
  C 404.82 67.97 398.08 58.87 383.25 58.79
  Q 370.98 58.72 358.70 58.80
  C 355.28 58.82 351.81 59.58 351.81 63.50
  Q 351.75 91.38 351.68 119.25
  C 351.65 127.09 362.83 126.76 362.83 120.01
  Q 362.83 108.72 362.84 97.45
  Q 362.84 97.00 363.29 97.00
  Z"
/>
<path fill="#60a5fa" d="
  M 154.17 75.45
  C 160.39 61.00 174.93 54.56 189.73 57.89
  Q 199.75 60.15 205.44 67.07
  C 208.67 70.99 202.99 75.86 198.86 74.79
  Q 197.37 74.41 194.52 72.02
  C 186.46 65.25 173.63 66.84 167.61 74.91
  C 160.73 84.12 160.81 100.78 168.02 109.73
  C 173.63 116.69 184.16 118.21 191.87 113.86
  C 193.98 112.67 196.16 109.84 198.79 109.30
  C 203.80 108.27 209.08 113.39 204.61 117.93
  C 192.95 129.78 172.55 130.10 161.01 118.70
  C 150.22 108.03 148.25 89.20 154.17 75.45
  Z"
/>
<path fill="#818cf8" d="
  M 332.33 115.09
  C 324.14 126.16 309.83 129.57 297.11 125.18
  C 275.94 117.88 271.36 89.23 281.51 71.80
  C 292.27 53.29 319.61 51.68 332.36 69.12
  C 341.71 81.92 341.89 102.18 332.33 115.09
  Z
  M 306.50 116.27
  C 335.56 117.62 334.05 66.39 307.48 67.75
  C 281.07 69.10 282.03 115.14 306.50 116.27
  Z"
/>
<path fill="#facc15" d="
  M 248.57 68.03
  A 0.44 0.44 0.0 0 0 248.14 68.47
  Q 248.25 93.61 248.20 118.76
  Q 248.19 120.52 247.46 121.98
  C 245.68 125.58 239.04 125.33 237.42 121.73
  Q 236.99 120.77 236.99 118.71
  Q 236.95 93.61 236.98 68.52
  A 0.49 0.49 0.0 0 0 236.49 68.03
  Q 229.36 67.99 222.00 67.84
  C 214.16 67.69 215.28 57.61 222.26 57.64
  Q 242.62 57.74 263.00 57.91
  C 270.37 57.97 270.08 67.90 263.24 67.92
  Q 255.81 67.94 248.57 68.03
  Z"
/>
<path fill="#f87171" d="
  M 56.78 108.70
  Q 64.10 87.04 71.65 64.99
  Q 73.09 60.76 74.56 59.41
  C 77.50 56.68 85.87 57.51 83.60 63.96
  Q 73.61 92.36 63.42 120.70
  C 61.79 125.24 54.86 126.29 51.29 123.16
  Q 49.87 121.92 48.58 118.32
  Q 38.78 91.05 29.06 63.75
  C 26.83 57.50 35.16 56.79 38.30 59.43
  Q 39.91 60.78 41.20 64.61
  Q 48.66 86.71 56.12 108.71
  Q 56.45 109.67 56.78 108.70
  Z"
/>
<path fill="#4ade80" d="
  M 106.86 96.71
  L 106.85 114.23
  Q 106.85 114.76 107.38 114.76
  Q 122.28 114.76 136.98 114.79
  C 142.36 114.81 143.55 122.40 139.28 124.39
  Q 137.99 124.99 134.14 125.00
  Q 117.56 125.01 101.00 124.99
  C 96.56 124.99 95.80 121.80 95.80 117.90
  Q 95.75 91.07 95.79 64.25
  Q 95.80 57.80 102.00 57.82
  Q 126.44 57.89 136.00 58.04
  C 139.32 58.09 141.06 60.72 140.67 63.86
  Q 140.12 68.23 134.49 68.23
  Q 120.94 68.22 107.38 68.25
  Q 106.85 68.25 106.85 68.77
  L 106.85 85.20
  Q 106.85 85.72 107.37 85.72
  Q 120.38 85.73 133.23 85.74
  C 139.02 85.75 140.06 95.96 132.25 95.94
  Q 119.88 95.90 107.50 96.05
  Q 106.86 96.06 106.86 96.71
  Z"
/>
<path fill="#34d399" d="
  M 471.59 68.31
  Q 458.33 68.16 445.01 68.00
  C 437.84 67.91 438.14 58.18 445.00 58.12
  Q 470.15 57.88 480.98 58.06
  C 488.03 58.18 485.80 68.14 483.14 71.85
  Q 467.93 93.05 452.69 114.41
  A 0.23 0.22 -71.9 0 0 452.87 114.77
  Q 467.26 114.75 481.75 114.80
  C 487.08 114.82 488.27 122.42 483.97 124.41
  Q 482.73 124.98 478.94 124.99
  Q 461.10 125.02 443.25 124.97
  C 436.30 124.95 438.74 114.71 441.11 111.37
  Q 456.41 89.93 471.70 68.53
  A 0.14 0.14 0.0 0 0 471.59 68.31
  Z"
/>
<path fill="#fbbf24" d="
  M 509.80 68.97
  L 509.81 85.23
  A 0.50 0.49 90.0 0 0 510.30 85.73
  Q 522.18 85.70 534.12 85.74
  C 538.22 85.75 541.25 86.85 540.75 91.52
  Q 540.29 95.82 535.74 95.87
  Q 523.05 95.99 510.33 96.02
  Q 509.80 96.02 509.80 96.55
  L 509.80 114.20
  Q 509.80 114.76 510.36 114.76
  Q 525.24 114.77 539.98 114.79
  C 545.15 114.80 546.51 121.86 542.67 124.17
  Q 541.30 124.98 537.69 124.99
  Q 520.96 125.01 504.25 124.99
  Q 498.76 124.99 498.76 119.25
  Q 498.74 91.37 498.89 63.49
  Q 498.93 57.76 504.75 57.81
  Q 521.50 57.95 538.25 58.06
  Q 544.13 58.09 543.64 63.99
  C 543.33 67.75 539.58 68.55 535.99 68.45
  Q 523.25 68.10 510.49 68.26
  Q 509.80 68.27 509.80 68.97
  Z"
/>
<path fill="#38bdf8" d="
  M 557.32 63.04
  A 5.07 5.07 0.0 0 1 562.40 57.98
  L 581.56 58.01
  A 30.13 30.09 -89.9 0 1 611.60 88.20
  L 611.58 94.94
  A 30.13 30.09 -89.9 0 1 581.44 125.01
  L 562.28 124.98
  A 5.07 5.07 0.0 0 1 557.22 119.90
  L 557.32 63.04
  Z
  M 568.34 68.58
  L 568.34 114.44
  A 0.37 0.37 0.0 0 0 568.71 114.81
  L 579.50 114.81
  A 20.48 20.46 -90.0 0 0 599.96 94.33
  L 599.96 88.69
  A 20.48 20.46 90.0 0 0 579.50 68.21
  L 568.71 68.21
  A 0.37 0.37 0.0 0 0 568.34 68.58
  Z"
/>
<rect fill="#c084fc" x="-5.53" y="-33.34" transform="translate(420.81,91.64) rotate(-0.1)" width="11.06" height="66.68" rx="4.86"/>
<path fill="#fb7185" d="
  M 362.84 97.45
  Q 362.83 108.72 362.83 120.01
  C 362.83 126.76 351.65 127.09 351.68 119.25
  Q 351.75 91.38 351.81 63.50
  C 351.81 59.58 355.28 58.82 358.70 58.80
  Q 370.98 58.72 383.25 58.79
  C 398.08 58.87 404.82 67.97 402.65 82.46
  Q 401.15 92.44 391.52 95.41
  Q 389.94 95.90 388.39 96.48
  Q 387.88 96.67 388.13 97.15
  Q 393.75 108.20 399.25 119.22
  Q 401.55 123.85 396.53 124.88
  C 391.41 125.93 388.86 123.98 386.69 119.33
  Q 381.60 108.41 376.55 97.52
  Q 376.30 97.00 375.73 97.00
  L 363.29 97.00
  Q 362.84 97.00 362.84 97.45
  Z
  M 362.83 69.31
  L 362.83 86.41
  A 0.30 0.30 0.0 0 0 363.13 86.71
  L 382.57 86.71
  A 8.66 7.81 -0.0 0 0 391.23 78.90
  L 391.23 76.82
  A 8.66 7.81 0.0 0 0 382.57 69.01
  L 363.13 69.01
  A 0.30 0.30 0.0 0 0 362.83 69.31
  Z"
/>
<path fill="#ffffff" d="
  M 307.48 67.75
  C 334.05 66.39 335.56 117.62 306.50 116.27
  C 282.03 115.14 281.07 69.10 307.48 67.75
  Z"
/>
<path fill="#ffffff" d="
  M 568.34 68.58
  A 0.37 0.37 0.0 0 1 568.71 68.21
  L 579.50 68.21
  A 20.48 20.46 -90.0 0 1 599.96 88.69
  L 599.96 94.33
  A 20.48 20.46 -90.0 0 1 579.50 114.81
  L 568.71 114.81
  A 0.37 0.37 0.0 0 1 568.34 114.44
  L 568.34 68.58
  Z"
/>
<path fill="#ffffff" d="
  M 362.83 69.31
  A 0.30 0.30 0.0 0 1 363.13 69.01
  L 382.57 69.01
  A 8.66 7.81 0.0 0 1 391.23 76.82
  L 391.23 78.90
  A 8.66 7.81 0.0 0 1 382.57 86.71
  L 363.13 86.71
  A 0.30 0.30 0.0 0 1 362.83 86.41
  L 362.83 69.31
  Z"
/>
</svg>
