  <svg xmlns="http://www.w3.org/2000/svg" baseProfile="tiny" version="1.2" viewBox="0 0 660 197">
    <path fill="#60a5fa" d="M154 75c6-14 21-20 36-17q10 2 15 9c4 4-2 9-6 8l-4-3c-9-7-21-5-27 3-7 9-7 26 0 35 6 7 16 8 24 4l7-5c5-1 10 4 6 9a32 32 0 0 1-44 1c-11-11-13-30-7-44Z"/>
    <path fill="#818cf8" d="M332 115c-8 11-22 15-35 10-21-7-26-36-15-53 10-19 38-20 50-3 10 13 10 33 0 46Zm-25 1c29 2 27-50 0-48-26 1-25 47 0 48Z"/>
    <path fill="#facc15" d="M249 68h-1v51l-1 3c-1 4-8 3-10 0V69l-1-1h-14c-8 0-7-10 0-10h41c7 0 7 10 0 10h-14Z"/>
    <path fill="#f87171" d="m57 109 15-44 3-6c3-2 11-1 9 5l-21 57c-1 4-8 5-12 2l-2-5-20-54c-2-6 6-7 9-5l3 6 15 44h1Z"/>
    <path fill="#4ade80" d="M107 97v18h30c5 0 7 7 2 9l-5 1h-33c-4 0-5-3-5-7V64q0-6 6-6h34c3 0 5 3 5 6q-1 4-7 4h-27v18h26c6 0 7 10-1 10h-24l-1 1Z"/>
    <path fill="#34d399" d="M472 68h-27c-7 0-7-10 0-10h36c7 0 5 10 2 14l-30 42v1h29c5 0 6 7 2 9l-5 1h-36c-7 0-4-10-2-14l31-42v-1Z"/>
    <path fill="#fbbf24" d="M510 69v17h24c4 0 7 1 7 6q-1 4-5 4h-26v19h30c5 0 7 7 3 9l-5 1h-34q-5 0-5-6V63q0-5 6-5h33q6 0 6 6c-1 4-4 5-8 4h-26v1Z"/>
    <path fill="#38bdf8" d="M557 63a5 5 0 0 1 5-5h20a30 30-90 0 1 30 30v7a30 30-90 0 1-31 30h-19a5 5 0 0 1-5-5V63Zm11 6v45l1 1h11a20 20-90 0 0 20-21v-5a20 20 90 0 0-20-21h-11l-1 1Z"/>
    <rect width="11.1" height="66.7" x="-5.5" y="-33.3" fill="#c084fc" rx="4.9" transform="translate(421 92)"/>
    <path fill="#fb7185" d="M363 97v23c0 7-11 7-11-1V64c0-4 3-5 7-5h24c15 0 22 9 20 23q-2 10-11 13l-4 1v1l11 22q3 5-2 6c-6 1-8-1-10-6l-10-21-1-1h-13Zm0-28v18h20a9 8 0 0 0 8-8v-2a9 8 0 0 0-8-8h-20Z"/>
  </svg>
