<svg xmlns="http://www.w3.org/2000/svg" viewBox="0 0 351 763">
  <path d="m281 6 3 2-3 3h-1v1l2 1 2 1h14l9-3h1v4q-3 5-8 8l-1 1c-1 2-4 2-6 2l-7 1h-1c-3 3-6 0-9 1l-1 1v1h8l4-1c2 0 4 2 6 1l6-3 1-2a1 1 0 0 1 1 0l8 2h7l6-2 1 2q1 3 5 3 3 3 7 3-2 2-5 2a1 1 33 0 0-1 0l-6 2a1 1-87 0 0-1 0l-1 4a1 1 32 0 0 0 2q3 1 4 4a1 1 50 0 0 1 0v-3h1l4-4q2-2 1 1v7l-1-1a1 1 0 0 0-2-1c-2 2 0 5 2 6h1q0-2 2-2h1v3a2 2 18 0 0 0 2h1l1-1V42l-1-6v-1h1l5 2 3 4c1 3 5 8 3 12l-3 8-3 9c0 2-1 4-3 4v1h1q2 0 2-2l1-1c2-2 2-5 5-6a1 1 0 0 1 2 1l-1 2q-3 3-4 7 0 2-2 2h-2l-1 1-1 2v1h1l2-3a1 1 0 0 1 1 0h1c-3 5-6 7-9 10l-3 3v2h3q4-4 10-4v1l-6 6-6 3-5 4-12 9-3 3-1 1-4 6-5 8-3 5-7 16-2 6a2 2-58 0 1-3 0q-4-2-8-7l-1-2-1-2h-1q-2 1-2 3l-6 10a3 3 0 0 0 0 4c4 4 4 13 5 19l-2 10 2 11v8q3 2 4 5v4c-3 3-2 5-4 8l-3 10-1 8v10q0 2 1 1a1 1 2 0 0 1 0l3-6q2-2 5-2 4 0 7 2l1 2 1 5v1l-3 6c-3 3 4 6 6 9v9q-2 1-2 4l4 5v1l-3 6-4 7-1-1h-1v1h2v7l-1 5q0 3-3 5l-1 1v3l1 2v35l-1 5-1 2-1 2-1 3v1l-1 3-1 2 1 1-4 4-1 1c-3-1-5-3-9-2-4 2-11 3-15 2l-3-1c-3 0-4 3-2 5a2 2 11 0 1 1 1l2 10 1 8 1 8 1 14 1 5 1 10 1 15 1 10 1 17 1 5 2 20 2 21 1 7q0 6 2 11v5l1 12 3 35 2 18 1 2a2 2 0 0 1 0 1l1 4 2 13 1 12 1 3 2 22v11l1 19v2h-2l2 1v10l2 10 2 13v15h-11v-8h-1v8h-12v-6a2 2 16 0 0-1-1l-1-1v8h-8q1-3-1-5 0-1 0 0v5h-7v-9l-1-10v-14l-1-26v-40l-2-12q0-1 0 0v12l1 30 1 36v10l1 23h-3v-10l-1-23v-10q-1-2-1 0v43h-2l-1-29v-8l-1-14c0-8-2-15-1-24l-1-15-2-38-1-9v-18q-1-1 1-2a1 1 0 0 0-1-1l-1-3-1-24v-6l-1-1-1 2 1 7v4l1 21v19l2 20 1 9 1 18v5l1 30 1 16v6l1 18v17h-3v-28l-1-1a1 1 0 0 0-1 1l1 28h-3l-1-20v-20l-1-8v-20l-2-27v-4l-1-9-1-17v15l1 11v26l1 23 1 16v10l1 24h-2l-2-30v-15c-1-23-1-47-4-70l-3-30-8-62-5-40-2-10h-1l1 14 1 7 1 3v14l4 31 2 12v2l3 18 2 16 4 50 1 19c1 28 3 47 3 71h-3v-32l-2-33-1-30-11-98-1-6-1-8-2-7q0-1 0 0l1 13 1 10 1 16 7 59 1 7v6l1 14 1 12v8l1 24 1 14 1 20v11h-2l-2-33v-7l-2-42c0-19-2-38-5-58l-1-15-1-6c-1-7 0-14-3-20q-1-3 0 0v7l2 27 3 28 2 24 2 28 1 17v11l1 20v19h-2l-1-41q1-11-1-23l-1-8v-7l-2-29-3-24v-7q-2-7-2 0l5 54 1 26 1 19v7l1 33h-3v-23c0-4-1-8 1-12v-1c-2-3-1-11-1-15l-1-8v-21q-1-3-1 0l-1 9 1 19v52h-7V657h-1v80l-1 26h-2v-78l-1-3-1 1v80h-3v-17l1-4v-68l-1-5q-1-2-1 0l1 8-1 42-1 19v25h-3l1-16v-33c1-13 2-29 1-43l-1-16v-1l-1 1 1 13-1 30-1 65h-3l1-16v-7c0-26 2-53 1-79v-18q-1-5-1 0v31l-1 24v4l-1 30v31h-2v-52l1-46v-80q-2-3-2 1v114l-1 12-1 51h-2v-30l1-22v-46l1-44v-38l1-3-1-5a2 2 46 0 1 0-1l1-4-1-5v-21c0-4 2-13-1-17q-1-2-1 0l1 69v3l-1 42v24l-1 9c1 14 0 28-1 43v41a1 1 0 0 1-1 0h-1a2 2 20 0 1 0-2l1-67 1-46V527l1-3a1 1 53 0 0 0-1l-1-7v-24l1-2a1 1 54 0 0 1-1l-2-5 1-21 1-3a1 1 54 0 0 0-1l-1-20 1-10 1-28v-25a1 1 58 0 0-1 0l-1 1a3 2 62 0 0 0 1l-1 17-1 48-1 8v106q1 43-1 87l-2 75v44h-2v-31l1-41 1-17v-29l1-34v-79l1-68 1-14-1-9 1-44 1-17v-9c2-11 0-22 0-34v-8l1-33v-20 13l-1 13-1 13v29l-1 26-1 12-1 69-1 62v39l-1 52 1 16-1 39-2 68-1 36h-2l1-43 1-21 1-55v-37l1-95 1-9v-53l1-71 2-20v-33l1-17 1-19 1-1v-14l-1-2v-4q0-3 0 0c-2 6-2 13-2 18l-1 22q-3 29-3 59l1 3-1 11-2 49v5l-1 27v43l-1 14v113l-1 8 1 37-1 15-2 51v19h-2l1-44v-5l1-10v-40l2-148 1-35v-32l1-48 1-17v-30l1-17 3-41v-5l1-10q-1-2-1 0l-2 6-1 6-1 13v7l-1 13-1 16v34l-1 15-1 5v14l-1 77v19l-1 57v8l-1 58v17l-2 91-1 26h-2l2-62v-20l1-34-1-11c0-11 2-23 1-31v-28l-1 41-1 24v17c-1 35-1 60-3 88l-1 16h-2l1-23 2-30 1-78 1-40 1-28v-39l1-52-1-18 1-41 1-25v-28l3-39 2-19v-6l1-10 4-38c4-24 10-47 17-69q2-5-1-1l-1 5-6 15-7 26-2 8-3 19-1 11-3 24-1 16-2 33-1 1-1 3-1 36v12l-1 37v12l-1 21v9l-1 82-3 125-1 28-1 34-1 27h-2l2-49v-13l1-40v-37l1-18 1-19 1-63v-8l2-47v-38l1-58 1-30 1-18 2-5v-10a522 522 0 0 1 23-124l11-23 3-7v-1h1v1l5-9 9-12q1-1 0 0h-3l-2 2c-4 6-9 11-13 19l-3 9q-4 6-15 32l-3 9-2 7-5 27-7 45-2 20-3 33-1 10-1 40v26l-1 40v6l-2 48v15l-1 30-1 50q0 2 2 2v1h-1l-1 1-1 46-2 58-1 33v19h-2v-10l1-28 3-108v-14l1-26 1-56 2-65 1-29v-30c-1-22 0-40 2-58l6-68c3-23 8-45 13-66l3-9 17-38c4-7 7-13 13-20v-1h-1q-9 8-12 18l-4 6-9 18-5 12-10 30-1 13-6 36-5 35-3 27q-2 13-2 40v61l-1 19v14l-3 93v18l-2 89v8l-1 42-2 29v18h-2l1-16 1-44v-14l2-64v-55l3-109 2-66 1-47 1-20 7-56 6-34 3-10h-1l-1 3-1 2-4 19-7 39-4 34-1 7-2 17-1 32v10l1 18-2 62-2 37-1 72v29l-1 74-2 45-1 35h-2c2-38 4-67 3-100l1-78a1 1 0 0 0-1 0 2 2 78 0 0-1 1l-1 41v20l-1 61-2 55h-2l1-15-1-9 1-13 1-22 1-62v-20l1-48 2-81 1-54v-29l2-36c-1-34 3-63 8-98l2-11 1-8 5-21c2-12 6-23 10-35l8-21 9-17 7-12 5-7q2-4-1-1l-6 7-3 5-6 9q-12 23-17 40l-7 21-3 18-4 19-2 9-4 30-2 16-3 35v14q1 14-2 66v9l-1 61v13c0 33-2 64-1 98l-1 19-1 58v20l-1 25v10l-1 18h-2l3-101 1-61v-22c1-27 2-53 1-80l1-4c-1-26 0-52 1-77l1-28 1-32c0-21 2-37 4-55l1-10 2-18 2-14 1-4q0-1 0 0l-5 28-2 11-3 21-1 13-2 30v6l-1 38-1 16-1 62v81l-1 17v13c1 24 0 47-1 70l-2 66-1 34h-2l1-39 1-35 1-15v-14q0-3-1 0l-1 3v20l-1 16-1 17-1 47h-2c0-39 3-72 4-119l1-38V426l1-20 2-50 2-37 7-48 4-18c6-22 11-44 21-68l5-14 5-9 8-12v-1l-1-1-11 17-4 7-3 5q-8 20-14 41-8 29-10 43l-8 44-2 23-2 29-1 22-1 17v11l-1 42v124l-1 15-1 64-2 71-1 40h-2v-14l4-119 1-24-1-9 1-5v-86l1-15v-79l2-46 1-30q2-26 8-60 3-22 6-30l2-9c4-21 11-41 19-61l9-16h-1c-9 12-15 25-20 40l-7 23-3 13-8 33-1 6-4 18-2 15q-4 21-4 33l-2 22-2 59v49l-1 26v11l-2 87v16c-1 41-2 83-5 125l-1 27h-1l1-41v-10l2-48 2-64h-1l-2 77-1 15-3 31-2 40h-2c0-15 2-32 3-43l1-25 2-51 1-20 1-50v-31l1-49v-14l1-64v-24q0-22 2-43l2-26 1-8q0-3 0 0-3 10-4 22l-2 15-1 38 1 16v10l-1 7-2 72-1 40-1 67v6l-1 33v11l-2 31-2 30-2 50h-2l1-19v-7l3-53 1-15c0-15 2-31 1-47l1-45 1-45 1-32c0-26 2-53 3-76v-17c1-6 0-12-1-17q-1 0 0 0v-1a2 2-36 0 0 0-1v-20c-2 9-1 17-1 26v23l-1 15-2 28-1 8-2 63-1 64v15l-3 70-1 17v11l-3 55h-2l1-19 1-11c0-30 3-59 3-88l2-45 1-42 1-53 2-49 3-52v-18l1-15 3-24 1-9v-1c2-1 2-4 2-6v-2l2-10 2-12 2-7 6-28 16-63 10-27 8-14h-1q-8 11-13 23l-4 14-10 34-16 64-1 11-1 13-1 3v3l-1-1v-6l1-3h-1v1l-4 23-3 22-1 12v8l1 12-1 14-2 26-1 9v6l-2 45-1 24v17l-1 13v31l-1 12-1 44v8l-1 29-3 53-1 31h-2l2-54 5-129 1-50 2-68 1-11v-6l-1 1-1 10v6l-2 27 1 6-1 7v11l-1 11v7l-2 40-1 49-1 4c1 47-3 93-5 139h-2l2-34 1-34 3-65v-28l2-44 1-34v-17l-1 8v8l-1 6v14l-2 34-1 14-1 42c0 24-2 43-3 64l-2 37-1 29h-2l2-27 2-55 1-26v-9q0-35 2-53l1-20 1-12 1-9v-23a1 1 0 0 0 0-1l-3-1h-1v6l2 6v11l-1 7v7l-1 22-1 9-1 20v22l-1 12-2 46-2 24-2 44h-3l2-42 2-53 1-15a1 1 0 0 0-1-1l-1 11-1 8-1 13v15l-3 60v4h-3l1-11c0-20 2-43 3-58 0-15 1-28 3-41q0-3-1-1v1a1 1 42 0 1 0 1c-2 4-2 9-2 13l-2 23-1 30-1 13-1 18v12h-3l1-20v-12l2-25v-5l1-16 2-14v-9l2-13c1-2 2-1 3-1l1-2a1 1 0 0 0-1-1c-2 0-2-1-2-3l1-7 2-28v-4l1-3 2-30v-3l1-9 1-12 2-9 2-22 3-23 3-20a1 1 0 0 1 1-1l1-1 1-1 1-9v-1h-2l1-6v-5l2-22q2-3 2-7 2-1 1-4v-3q2-2 1-6v-7l1-2h-1v6q0 4-2 6l-1-3-1-10-3 1-4-6h1l1 1a1 1 18 0 0 2-1c0-10 2-20 3-29l2-18h-1l-4 22-2 15v7a1 1 0 0 1-1 2h-3l-4-3q2-1 1-2h-1l-1 1-1-2c1-2 5-3 6-1h1l-1-2c-2-1-6 0-8 1l-3-5h3a2 2-64 0 0 3-1l-2-2a1 1-45 0 0-1 0h-3l-1-1-1-2-1 1 1 2-4-5 2-1v-1l-1-2c2-3 0-5-2-4l-1 1 2 2a1 1 0 0 1 0 1h-3l-1-1q2-3 0-5h-1l-1-1-1-1h-1l-3-3v-4h-1q-1-1-2 1l-2-3q-2-4-6-6a2 2 0 0 1-1-3l1-3a1 1 0 0 0-1-1l-2 1h-2l-3-3 1-3-1-1-3-5q0-2-2-2l-1-1-1-7-1-2 2-4v3q0 2 2 1h1v-6l1-5-1-1v1l-2 4-1 1q0 1 0 0c-2-5 4-12 7-15l3-2q3-2 4-6l4-6 7-11v-1c4-2 7-7 9-9l20-21 4-6 2-3q4-2 6-7 9-8 16-18 3-1 2-4l2-2q3 1 4-2l1-1q6-3 10-8l3-5 7-6 8-9q3-3 4-7l9-10 4-4 10-10 6-4 8-7 9-7 1-1v-1l1-5q3-2 4-5l1-1q0-1 0 0l1 1c-1 3-3 6-2 9l1 1q3 0 4-2a1 1 51 0 0 1-1c-2-5 1-7 3-10a1 1 17 0 0-1-2l-2-1q-1 0 0 0l5-3 2-1 6-6v-1l1-2a1 1 56 0 0 0-1v-3 3a1 1 0 0 0 1 1l2-1v-2l-2-3a1 1-51 0 1 0-1v-1l3-8 2-1q5 0 5-4l1-1a1 1 61 0 1 0-1l1-2a1 1 0 0 0 0-1h-1l-2 4-2-1c-3-3 0-6 0-9l2-4h4a1 1 38 0 0 1 0l1-1v4h1l7-4c0-2 0-5-2-6s-4 2-5 3h-1q-2 0-1-3l6-7q4 0 6-3 3-2 7-2h1l2-2 7-12 4-3 6 1 4 3 4-1v-1l3-4 9-2 9-2Zm-7 6a1 1-29 0 0-1 0 1 1-29 0 0-1 1 1 1-29 0 0 2 1 1 1-29 0 0 0-2Zm8 3a3 1-12 0 0-3 0 3 1-12 0 0-2 1 3 1-12 0 0 2 1 3 1-12 0 0 3-2Zm-43 15v-1l4-5q5-3 7-8a1 1 16 0 0-1-1 1 1 0 0 0-1 1l-1 3-5 1-1 4-3 5 1 1Zm26-6-1 1v1h3l1-4a1 1-26 0 1 0-1l3-4q1-2-1-1h-2l-2 2-4 5a1 1 0 0 0 1 1h2Zm37-7-2 3q-1 1 0 0l3-2v-1h-1Zm-14 1a2 1-18 0 0-2-1 2 1-18 0 0-2 2 2 1-18 0 0 2 0 2 1-18 0 0 2-1Zm9-1c-5 2-9 3-12 7v1h1a3 3 0 0 0 2-1q4-4 9-6v-1Zm-39 1-3 3v1a2 2-53 0 0 3-1 2 2-53 0 0 0-3Zm17 3c-1-2-4-2-5 0h5q1 0 0 0Zm4 3h3a1 1 0 0 0 0-2h-1c-2 2-4 2-6 2l-1 1h1l4-1Zm-19 6q-3 0-5 2-1 1 1 2h1l4-2q2-1 1-2h-1v-1l2-1v-3a1 1 0 0 0-1 0q-2 0-3 3-1 1 1 1v1Zm-5-4-1-1q-2 0-3 2a2 1-8 0 0 3 1l1-2Zm66 3a1 1 53 0 0 0-2 1 1 53 0 0-1 0 1 1 53 0 0 0 2 1 1 53 0 0 1 0Zm-47 2a2 1 53 0 0-1-2 2 1 53 0 0-2-1 2 1 53 0 0 1 2 2 1 53 0 0 2 1Zm30-2a3 2-16 0 0-3-1 3 2-16 0 0-2 3 3 2-16 0 0 3 0 3 2-16 0 0 2-2Zm18 2q-4-2-8 0l1 3h9a1 1 0 0 0 0-2l-2-1Zm-27 1 2 1a1 1 68 0 0 1-2h-3v1Zm-51 3 6-2a1 1 0 0 0 0-1v-1a1 1 0 0 0-1 0l-5 2c-2 0-4 1-4 3h1l3-1Zm67-2a2 2 15 0 0-2-2 2 2 15 0 0-2 1 2 2 15 0 0 2 2 2 2 15 0 0 2-1Zm-47 6 2 1a1 1 0 0 0 1 0l3-2q2-2 1-4l-2-1h-1q0 2-2 3h-1c-3-1-5 0-7 1l-3 1-1 1a1 1 0 0 0 1 1l8-1h1Zm-32 1c2-2 0-4 3-6v-1c-2 1-3 5-4 7h1Zm66-6h-2l-1 1a2 1 73 0 0 2 1h1a2 1 73 0 0 0-2Zm-11 3c-2 2-8-2-11-1a1 1-36 0 0 0 2l4 2q5-1 8 1a1 1-75 0 0 2-1q0-2-2-3v-1l-1-2h-3a1 1-15 0 0 0 1q1 2 3 2 1 0 0 0Zm28 1-1-1a1 1-18 0 0-1 2c2 2 7 3 7-1a1 1 0 0 0-1-1l-3 1a1 1-33 0 1-1 0Zm-72 0h-1 1v-1 1Zm67 1q1 2 2 0a1 1-75 0 0-1-1h-1a1 1-33 0 0 0 1Zm29 0 1 7a4 3 86 0 0 3-4 4 3 86 0 0-4-4v1Zm-111 2a1 1-42 0 0-2 0 1 1-42 0 0 0 2 1 1-42 0 0 2-1 1 1-42 0 0 0-1Zm16 12a1 1 0 0 1 1-1l9-2h1l1 1h1l6-3c3-1 5 0 6-3l-1-1-5-2a1 1 0 0 0-1 1c2 5-6 5-9 5h-1c-3 2-7 2-10 5l-2 4h-1q0 4-3 7v1l-1 1h7v-1q-1-2 1-4a2 2 81 0 0 1-1v-7Zm59-10a2 1-9 0 0-1-1 2 1-9 0 0-2 2 2 1-9 0 0 2 0 2 1-9 0 0 1-1Zm-50 0a1 1 0 0 0-1 1v1a1 1 0 0 0 0 1h6l1-2a1 1 0 0 0-1-1h-5Zm67 1a1 1 0 0 0-1 1l2 5a1 1 0 0 0 1 1h1a1 1 0 0 0 1-1l1-2a1 1 0 0 0-1-1l-4-3Zm-41 1a1 1 0 0 0-2-1h-1a1 1 0 0 0-1 2l-1 2a1 1 0 0 0 2 1h1a1 1 0 0 0 2-1v-3Zm61 26c4-5 0-17 6-20a1 1 0 0 0 0-1l-1-6a1 1 0 0 0-1 0l-3 6v1l-3 21q0 1 0 0l2-1Zm-67-27-5 3v1a3 3 0 0 0 5 0 3 3 0 0 0 0-4Zm-40 1a1 1-37 0 0-1 0 1 1-37 0 0-1 1 1 1-37 0 0 1 0 1 1-37 0 0 1-1Zm58 4v2a2 2-83 0 0 2 3c3-1 2-5 2-8l-3-1v3h-1l-8-4a1 1 0 0 0-2 2v4h3l5 2 1-1 1-2q0-1 0 0Zm27 4q-1 4 2 7a1 1 0 0 0 1 0v-2q-2-2-1-5v-1l-4-6h-1l2 6a1 1-57 0 1 1 1Zm-88-6v-1l-2 1v1a1 1 0 0 0 1 0l1-1Zm72 1 2-1q1 0 0 0h-2l-1 1h1Zm-2 3h-3l-1 1-1 3a1 1 7 0 0 1 1h2l2-1 1-6a1 1 0 0 0-1-1l-2-1a1 1 0 0 0 0 3l1 1h1Zm2 8h1a2 2 86 0 0 2-3q-1-3 2-4v-1q-1-1-3 1c-2 3-4 4-3 8a1 1 18 0 0 0 1l4 4h1q1 1 1-1a1 1-81 0 0-1-1l-4-3v-1Zm-80-5 6-2a3 2-21 0 0-4-1 3 2-21 0 0-2 3Zm22 81v1h-1l1 1h1v-1l4 1q1-2-1-3l3-1c3-1 5 0 7-3l1-1v1l-1 2a1 1 0 0 0 1 1l2-1q1 2 3 2h1-1v-1l1-1h1c4 5-3 9 0 13v-2l2-3a1 1-72 0 1 1 0l1-1h1c0-3 0-9-5-8h-1c-2-2-3-4-6-3a2 2-43 0 1-1 0c-4-2-6-1-11 0a1 1 85 0 1-1-1l2-1 6-6 1-1q2 0 2-2a1 1 0 0 1 1 0l2 1 1 1-1 1q-2 1-1 3h9l2 2h-2l-1 1 2 2c4 0 2 2 4 3h3q0 2 2-1h1c-3 4-1 7-5 9l-1 1 1 1a2 2-48 0 0 3 0c1-4 4-8 6-11l2-3q0-4-2 0l-2 2-3-1c-2 0-1-2-1-4v-1h-2v1l-2 3h-1v-3l-3-6a1 1 73 0 0-1-1q-1 1-2-1a1 1 55 0 0-1 0l-1 1a1 1 0 0 1-1-1c2-5 4-9 10-8l2-1 1-1v1a2 2-1 0 1-2 2c-2 0-5 0-5 2a1 1-81 0 0 0 1l4 1a3 3 11 0 1 2 3v1a2 2 0 0 0 2 3c3-1 4-2 5-4 4-6 8-11 9-18l-1-7v-1h1a1 1 0 0 0 1 0l5-3a1 1 17 0 0 1 0l5-7q0-1 0 0v2a1 1 0 0 0 3 1l1-2h1a1 1 32 0 1 0 1l-1 2v1q0 2 2 3h1c3-1 2-4 3-6 1-5 0-7-4-10l-4-4q-2-4-8-6l-4-4-13-5-3-1a2 2 45 0 0-3 0c-2 3-5-1-8 0v1h2q1 0 0 0l-5 2-1 1-2-1-1 1-11 8v4a1 1-74 0 0-1 1l-5 5c-4 4-3 10-6 14v1c0 3 1 6-2 8l-1 1c-2 3-4 5-4 8l-1 8 2 6h1q4 2 7 6l4 1a1 1 0 0 1 0 2h-1v1l3 3v2Zm66-83a1 1 0 0 0-2 1v3a1 1 0 0 0 1 1l1 1a1 1 0 0 0 1 0l1-3a1 1 0 0 0 0-1l-2-2Zm-80 1-1-1v1h1Zm99 6a1 1 0 0 0 1-1l1-2a1 1 0 0 0 0-1l-3-2a1 1 0 0 0-1-1l-2 2a1 1 0 0 0 0 1l4 4Zm-77-6-3 2-1 1v3l1 1 4-5a1 1 0 0 0-1-2Zm-20 4 3 3h1l-1-1-1-4a1 1 0 0 0 0-1h-1a1 1 0 0 0-1 3Zm6 1a2 1 79 0 0 1-2 2 1 79 0 0-1-2 2 1 79 0 0-1 2 2 1 79 0 0 1 2Zm73 3-5-4a1 1 0 0 0-1 0 3 2 42 0 0 1 3l1 2a3 2 42 0 0 4 0 1 1 0 0 0 0-1Zm3 0 5 7q1 2 1 0c0-3-1-8-4-11l-1 1-1 2a1 1 0 0 0 0 1Zm21 0a2 1 82 0 0 1-2 2 1 82 0 0-2-2 2 1 82 0 0-1 2 2 1 82 0 0 2 2Zm-105-1a1 1 49 0 0 0-2 1 1 49 0 0-1 0 1 1 49 0 0 0 1 1 1 49 0 0 1 1Zm-9-2-8 6v1h1l8-6-1-1Zm108 2a1 1 0 0 0-3 0v4a1 1 0 0 0 1 1l1 1a1 1 0 0 0 2-1v-2a1 1 0 0 0 0-1l-1-2Zm2 8a1 1 0 0 0 1 0l1-1v-3l-2-2a1 1 0 0 0 0 1v5Zm-14 0q-1-3-4-5a1 1 0 0 0-1 0 2 2 0 0 0 0 2l4 4h1v-1Zm-88-2a2 1 120 0 0 2-1 2 1 120 0 0 0-2 2 1 120 0 0-1 1 2 1 120 0 0-1 2Zm96 0v-1l-1-1q-1 2 1 2Zm-101 4a2 1 57 0 0 0-2 2 1 57 0 0-2-2 2 1 57 0 0 0 3 2 1 57 0 0 2 1Zm90 15c1-3 3-4 3-7q0-3-2-5l-6-6h-2v2c3 2 6 5 7 8v8q0 2 0 0Zm-94-11a3 1 76 0 0 1-3 3 1 76 0 0-2-3 3 1 76 0 0-1 3 3 1 76 0 0 2 3Zm-6-4a1 1 67 0 0 0-1 1 1 67 0 0-1-1 1 1 67 0 0 0 2 1 1 67 0 0 1 0Zm118 3 1-1-2-2a1 1 82 0 0 0-1c-3 0-2 3 0 4a2 2-43 0 0 1 0Zm-121-3a1 1-11 0 0-1 0 1 1-11 0 0-1 1 1 1-11 0 0 1 0 1 1-11 0 0 1-1Zm114 1a1 1 4 0 0-1-1 1 1 4 0 0-1 1 1 1 4 0 0 1 0 1 1 4 0 0 1 0Zm-97 1-1-1-1-1 1 1 1 1Zm8 1a1 1 121 0 0 1-1 1 1 121 0 0 0-2 1 1 121 0 0-1 1 1 1 121 0 0 0 2Zm-21 1 1 4a1 1 0 0 0 2 0v-4a1 1 0 0 0 0-1l-2-1a1 1 0 0 0-1 1v1Zm18 2a1 1 118 0 0 1 0 1 1 118 0 0 0-1 1 1 118 0 0-1 0 1 1 118 0 0 0 1Zm94 1v2a1 1-50 0 0 0 1l1 2v1c-1 1-3 6 0 6a1 1-80 0 0 1 0l2-5v-7a1 1-88 0 0-1-1l-7-1h-1c0 2 3 3 5 2q0-1 0 0Zm-121 1h2a1 1 0 0 0 1-1l-1-1a1 1 0 0 0-1-1l-2 3h1Zm6 6-1 1h-1l1 1 3-2c1-3 2-5 0-7h-1l-1 2 1 5a1 1 0 0 1-1 0Zm124-4a1 1 107 0 0 1-2 1 1 107 0 0 0-1 1 1 107 0 0-1 1 1 1 107 0 0 0 2Zm-107-1 1-1v-1l-1 1v1Zm6 0a1 1 0 0 0-1-1 1 1 0 0 0-2 1 1 1 0 0 0 2 1 1 1 0 0 0 1-1Zm-31 1h-1v1a1 1 0 0 0 0 1h1v-2Zm16 4q2 0 2-3v-1l-1 1h-1l-1 3h1Zm103-2-2-1v1h2Zm-98 2a1 1 133 0 0 1-1 1 1 133 0 0 1-1 1 1 133 0 0-2 0 1 1 133 0 0 0 2Zm-18 2a1 1 79 0 0 1-2 1 1 79 0 0-1-1 1 1 79 0 0-1 1 1 1 79 0 0 1 2Zm131-3h-1v1h1v-1Zm-112 5a2 1 126 0 0 1-2 2 1 126 0 0 1-2 2 1 126 0 0-1 2 2 1 126 0 0-1 2Zm-23 9a1 1 0 0 0 0-1l2-5a1 1-42 0 0 0-1v-5a1 1 0 0 0-1 0h-1c1 4-1 8-1 12q-1 0 0 0h1Zm115-10h3v-1l-1-1a1 1 23 0 0-1 0l-1 2Zm-101 1 1-1-1-1v2Zm2 4a2 2-3 0 1-2 2c-3 1-4 1-5 4a1 1 0 0 0 1 1c4 1 8-4 10-7l1-5-1-1c-3 0-4 4-4 6Zm-12-5 1 2v-2h-1Zm6 2c0 1 2 2 2 0q1 0 0 0h-2q-1 0 0 0Zm105 0v5l3-3q1 0 0 0l-3-1v-1Zm-117 1-1-1h-1l2 2v-1Zm111 3 2-1a1 1 56 0 0 0-1v-1h-1l-1 3Zm-3 2-2-3-3-1v3a1 1 0 0 1 0 1l-2 1 1 1 2 3h1c3-3 5 0 9-1v-1l-2-2a2 2-14 0 0-1 0l-1-2-2 1Zm-14-4a1 1-15 0 0-2 0 1 1-15 0 0 0 1 1 1-15 0 0 1 0 1 1-15 0 0 1-1Zm31 4 1-1h2q-2-2-5-2a1 1 0 0 0-1 0l1 3a2 2-64 0 1 1 2l-1 3q1 4 2 0 2-2 0-4a1 1-62 0 1 0-1Zm-26-1 1-1-1-1v2Zm-90 4a2 1 93 0 0 1-2 2 1 93 0 0-1-2 2 1 93 0 0-1 2 2 1 93 0 0 1 2Zm-5 2a3 2 104 0 0 2-2 3 2 104 0 0 0-3 3 2 104 0 0-3 2 3 2 104 0 0 1 3Zm-16 5a1 1 0 0 0 1 2l5-3a1 1 0 0 0 1-1l2-6a1 1 0 0 0-1-1h-1a1 1 0 0 0-1 0l-6 9Zm141-7-1-1h-1v2a1 1 64 0 0 1 0q2 0 1-1Zm-32 0h-2 2Zm22 7a3 1 118 0 0 3-3 3 1 118 0 0 0-3 3 1 118 0 0-3 2 3 1 118 0 0 0 4Zm-22-4-4 3a1 1 0 0 0 0 1 3 2 56 0 0 4 1l1-1a3 2 56 0 0 0-4 1 1 0 0 0-1 0Zm17 3h1v-1h-1v1Zm-114 1a1 1 54 0 0 0-1 1 1 54 0 0-1-1 1 1 54 0 0 1 1 1 1 54 0 0 0 1Zm110 2a2 1 126 0 0 2-1 2 1 126 0 0 0-2 2 1 126 0 0-2 1 2 1 126 0 0 0 2Zm-3 1 1-1-1-1v2Zm-102-1 1 1-2 2a1 1 0 0 0 0 1q2 0 3-2v-1q-1-2-4-2v1h2Zm20 0v1l-1 7q0 2 2 1v-10 1h-1Zm-6 5 2-5q1 0 0 0h-2l-1 5h1Zm67 10q-1 2 1 4 3-1 4-4h1v1l1 1q2 0 3-2v-5l3-7q1-3-1-2l-2 1h-1l-2-2a1 1 27 0 0-2 1l-5 14Zm17-14h-3l1 3 2-3Zm-124 15 7-5 6-5 7-4v-1q-1-1-2 1l-12 7-3 3c-9 6-17 12-23 20a1 1 0 0 0 0 2 1 1 0 0 0 2 0q9-13 18-18Zm44-7 1-7h-1a4 2-82 0 0-2 3 4 2-82 0 0 1 4h1Zm88-6h-1q-1-1 0 0h3v-1l-1 1h-1Zm-100 1a1 1 32 0 0-1-1 1 1 32 0 0-1 0 1 1 32 0 0 1 1 1 1 32 0 0 1 0Zm4 2a1 1 0 0 0-1-1 1 1 0 0 0-1 1 1 1 0 0 0 1 1 1 1 0 0 0 1-1Zm-29 9 13-8a1 1 0 0 0 1-2 1 1 0 0 0-2 0c-3 1-12 6-13 9l1 1Zm17-6a1 1 0 0 0-1 0l-10 5a1 1 0 0 0 0 1 1 1 0 0 0 1 1l10-6a1 1 0 0 0 0-1Zm6 0a5 1-33 0 0-4 2 5 1-33 0 0-4 3 5 1-33 0 0 5-1 5 1-33 0 0 3-4Zm-41 5v1l3-2v-2l-3 3Zm46-3a4 1-36 0 0-4 1 4 1-36 0 0-3 4 4 1-36 0 0 4-2 4 1-36 0 0 3-3Zm-1 6 5-3a1 1-42 0 0 0-1h-2l-3 3v1Zm9-1-2 1v1l3-1v-1a1 1 53 0 0-1 0Zm-7 3h-1l-13-2v1l13 2h1v-1Zm14 0a2 1-3 0 0-2-1 2 1-3 0 0-1 1 2 1-3 0 0 1 1 2 1-3 0 0 2-1Zm-37 0-3 5q-3 3 1 1t6-5v-1h-4Zm-8 1-10 7q-2 1-1 4h2q4-7 9-11Zm3 2 1-2q1-1 0 0l-1 2Zm13 1h5v-1q1-1-1-1l-6-1a1 1 16 0 0-1 0l-2 3q-2 2 1 1l4-1Zm-34-1v-1l-2 1h2Zm123 0 1 3-1 2-3-4q0-2-1 0l2 7q-3 4-4 9v5a1 1 0 0 0 1 1l2-1q1 0 0 0h1a1 1-31 0 0 0-1c-1-6 2-12 5-18v-2l1-2q-2-1-4 1Zm-65 1h1l8 2v-2l-1-1-11-1h-1v1h3l1 1Zm-14-1h-3l2 1 1-1Zm-43 12 3-5 3-4q5-6-1-1l-6 7a2 2-44 0 0 0 3h1Zm122 2 1 1v-1l4-8 3-4q0-2-2-1l-2 4-4 8a1 1 40 0 0 0 1Zm-103-13h-1l-4 3v1l-1 1 1 1 2-1 3-5Zm33 0h-4l4 1v-1Zm2 2 2 1 1-1v-1h-3v1Zm-59 0v-1l-6 6v1h1l5-6Zm-9 0h-1l-1 1h1l1-1Zm72 2h2a1 1 63 0 0 1-1q-2-2-3 0v1Zm-16-1-7 11q-8 11-13 21l-13 33-3 14-2 11-5 25-2 18q0 2 1 0l1-5 6-31 1-7 3-13 11-33 8-18c5-9 10-18 17-26l-1-1-1 1h-1Zm-8 21-6 12q-10 22-16 44l-2 8-2 6c0 4-2 7-1 11v1l2-3 6-25 5-11c6-23 16-43 29-63l-1-1-1-1-1 1-3 5-9 16Zm0-20v2l-6 8-3 4c-9 15-16 32-21 48l-5 20c-4 10-5 21-6 32v2q0 2 0 0l6-23 2-7q5-28 17-52c3-7 6-15 11-21l9-10 2-4h-1l-9 1-1 1c-4 5-9 10-11 15l-6 13q-6 12-9 24l-9 30-3 14-2 13-2 16-4 25v3q-2 11-2 23l-3 27-1 8v41l-2 36v134h1q2-38 2-77v-75l1-17 1-34 2-45 1-13 1-8 5-19 3-27 1-9 3-14q6-28 18-56 8-17 20-29Zm-3 45c5-15 13-31 21-45a1 1 31 0 0 0-1l-1 1q-10 15-18 32c-6 13-11 30-17 45l-2 7v1h1l5-13 4-10 3-7 4-10Zm37-45a1 1 0 0 0 0-1 1 1 0 0 0-1 1 1 1 0 0 0 1 0Zm25 5q-3-5-9-5l-1 1 8 13a2 2 0 0 0 1 1c4-1 5-8 1-9v-1Zm-30-3a1 1 45 0 0 0-1 1 1 45 0 0-1-1 1 1 45 0 0 0 2 1 1 45 0 0 1 0Zm-14 13 7-13a1 1 0 0 0-1-1l-2 1-9 18q-7 15-12 31c-2 4-2 7-5 11q-3 3-4 8h1l4-5a2 2-13 0 0 1-1l1-5c9-17 14-34 19-44Zm-12 39 23-49v-1l-1-1a1 1 0 0 0-1 1l-6 12-15 35-1 4-4 6 1 1c4-2 3-5 4-8Zm-74-33-3 5v1h1q4-4 6-9l1-1 5-4 6-8a1 1-26 0 0 1-1h-1l-12 12-4 5Zm120-16 1 2h1l-2-2q-1 0 0 0Zm-18 1-2-1v1a47 1-62 0 0-21 42 47 1-62 0 0 23-41v-1ZM117 418l-1 58-1 19-1 84 1 4a1 1 0 0 0 0 1h1v-6l2-90 2-75q0-33 2-65v-6c2-15 2-30 5-45l2-14c2-12 3-23 7-37 2-7 3-16 6-23l9-27c4-14 10-24 16-35l2-5 6-9 4-6v-1l-6 7-4 4-8 16-14 31-7 18-8 34-2 10-4 28-1 6-6 54v3l-1 23-1 44Zm134-271 3 3a1 1 0 0 0 1-1l-7-7-1-1h-1c0 3 4 3 5 6Zm19-3-1-3-2 2v1h3Zm-33-2 2 4a2 2 62 0 0 1-3 2 2 62 0 0-3-1Zm-3 6a3 1 105 0 0 2-2 3 1 105 0 0-1-3 3 1 105 0 0-2 2 3 1 105 0 0 1 3Zm-83-2v-1l1-1h-2l-2 2q0 2 1 1l1-1h1Zm-48 458h1l1-38v-11l1-40V410l3-71c1-20 4-38 7-59l3-14 5-18 11-42q3-11 14-34 5-11 13-22 2-2 2-5v-1c-9 8-13 17-19 29l-7 17-6 19-3 8-9 35-6 27-1 8-4 24-1 17c-4 28-3 55-5 82v194Zm45-453 6-4a1 1 0 0 0 0-1l-2 1a1 1-66 0 1-2 1h-1l-1 1-1 2h1Zm96-2a2 2 0 0 0-1-2 2 2 0 0 0-2 2 2 2 0 0 0 2 1 2 2 0 0 0 1-1Zm-8-1v4q-1 0 0 0c1-1 3-3 2-4l-1-1a1 1 0 0 0-1 1Zm11 0q0 3 3 5a1 1 21 0 0 1-1l-1-2-3-2q0-1 0 0Zm-19 10a4 1 117 0 0 3-3 4 1 117 0 0 0-4 4 1 117 0 0-3 3 4 1 117 0 0 0 4Zm13-5-1-2a1 1 0 0 0-2 1l-2 9v1l5-9Zm10 91c2-3 2-8 3-13l1-6c0-3 0-8-2-10l-1-1c-1-4 2-7 2-11l-1-3a1 1 0 0 1 2-2l1-1c0-12-1-26-6-38l-3-5q-1-1-2 1l2 2 4 11 2 14 1 13-1 3h-1c-1 6-2 10-1 17v1l1 1q2 13-2 24v5l-4 4h1a1 1-90 0 1 0-1c3 0 3-3 4-5Zm1-87q3 6 4 13l2 1c1-5-2-9-4-13a1 1-27 0 1 1-2v-2h-4v1l1 2Zm6-2 4 11a1 1-30 0 0 1 0v-1q-1-6-5-10-1-1 0 0Zm-115 0-1-1c-1 0-2 1-2 3h1l2-2Zm87 9a5 1 116 0 0 3-4 5 1 116 0 0 1-6 5 1 116 0 0-3 5 5 1 116 0 0-1 5Zm11-4a2 1 103 0 0 2-2 2 1 103 0 0-1-3 2 1 103 0 0-1 3 2 1 103 0 0 0 2Zm6 44v-1h-1c-1 7-3 16 0 23q0 1 0 0l1-9v-11l2-2v-1q2-7 1-14c0-4-2-8-1-13v-7q0-6-3-11-1-2-1 0c-1 3 2 5 2 8q-1 9 1 21l-1 10 1 7h-1Zm-25-36a5 1 116 0 0 3-4 5 1 116 0 0 1-5 5 1 116 0 0-3 4 5 1 116 0 0-1 5Zm-44-6h-1l-4 10 5-10Zm58 8a4 1 110 0 0 3-3 4 1 110 0 0 0-5 4 1 110 0 0-3 4 4 1 110 0 0 0 4Zm6-7-1 7v1a4 3-80 0 0 4-3v-1a4 3-80 0 0-2-4h-1Zm-12 9a4 2 111 0 0 3-3 4 2 111 0 0 0-4 4 2 111 0 0-3 3 4 2 111 0 0 0 4Zm-6 7 3-12a5 3-72 0 0-4 4l-1 2a5 3-72 0 0 2 6Zm35-12 1 8h1a4 2 80 0 0 1-4v-1a4 2 80 0 0-3-3ZM85 598v-25l1-19 1-44v-14l2-84 1-32v-12l2-27 3-30 3-19 11-53 9-29c3-13 8-26 14-38q4-7-1-1c-7 9-11 23-15 34l-10 37c-2 9-5 17-6 26l-3 11-6 36q-2 9-2 21l-1 8-1 12-1 29v63l-1 41v9l-1 46v54h1Zm131-418a5 1 112 0 0 3-4 5 1 112 0 0 1-5 5 1 112 0 0-3 4 5 1 112 0 0-1 5Zm49-1a4 1 86 0 0 1-4 4 1 86 0 0-2-4 4 1 86 0 0-1 4 4 1 86 0 0 2 4Zm4 4a5 1 81 0 0 1-6 5 1 81 0 0-2-5 5 1 81 0 0 0 5 5 1 81 0 0 1 6Zm-38-4a4 1 106 0 0 3-3 4 1 106 0 0-1-4 4 1 106 0 0-2 4 4 1 106 0 0 0 3Zm13 16c2-2 2-10 1-13l-1-9h-1v1q-2 1-1 2l2 19q0 1 0 0Zm-7-18a2 1 110 0 0 2-2 2 1 110 0 0 0-3 2 1 110 0 0-2 2 2 1 110 0 0 0 3Zm13-3 1 11v1a6 2 85 0 0 2-6l-1-1a6 2 85 0 0-2-5Zm-23 4a2 1 107 0 0 1-2 2 1 107 0 0 0-2 2 1 107 0 0-2 2 2 1 107 0 0 1 2Zm36 7 2 5 1 4h1v-7a2 2-57 0 0 0-1l-4-7a2 2 9 0 0-1-1h-1q0 4 2 7Zm-155-1 3-3v-2a1 1 0 0 0-1 0l-3 5h1Zm131-5a1 1 0 0 0-1 0v1l-1 2 2 16q1 2 2 1c1-3-1-16-2-20Zm-23 10a5 1 108 0 0 3-4 5 1 108 0 0 0-5 5 1 108 0 0-2 4 5 1 108 0 0-1 5ZM92 266l1-2 9-37 3-6 5-19 4-11 2-5 2-4v-1l-5 9c-3 3-3 7-4 10l-4 11-3 10-1 5c-3 12-7 24-9 37v3Zm135-80a3 1 102 0 0 2-2 3 1 102 0 0-1-3 3 1 102 0 0-1 2 3 1 102 0 0 0 3Zm6-2a2 1 87 0 0 1-2 2 1 87 0 0-1-1 2 1 87 0 0-1 1 2 1 87 0 0 1 2Zm24 2 1 11v1h1l1-1q0-8-3-16v5Zm-35 2a4 1 110 0 0 2-3 4 1 110 0 0 0-4 4 1 110 0 0-2 3 4 1 110 0 0 0 4Zm-11 3 3-6-1-1c-2 0-3 5-3 7h1Zm25 17v-5c1-5 0-11-1-16q0-2-1-1h-1v3l2 19h1Zm-30-15a3 1 107 0 0 2-3 3 1 107 0 0 0-3 3 1 107 0 0-2 3 3 1 107 0 0 0 3Zm23 32a1 1 17 0 1 0 1v20l1 13 3 22 1 1a1 1 0 0 0 1-1l-1-13-1-8-1-12-1-18v-6l1-10-1-16q0-2-2-3v-1q2-3 1-6a1 1 0 0 0-2 0v6l1 1-1 2c1 9 2 15 1 26l-1 1-1-12c-1-5-2-10-1-15q0-2-2-1l-1 5 3 31v28l1 11 3 20q1 5 1 0c1-5 0-10-1-16-3-15-2-30-2-50h1Zm-4-36a1 1 0 0 0-1 0l-2 2-1 4a1 1 0 0 0 1 1l2-1a1 1 0 0 0 1-1v-5Zm-7 10-1 1v1l1 5 1-1v-6a1 1 19 0 0 0-1l-1-1c1-2 2-5 1-7a1 1 55 0 0-1 0c-1 1-3 6-2 8h1l1 1ZM93 219l3-8 1-2 6-14 1-4h-1l-5 11-7 18v4q0 1 0 0l2-5Zm169-16 2-8q1-3-1-4h-1v12ZM85 277l-1 7 1-2 1-5 1-4 2-7 12-42 2-10 3-9v-4q3-4 3-9 0-1 0 0c-2 3-4 6-4 10v1l-1 2q-5 12-8 25l-6 29-5 18Zm124-73a7 1 111 0 0 3-6 7 1 111 0 0 1-6 7 1 111 0 0-3 5 7 1 111 0 0-1 7ZM96 194l-3 3v1q3-1 5-4l-1-1v1h-1Zm110 7 1-3a1 1 6 0 0-1-1 1 1-88 0 0-1 1l-1 3q1 3 2 0Zm-6 9c3-3 2-8 2-11v-1h-1l-1 2c-2 8-3 13-2 17v1l1-1v-6a2 1 72 0 1 1-1Zm71-10-2 3a2 2 26 0 0 1 3h1a1 1 0 0 0 2-1l-1-5a1 1 0 0 0-1 0ZM80 244l16-44c-3 1-6 8-7 11l-7 27-2 6q0 1 0 0Zm130-35a5 1 113 0 0 3-3 5 1 113 0 0 1-5 5 1 113 0 0-3 4 5 1 113 0 0-1 4Zm-121-8a4 1-43 0 0-3 2 4 1-43 0 0-2 3 4 1-43 0 0 3-2 4 1-43 0 0 2-3Zm168 5a2 1 100 0 0 1-2 2 1 100 0 0-1-3 2 1 100 0 0-1 2 2 1 100 0 0 1 3Zm-15 9a7 1 93 0 0 2-6 7 1 93 0 0-1-7 7 1 93 0 0-2 6 7 1 93 0 0 1 7Zm-3 2 1 4q-3 15 0 30l1 9 1 1h2v12h1v1-1l3-11a3 3 0 0 0-1-2l-2-4a1 1 0 0 0-1 0v1l-1 2c1-6-1-10-1-16l-1-7v-7c1-2 2-11-2-12l2-13-1-2h-1a1 1 0 0 0-1 1l-1 9c0 2 0 5 2 5Zm27-13h-1v1h2v-1h-1Zm-71 14c-1-4 2-8 2-13h-1l-2 9v10h2l-1-6Zm8-1c2-3 4-7 4-12h-2l-3 12h1Zm-104-6v1-1l2-6-2 6h-1 1Zm-19 23 9-26q0-2-2-1v1l-1 2-3 6-2 8-2 10h1Zm135-22v-5q0-1 0 0l-3 4a2 2 0 0 0 1 2h1v1l2 16 2 35 1 9 2 16v5l4 21q0 3 1 0v-7l-3-23-2-6v-23l-3-38-2-6-1-1Zm-143 9a9 1 129 0 0 6-7 9 1 129 0 0 5-7 9 1 129 0 0-6 6 9 1 129 0 0-5 8Zm152 43 1-5-2-33-2-18q0-2-1 0-2 2-1 6l3 21c1 9 0 19 2 29q0 1 0 0Zm-43-31 11-20 1-4q1-2-1-1v1q-7 11-11 24Zm79-22a2 1 91 0 0 1-2 2 1 91 0 0-1-1 2 1 91 0 0-1 1 2 1 91 0 0 1 2Zm6-1-1-1h-1l1 1v1h1v-1Zm1 5a1 1 0 0 0 2 1l2-2a1 1 0 0 0 0-1l-3-2a1 1 0 0 0-1 1v3Zm-10 8q0-6 2-11a1 1-3 0 0-1-1c-4 2-2 9-2 12h1Zm-49-10-1-1-1 1a12 1-77 0 0-1 12 12 1-77 0 0 3-12Zm33 72c0-4 1-6-1-10v-3a1 1 25 0 0-1-1l-1-4v-1l-1-12-1-14v-10l1-13a3 3-59 0 0 0-2h-1a1 1 0 0 0-1 0l-1 14v7c-1 7 0 14 1 21q0 8 3 22l1 6c4 4 1 10 5 14v-1c0-4 2-10-3-12v-1ZM72 255c2-3 2-7 3-10l1-6 1-5 4-17-1-1a1 1 89 0 0-1 1l-3 8-2 13-2 17v1-1Zm178-39c-3 2 0 9-3 12v1l1 7h1c2-3 1-17 1-19v-1Zm-32 79v-1l-1-19c-1-7-3-16-2-24l-1-14-1-8c0-4 0-10-2-12a1 1 58 0 0-1-1l-1 2 2 19c1 17 2 34 6 52l1 15 2 23h2l1-10-5-22Zm56-74a1 1 0 0 0 1 0l1-3-1-1a1 1 0 0 0 0-1l-2 1 1 4Zm-73 4 1-1-1-6v-1h-1q-2 6-1 12l-1 2h1l1-5 1-1Zm-16 10 6-12 1-2v-2q0-3-2 0-5 9-8 20l-1 3q0 3 1 0c2-2 2-5 3-7Zm79-12 1-4h-1a2 2-86 0 0-1 1v1a2 2-86 0 0 1 2Zm5 1a2 1 79 0 0 1-2 2 1 79 0 0-2-1 2 1 79 0 0-1 1 2 1 79 0 0 2 2ZM65 273l1 1h1-1a1 1-78 0 1 0-1v-2l1-3 2-9 1-6c1-11 1-19 4-28q1-5-2-1l-2 3v6l-2 17v6q-3 8-3 17Zm143-47-2 1a2 2 0 0 0-1 2l4 37 1 14 2 13c2 6 2 14 2 19l3 22q0 3 1 0c2-7 0-15-1-21l-3-27-4-42-2-16v-3 1Zm-11 0a1 1 0 0 0-1 0 1 1 0 0 0-1 0v12a1 1 0 0 0 1 1 1 1 0 0 0 0-1l1-12Zm67 4a2 1 75 0 0 0-2 2 1 75 0 0-2-2 2 1 75 0 0 0 2 2 1 75 0 0 2 2Zm-8 5a5 1 96 0 0 1-4 5 1 96 0 0 0-5 5 1 96 0 0-2 5 5 1 96 0 0 1 4Zm11-5h2v-1a3 1 87 0 0-1-3h-1a3 1 87 0 0-1 3l1 1ZM84 260l8-32h-1q0-1 0 0l-4 9-4 17 1 6q0 1 0 0Zm107-18 2-12q0-2-1-1c-2 1-2 7-3 10l-2 17v1q0 1 0 0l4-15Zm12-12h-1l-1 7q1 24 5 49l3 22 2 13 3 18h1q2-2 0-4a2 2-68 0 1 0-1l-3-19c-2-26-7-52-8-79l-1-6Zm39 11 1 7h1l2-1a1 1 0 0 0 0-2c-1-1-3-3-3-5 0-3 3-4 1-7h-1q-1-1-1 1v7Zm21-3a2 1 72 0 0 1-3 2 1 72 0 0-2-2 2 1 72 0 0-1 3 2 1 72 0 0 2 2Zm-195-4h-1a620 620 0 0 1-11 69l-1 8a1 1 0 0 0 1 1l1-1 1-13 4-15 1-16c1-11 2-22 5-33Zm-5 1h-1 1Zm105 139-2-13 1-14-1-31 1-16 1-10v-5q1-19 8-46a1 1 0 0 0-1-1l-1 2-5 20-2 9-2 40-1 14 1 33v8l1 9 2 11 1 7 1-4-1-9-1-4ZM58 239h-1v4q0 1 0 0l1-4Zm199 8a4 1 99 0 0 2-4 4 1 99 0 0-1-5 4 1 99 0 0-1 5 4 1 99 0 0 0 4Zm-51 72 4 24 2 1 1-1-2-6-1-3v-2l-7-44-4-44-1-3c-2 3-1 7-1 10l1 11v8q1 17 5 34l3 15Zm-44-45 1-1 1-1v-11q0-10 2-19l-3 11q-2 4-2 20a1 1-7 0 0 1 1Zm102-26-1-6a3 2 86 0 0-2 2v2a3 2 86 0 0 2 2h1Zm-74 22q1 3 1 0v-20q2-3 1-8c-2 3-2 7-3 11-1 7 0 11 1 17ZM51 253a5 1 105 0 0 1-4 5 1 105 0 0 1-4 5 1 105 0 0-2 4 5 1 105 0 0 0 4Zm5 10h1l2-1 2-17h-1l-1 1-3 17Zm143 36v-2c-2-11-4-23-4-34l-1-15q0-2-1 0l-1 4v13l1 13 2 18 7 31 4 21 1 1h1a1 1 79 0 0 0-1l-8-42-1-7Zm-30 23 3-30q1-20 5-40v-3q-1-3-2 0l-3 18-3 29-1 10v18h1v-2Zm85-72a1 1 88 0 0 1-1 1 1 88 0 0-1-1 1 1 88 0 0-1 1 1 1 88 0 0 1 1Zm-208 9 2-10q0-1 0 0l-1 1-3 14c-3 7-4 15-4 23v22a1 1 0 0 0 1 1h1v-21l4-30Zm35-3 1-5a3 1-79 0 0-1 2v1a3 1-79 0 0 0 3v-1Zm177-1a1 1 0 0 0 0-1v-2a1 1 0 0 0-1 0l-1 8a1 1 0 0 0 0 1h1a1 1 0 0 0 0-1l1-5Zm-5-2v-1h-1l-2 1v1h2l1-1ZM50 302c2-9 2-19 3-28l2-10 1-11a1 1 0 0 0-1-1l-2 7-4 31-1 19 1 1 1-8Zm229-48 2 2v1l-3-1q-1 0 0 0l4 4h1l2-3v-1l-6-3v1Zm-104 23-2 19q1 3 2 0v-3c2-11 2-22 5-34v-4l-1-1a1 1 85 0 0-1 1l-3 22Zm-137 4 2-15c1-3 3-6 3-10h-1q-2 1-2 4l-5 36 1 10 1 4a1 1-45 0 0 1 0v-1q-2-14 0-28Zm215-23v-2l-1 1 1 1Zm8 1 1-1-1-1v2Zm13 0 6 4a3 2 30 0 0-1-4h-1a3 2 30 0 0-4 0Zm-225 1-4 23-1 27 1 1 1-1c-1-8 0-15 1-23l4-25-1-2h-1Zm224 3 6 4a1 1 0 0 0 1 0v-2q-3-3-7-4h-1v1l1 1Zm-11 0v-1h-1l1 1Zm-5 2v-1l-1-2v2l1 1Zm-77 16 2-18a9 2-81 0 0-3 9 9 2-81 0 0 1 9Zm62-14a2 1 101 0 0 1-2 2 1 101 0 0-1-1 2 1 101 0 0-1 1 2 1 101 0 0 1 2Zm28-2 7 5a4 2 39 0 0-2-4l-1-1a4 2 39 0 0-4-1v1ZM53 303c3-9 4-18 4-26l2-12h-2l-2 9-1 17-2 11v9h1v-8Zm21-34a1 1 115 0 0 1-1 1 1 115 0 0 1-2 1 1 115 0 0-2 1 1 1 115 0 0 0 2Zm11 23h-1q0 1 0 0h-1a1 1 0 0 0-1 1l-3 12v6l-2 9v1l1 1v1l-2 8-4 27q-2 8-3 33a1 1 0 0 0 1 1l1-1 2-16c1-17 3-33 7-50l12-55v-3h-1l-4 13-2 12Zm-54-19-1 6v1l1-1q2-6 1-12l-1 2a2 2 0 0 0-1 1l1 3Zm157 5v-5c1-2 0-4-1-6v8c-1 4-2 8-1 12q0 3 1 0v-8l1-1Zm79-10 8 9a6 2 50 0 0-2-6 6 2 50 0 0-6-3Zm-37 42c-2-2-1-5 0-7l-1-8c0-7-2-14-4-20l-1-7q0-1 0 0v17l2 15 2 8 1 2q-1 7 1 13h1l1-3-2-10Zm40-31-3-3v-1l-5-4a2 2-36 0 0-2 0 1 1-36 0 0-1 1l8 6 4 6 1 3a1 1-16 0 0 1 0l3 2q1 2 2 0l-1-3h-1q-3 1-3-3-1-1 1-1v-1h-1q-1 0 0 0v-1c0-4-6-9-9-11a1 1-52 0 0-1 0 1 1 0 0 0 0 1l8 8-1 1Zm-190-8-1-1h-1v1a10 1-76 0 0-1 10 10 1-76 0 0 3-10Zm203 6c1 2 1 5 3 6q0 1 0 0l-1-5-2-3c0-2 0-3-2-3a1 1 72 0 0-1 2l3 3ZM62 310l3-10c0-5 2-9 3-14l2-10a1 1-30 0 1 0-1v-1l-2 6-2 6-4 17-2 7v1l1 1 1 1v1h2a1 1-73 0 0 1 0l1-3 8-37h-2l-4 19-5 17q-1 2-1 0Zm220-22 3 16 1-2-2-14-1-4c0-4-3-7-4-10l-1-1a1 1 64 0 0-1 1l5 14Zm-101 5c-1 2-3 11-1 14h1l2-19 1-14h-1l-2 19Zm67-7a6 1 89 0 0 1-5 6 1 89 0 0-1-6 6 1 89 0 0-1 6 6 1 89 0 0 1 5Zm40-6a2 1 61 0 0 0-3 2 1 61 0 0-2-2 2 1 61 0 0 0 3 2 1 61 0 0 2 2Zm-99 9 2 11 1 10 8 37 4 16a1 1 0 0 0 1 0l1-1-4-15-1-7c-3-15-7-30-8-45l-2-17h-1a1 1 0 0 0-1 1v10Zm-125-8a2 1 103 0 0 1-1 2 1 103 0 0 0-2 2 1 103 0 0-1 2 2 1 103 0 0 0 1Zm192 1a1 1 59 0 0 0-2 1 1 59 0 0-1 0 1 1 59 0 0-1 1 1 1 59 0 0 2 1Zm5-2 5 2v-1l-4-1h-1Zm16 1a1 1 54 0 0 0-1 1 1 54 0 0-1 0 1 1 54 0 0 0 1 1 1 54 0 0 1 0Zm-254 1h-1l-3 6v1h1a1 1-86 0 0 0-1l3-6Zm231 7a3 1 80 0 0 0-3 3 1 80 0 0-1-2 3 1 80 0 0-1 3 3 1 80 0 0 2 2Zm7-1a3 1 60 0 0 0-3 3 1 60 0 0-2-1 3 1 60 0 0 0 2 3 1 60 0 0 2 2Zm-23 1q0-3-2-5h-1l-3 10a1 1 78 0 0 2 1c2-1 2-5 4-6Zm-175-1 1-2q0-4-1 0v2q0 1 0 0Zm-30 18 1-21a10 2-87 0 0-3 10v1a10 2-87 0 0 2 10Zm-12-5h2a15 1-79 0 0 2-16 15 1-79 0 0-4 15v1Zm237-11a2 1 73 0 0 1-2 2 1 73 0 0-2-1 2 1 73 0 0-1 2 2 1 73 0 0 2 1Zm-246 5q-3 2-3 4l-1 5q1 4 2 1l1-4 1-1 1 1a1 1-85 0 0 1-1l3-8q2-6-2-1l-3 4Zm15-5v4h1a1 1 0 0 0 0-1v-3h-1Zm215 25c-2 4-2 7-1 11q1 4 2 0v-10l-1-4c1-7-1-14-3-21q-1-2-1 0v3c2 4 0 9 2 13l2 7v1Zm31-17-4-2v-1q0-4-4-4l3 4v2h-2a1 1 70 0 1-1 0l-2-5-1-1-1 1c0 2 1 6 3 6l1 1q3 3 1 7h3a1 1 0 0 1 1 1l1 2h1v1l1-1-1-9 1-1 1 1h1l1-3h-1l-3-1q-2-1 0 0l1 1v1q0 1 0 0Zm16 1v-7l-1-1h-2v1l1 2v5a1 1 15 0 0 0 1q2 1 2-1Zm-12-6-2-1a2 2 62 0 0-1-1h-4l-1 1 2 1 1-1h1l7 3 1-2-1-1h-2l-1 1Zm14 0a1 1 48 0 0 0-1 1 1 48 0 0-1-1 1 1 48 0 0 0 2 1 1 48 0 0 1 0Zm-212 3v-3 3Zm123 70v-2c-3-7-4-15-6-22l-3-16c-2-7-4-17-4-27v-4q-2-4-2 0l2 27 4 24 2 9c0 2 2 3 3 5l3 6a1 1 0 0 0 1 0Zm44-72a1 1 93 0 0 0-1 1 1 93 0 0-1 1 1 1 93 0 0 1 0Zm10 3a2 1 42 0 0-1-2 2 1 42 0 0-3-1 2 1 42 0 0 1 2 2 1 42 0 0 3 1Zm-182-2-1 4q0 2 1 1l1-5h-1Zm162 9a4 1 93 0 0 1-4 4 1 93 0 0 0-5 4 1 93 0 0-2 4 4 1 93 0 0 1 5Zm-166-5-3 16h2l1-1h-1q-1 0 0 0l2-14v-5l-1 1v3Zm8 1 1-1q-1-3-1 0l-3 11-6 33-2 13v4l-1 11-1 14v2q1 4 1 0l3-32q0-8 5-31l3-17 1-7Zm-49 2a2 1 81 0 0 0-2 2 1 81 0 0-1-2 2 1 81 0 0 0 2 2 1 81 0 0 1 2Zm249 0 1-1a1 1 0 0 1 0-1h2a1 1 0 0 1 0 1v1a1 1 0 0 0 0 1h1v-4h-4l-2 1v1l2 1Zm-45 13a7 1 86 0 0 1-8 7 1 86 0 0-2-7 7 1 86 0 0 0 8 7 1 86 0 0 1 7Zm20-6-1 1-2 1a1 1 79 0 0-1 1l1 5q0 2 1 1c4-6 8-9 5-16a2 2 66 0 0-3-1l-3 1-1 1 1 3v1l2-1h1v3Zm12-7v-1l-1 1h1Zm-10 15c-5 2-4 7-5 11h1l2-2 2-7a1 1 0 0 1 1-1h2l3-3v-5c1-3 3-5 0-8a1 1 25 0 0-3 1l1 6c-1 1-4 5-3 7l-1 1ZM26 327v-6l-2-16-1-1h-1a2 2 0 0 0-1 2l3 18-1 1 1 3v1q2 0 2-2Zm-15-16a3 1 116 0 0 2-3 3 1 116 0 0 1-3 3 1 116 0 0-2 3 3 1 116 0 0-1 3Zm8 8h1a1 1 0 0 0 1 0q-2-6-1-12l-1-1v-1a1 1-79 0 0-1 1v12a2 2 0 0 0 1 1Zm260-12q-1 0 0 0a1 1-80 0 0 1-1 1 1-45 0 0-1 0v1Zm-251 0a1 1 0 0 0-1 0 1 1 0 0 0-1 1l1 11a1 1 0 0 0 1 0 1 1 0 0 0 1-1l-1-11Zm148 0v5a2 1-89 0 0 1-2v-1a2 1-89 0 0-1-2Zm62 15q0 1 0 0c1-4 2-10 1-14q-1-4-2 0-2 7 1 14Zm37-13v1h1l-1-1Zm9 5a3 1 91 0 0 1-2 3 1 91 0 0-1-3 3 1 91 0 0-1 3 3 1 91 0 0 1 2Zm-252 4a4 1 88 0 0 1-5 4 1 88 0 0-1-4 4 1 88 0 0-1 5 4 1 88 0 0 1 4Zm156 26c1 3 1 6 3 7h1l-1-5q-5-17-5-35 0-2-1-1a1 1 79 0 0-1 0v10c0 9 1 16 4 24Zm93-32v-2a2 1 3 0 0-2 1 2 1 3 0 0 2 2v-1Zm-37 24c3-4 4-13 5-18l-1-7a1 1 0 0 0-1-1l-2 2q1 9-2 19l1 5q0 1 0 0Zm25-23 1 6v7a1 1 0 0 0 1 1c2-1 2-4 2-6v-9l-1-1-3-1h-1c-1 1-4 2-3 4h1v-2h3v1Zm-255 3h1a4 1 90 0 0 0-4h-1a4 1 90 0 0-1 4h1Zm22-3v2h1l-1-2Zm-29 3a1 1-65 0 0 0 1l2-1v-2a1 1 0 0 0-1 0l-1 2Zm36-1-1-1h-1v1h2Zm5-1q-2 0-2 2a1 1 0 0 0 2 0l1-1-1-1Zm219 2v-2h-1v2h1Zm-216 1 2 1a1 1 0 0 0 1-1 2 2-77 0 0-1-3h-1a2 2-77 0 0-2 2 1 1 0 0 0 1 1Zm5 1h1l1-1v-1h-1l-1 2Zm179 14a7 1 87 0 0 1-7 7 1 87 0 0-2-7 7 1 87 0 0-1 7 7 1 87 0 0 2 7ZM63 319a1 1 0 0 0-1-1 1 1 0 0 0-2 1 1 1 0 0 0 2 1 1 1 0 0 0 1-1Zm118-1v20q1 4 4 7h1l-3-10-1-17h-1Zm80 2 1-1-1-1v2Zm-221 0 2-1v-1h-2v2Zm4-1a1 1-72 0 0 0 1q2 1 2-1a1 1 0 0 0-2-1v1Zm220 4h-1q0-1 0 0l1 2h4a1 1 79 0 0 0-1l-1-5q-1-2-2 1v2l-1 1Zm-228 0a2 2 99 0 0 2-2 2 2 99 0 0-1-2 2 2 99 0 0-2 2 2 2 99 0 0 1 2Zm191 9a7 1 87 0 0 1-7 7 1 87 0 0-1-6 7 1 87 0 0-1 6 7 1 87 0 0 1 7ZM65 322a1 1 115 0 0 1-1 1 1 115 0 0 0-2 1 1 115 0 0-1 1 1 1 115 0 0 0 2Zm-11 1a3 1 40 0 0-2-3 3 1 40 0 0-2 0 3 1 40 0 0 1 2 3 1 40 0 0 3 1Zm-43-3a1 1 0 0 0-1 0 1 1 0 0 0-1 1l1 8a1 1 0 0 0 1 0h1l-1-9Zm167 1v1c-2 7-4 12-3 19a1 1-83 0 0 1 1h1c0-6 0-11 2-16l-1-5Zm-162 7a3 1 84 0 0 0-4 3 1 84 0 0-1-3 3 1 84 0 0 0 4 3 1 84 0 0 1 3Zm16-3a2 1 87 0 0 1-2 2 1 87 0 0-1-2 2 1 87 0 0-1 2 2 1 87 0 0 1 2Zm225-2 1-1a1 1 1 0 0 0-1q-3 0-3 2l1 1 1-1Zm-201 1a1 1 126 0 0 2 0 1 1 126 0 0 0-2 1 1 126 0 0-2 1 1 1 126 0 0 0 1Zm-36 4h1v-5l-1-1a1 1 0 0 0-1 1q-1 3 1 5Zm148 3v4q1 2 1 0l3-12a1 1-1 0 0-1 0 2 2 85 0 0-2 1l-1 7Zm-140-5a2 1 88 0 0 1-2 2 1 88 0 0-1-1 2 1 88 0 0-1 1 2 1 88 0 0 1 2Zm33 1q0 2 0 0v-3l-1 1 1 2Zm178 13a8 2 91 0 0 2-8 8 2 91 0 0-2-7 8 2 91 0 0-2 7 8 2 91 0 0 2 8Zm20-11c2-1 2 1 3 3 4-2 3-6-1-8a1 1 0 0 0-1 1l-2 3 1 1Zm-217-3a1 1-4 0 0-1-1 1 1-4 0 0-2 1 1 1-4 0 0 2 1 1 1-4 0 0 1-1Zm9 1-2-2h-2l2 1 2 1Zm176 14 2 2 1-2a1 1-7 0 1 1-1c4-1 2-10 1-12q-1-3-1 0l-1 5-1 1-2 4v1c-4 4-1 10 0 14v3q-1 3 1 1 2-4 0-8v-6l-1-2q0-1 0 0ZM56 326v1q-1 3 2 4h1q0-4-3-5Zm168 12a6 1 84 0 0 1-6 6 1 84 0 0-2-5 6 1 84 0 0-1 5 6 1 84 0 0 2 6Zm-208-7a1 1 0 0 0-1-1 1 1 0 0 0-1 1 1 1 0 0 0 1 0 1 1 0 0 0 1 0Zm49 0h-2a5 1-81 0 0 0 5 5 1-81 0 0 2-5Zm191 6a1 1 0 0 0 1 1l1-1a1 1 0 0 0 1-1l1-2a1 1 0 0 0 0-1l-1-1a1 1 0 0 0-2 0l-1 5Zm18-2a1 1 102 0 0 0-1 1 1 102 0 0 0-2 1 1 102 0 0-1 1 1 1 102 0 0 1 2Zm-221-1h-1v1h1v-1q0-1 0 0Zm183 17 2-10-1-1-1-6v-1l-1 1-1 4 1 16 1 1v-4Zm-55-3c-2-2 0-4-1-6v-8h-1v10l2 7 7 13 4 6a1 1 0 0 0 2 0v-1a2 2 37 0 0 0-2l-12-18a2 2 0 0 0-1-1Zm67-10a2 1 111 0 0 2-2 2 1 111 0 0 0-2 2 1 111 0 0-2 2 2 1 111 0 0 0 2Zm-27 7a6 1 84 0 0 1-5 6 1 84 0 0-2-6 6 1 84 0 0-1 6 6 1 84 0 0 2 5Zm40-4a1 1 81 0 1-1-1v-1h-1l2 11a1 1 75 0 0 1 1l1-2 1-13-1-1v-1a1 1 0 0 0-1 1q-1 2 1 5a1 1 0 0 1-1 1h-1Zm-203-2a2 1 74 0 0 0-2 2 1 74 0 0-1-2 2 1 74 0 0 0 2 2 1 74 0 0 1 2Zm-8-2a1 1 68 0 0 0-1 1 1 68 0 0-1 0 1 1 68 0 0 0 1 1 1 68 0 0 1 0Zm-23 2a1 1 80 0 0 0-2 1 1 80 0 0-1-1 1 1 80 0 0 0 2 1 1 80 0 0 1 1Zm226-2h-1l-1 1v1l2 2h1l-1-4Zm-232 4v-2l-1-2v2l1 2Zm46 0 1-2v-2l-1 2v2Zm205-1a1 1 93 0 0 1-1 1 1 93 0 0-1-2 1 1 93 0 0-1 2 1 1 93 0 0 1 1Zm-30 14-1-1a2 2 0 0 0-2 2l-1 9q-1 0 0 0a2 2-72 0 0 2 0l3-5h1l3-6v-1l-1-2a1 1 0 0 1 1-1l1 2a1 1-5 0 0 1 1l2-2a2 2 0 0 0-1-2l-1-2a1 1 0 0 0-2 0h-1v-1q2-3 1-6h-1l-1 1-2 10v3l-1 1ZM54 341v-1h-1v1h1Zm185 9a6 1 107 0 0 3-5 6 1 107 0 0 0-5 6 1 107 0 0-3 5 6 1 107 0 0 0 5Zm20 8c1-5 2-14-3-18-1 3 0 8 1 11l-1 7h3Zm-41-8a5 2 81 0 0 1-5 5 2 81 0 0-3-5 5 2 81 0 0-1 5 5 2 81 0 0 3 5Zm33-4a2 1 106 0 0 2-2 2 1 106 0 0-1-2 2 1 106 0 0-2 2 2 1 106 0 0 1 2Zm20-2a1 1 100 0 0 0-1 1 1 100 0 0 0-1 1 1 100 0 0-1 1 1 1 100 0 0 1 1Zm-38 10v-11h-1c-3 3-1 8 0 12v1l1-1v-1Zm-205-9 1-2-1 1v1Zm15 1a1 1 85 0 0 0-1 1 1 85 0 0-1-2 1 1 85 0 0 0 2 1 1 85 0 0 1 1Zm5 0a1 1 94 0 0 0-1 1 1 94 0 0 0-1 1 1 94 0 0-1 1 1 1 94 0 0 1 1Zm-10 1a1 1 86 0 0 1-1 1 1 86 0 0-1-2 1 1 86 0 0-1 2 1 1 86 0 0 1 1Zm139 16q1 3 0 0v-16q-2-4-2 0-1 8 2 16ZM27 348l1-1-1-1-2 1v1h2Zm187-1a1 1 0 0 0-2 0l-1 2a1 1 0 0 0 0 1l1 2a1 1 0 0 0 2 0v-5Zm10 9a4 2 85 0 0 1-5 4 2 85 0 0-2-4 4 2 85 0 0-1 5 4 2 85 0 0 2 4Zm45-7a1 1 85 0 0 1-1 1 1 85 0 0-1-1 1 1 85 0 0 0 1 1 1 85 0 0 0 1Zm9-1a1 1 13 0 0 0-1 1 1 13 0 0-2 0 1 1 13 0 0 1 1 1 1 13 0 0 1 0Zm-243 2a1 1 102 0 0 1-1 1 1 102 0 0-1-1 1 1 102 0 0-1 1 1 1 102 0 0 1 1Zm21-1v-1h-1v2l1-1Zm197 1-1 3-1 1q2 5 2 11a1 1 0 0 0 1 0l1-1c1-6 1-10-1-15a1 1 0 0 0-1-1v1a1 1-47 0 1 0 1Zm-66 3 4 7q2 1 2-1l-1-2a4 4-75 0 0-1-3l-4-4q-3-3-2 1l2 2Zm-143 0v-3l-1 1q-1 1 1 2Zm4-3v1h1l-1-1Zm-9 2 1-1v-1l-1 1v1Zm171 5a3 1 75 0 0 0-3 3 1 75 0 0-2-3 3 1 75 0 0 0 4 3 1 75 0 0 2 2Zm69-4-2-2v2a1 1 0 0 0 0 1h2v-1Zm-225 1a1 1 86 0 0 1-1 1 1 86 0 0-1-1 1 1 86 0 0 0 1 1 1 86 0 0 0 1Zm128 8a5 1 69 0 0 0-5 5 1 69 0 0-4-5 5 1 69 0 0 1 6 5 1 69 0 0 3 4Zm37-5a3 2 86 0 0 2-2 3 2 86 0 0-2-3 3 2 86 0 0-2 3 3 2 86 0 0 2 2Zm47 1v5l2-1c1-2 0-5 2-7q1-2 3-2 2-1 0-1c-4 0-6 2-10 1a1 1 0 0 0-2 1v3a1 1 0 0 0 1 1l3-1q2-1 1 1Zm-207-4v-1q-1-2-1 0l1 1Zm-25 1a2 1 21 0 0-1-2 2 1 21 0 0-1 1 2 1 21 0 0 1 1 2 1 21 0 0 1 0Zm16 2a1 1 84 0 0 0-1 1 1 84 0 0 0-1 1 1 84 0 0-1 1 1 1 84 0 0 1 1Zm-10 0a1 1 41 0 0 0-1 1 1 41 0 0-1 0 1 1 41 0 0 0 1 1 1 41 0 0 1 0Zm132-1c0 5-1 9 1 12l2 2h1l1-1-4-12-1-1Zm64 10c0-3 2-6 1-10a1 1-37 0 0-1 0c-2 2-1 4-1 6l-1 1-1 3a1 1 0 0 0 1 1h1l1-1Zm-20-7a1 1 0 0 0 0-2 1 1 0 0 0-2 1l-1 3a1 1 0 0 0 0 1 1 1 0 0 0 2 0l1-3Zm-157 0a1 1 0 0 0-1-1 1 1 0 0 0-1 1 1 1 0 0 0 1 1 1 1 0 0 0 1-1Zm219-1a1 1-15 0 0-1 0 1 1-15 0 0-1 1 1 1-15 0 0 1 0 1 1-15 0 0 1-1Zm-223 1a1 1 15 0 0 0-1 1 1 15 0 0-2 1 1 1 15 0 0 1 1 1 1 15 0 0 1-1Zm176 1a1 1 0 0 0-1-1 1 1 0 0 0-1 1l-1 7a1 1 0 0 0 2 1 1 1 0 0 0 1-1v-7Zm-7-1-3 9a4 3-74 0 0 4-4 4 3-74 0 0-1-5Zm18 6a4 1 123 0 0 3-2 4 1 123 0 0 1-4 4 1 123 0 0-2 3 4 1 123 0 0-2 3Zm7 4a4 1 96 0 0 2-5 4 1 96 0 0-1-4 4 1 96 0 0-2 4 4 1 96 0 0 1 5Zm-199-7a1 1 49 0 0 0-1 1 1 49 0 0-2-1 1 1 49 0 0 0 2 1 1 49 0 0 2 0Zm120 4a3 1 80 0 0 0-3 3 1 80 0 0-1-3 3 1 80 0 0-1 3 3 1 80 0 0 2 3Zm29 4a5 2 64 0 0 0-6 5 2 64 0 0-4-3 5 2 64 0 0 1 5 5 2 64 0 0 3 4Zm73-7a1 1 129 0 0 1 0 1 1 129 0 0 1-2 1 1 129 0 0-2 1 1 1 129 0 0 0 1Zm-87 5 3 1-3-7h-1l1 6Zm33-2-2 2v3q2 1 2-1l1-2 1-1v-4a1 1 5 0 0 0-1l-2 1v1l1 2h-1Zm61-3a1 1-5 0 0-1-1 1 1-5 0 0-1 1 1 1-5 0 0 1 1 1 1-5 0 0 1-1Zm-234 1a1 1 22 0 0-1-1 1 1 22 0 0-1 0 1 1 22 0 0 0 2 1 1 22 0 0 2-1Zm13-1a1 1 0 0 0-1 0 1 1 0 0 0-1 0 1 1 0 0 0 1 1 1 1 0 0 0 1-1Zm153 1h-2l1 7 1 1 1-1-1-7Zm-30 3a1 1 81 0 0 1-2 1 1 81 0 0-1-1 1 1 81 0 0-1 1 1 1 81 0 0 1 2Zm83 0a1 1 127 0 0 1-1 1 1 127 0 0 1-1 1 1 127 0 0-2 0 1 1 127 0 0 0 2Zm-59 3 3 1a1 1 0 0 0 1-1l-1-3a1 1 0 0 0-1-1l-3 2a1 1 0 0 0 1 2Zm40-3v6a3 2 89 0 0 2-3 3 2 89 0 0-2-3Zm28 1v-1h-1v1h1Zm-228 0a1 1 1 0 0-1 0 1 1 1 0 0-2 0 1 1 1 0 0 2 1 1 1 1 0 0 1-1Zm196 5v-4h-1l-1-1-1 1v4a2 2 0 0 0 1 2l3 1a1 1 0 0 0 1-1v-6l-1-1-1 2v3Zm-4-3a1 1 0 0 0-1-1 1 1 0 0 0-1 2v4a1 1 0 0 0 1 1 1 1 0 0 0 1-1v-5Zm-4 1a1 1 0 0 0-2-1l-2 2a1 1 0 0 0 0 1v4a1 1 0 0 0 1 1l2-1a1 1 0 0 0 1-1v-5Zm23 2a2 1 99 0 0 1-1 2 1 99 0 0 0-3 2 1 99 0 0-2 2 2 1 99 0 0 1 2Zm7-2 3 3v-1l-1-3h-1l-1 1Zm-55 1-7-2h-1v3c3 1 7 2 8-1Zm-9 1a2 1 39 0 0-1-2 2 1 39 0 0-2 0 2 1 39 0 0 0 2 2 1 39 0 0 3 0Zm27 8a5 1 81 0 0 1-6 5 1 81 0 0-2-5 5 1 81 0 0-1 6 5 1 81 0 0 2 5Zm-33-5 1-2a12 1 20 0 0-12-3 12 1 20 0 0 11 5v1-1Zm78-2a1 1 114 0 0 1-1 1 1 114 0 0 0-1 1 1 114 0 0-2 1 1 1 114 0 0 1 1Zm-50 4q-1 5-2 0l-1-3h-1a1 1-17 0 0-1 1l1 11h1c2-2 1-3 4-4a1 1 80 0 0 1-1l-1-9a1 1 0 0 0-1 0c-1 0-2 1-1 2l1 3Zm-47-4 7 4a1 1 0 0 0 1-1c-2-3-5-3-8-4v1Zm88 4h1q2-1 1-3l-2-1a1 1 0 0 0-1 0l1 4Zm-7-4h-1c-2 1-2 3 0 4l1-1v-3Zm-45 10q0 4-3 6v1l1 1h1c7-3 7-11 4-17a2 2 0 0 0-3 0l-3 1v1q1 2 3 1a1 1 0 0 1 1 1v2a1 1 0 0 1-1 0q-6-5-12-1-2 1 0 1 5 0 9 2l2 1h1Zm37-8a1 1 32 0 0 0-1 1 1 32 0 0-1 0 1 1 32 0 0 0 1 1 1 32 0 0 1 0Zm-74 31v-30l-1-1a1 1 0 0 0-2 2c3 9 1 17 2 26v3h1Zm12-30-1-1 1 1Zm75 5a1 1 0 0 0 2 0v-4a1 1 0 0 0-1 0l-1-2a1 1 0 0 0-1 1l-1 1a1 1 0 0 0 0 1l2 3Zm-19-4 2 5a3 3 70 0 0 2-4 3 3 70 0 0-4-1Zm9 3q-3 0-4 3l1 1a1 1-78 0 0 1-1l2-3 1-1a1 1 0 0 0 1-1l-1-1a1 1-74 0 0-1 1v2Zm24-2a3 2-36 0 0-3 0 3 2-36 0 0-2 3 3 2-36 0 0 3 0 3 2-36 0 0 2-3Zm-96 44v-42l-2-2-2 1 3 33-1 5 2 9v2l1-1-1-5Zm79-39 1-2-1-2h-1q-1 4 1 4Zm-70-1a1 1 89 0 0 1-1 1 1 89 0 0-1-1 1 1 89 0 0-1 1 1 1 89 0 0 1 1Zm45 3 1-4h-1a1 1-80 0 0-1 1l-1 2a1 1-80 0 0 1 2h1v-1Zm5 1a3 2 74 0 0 1-3 3 2 74 0 0-2-2 3 2 74 0 0-1 3 3 2 74 0 0 2 2Zm-54 13a9 1 82 0 0 0-9 9 1 82 0 0-3-8 9 1 82 0 0 0 8 9 1 82 0 0 3 9Zm44-14a2 1 115 0 0 2-1 2 1 115 0 0-1-2 2 1 115 0 0-1 1 2 1 115 0 0 0 2Zm-31-1a1 1 42 0 0 0-2 1 1 42 0 0-1 0 1 1 42 0 0 0 2 1 1 42 0 0 1 0Zm-6 0h2v-1a1 1 0 0 0-1-1l-1 2Zm11 2a2 1 46 0 0 0-2 2 1 46 0 0-3-1 2 1 46 0 0 1 2 2 1 46 0 0 2 1Zm3 4a1 1 0 0 0 1 0l1-1 1-3a1 1 0 0 0 0-1l-2-2a1 1 0 0 0-2 1l1 6Zm-8-2a1 1 58 0 0 0-2 1 1 58 0 0-1 0 1 1 58 0 0 0 1 1 1 58 0 0 1 1Zm27 1 1 2a1 1 0 0 0 1 0l4-2a1 1-21 0 0 1-1l-1-1-1-1h-4a1 1 0 0 0-1 0v1l-1 1-2 1-1 1-4 6v1h1c2-2 7-4 7-7v-1Zm-34 28c1-5 0-10-1-14v-12l-2-4a1 1 0 0 0-1 0v2l2 17 1 12v6q1 2 1 0v-7Zm2-28a1 1 66 0 0 0-1 1 1 66 0 0-1-1 1 1 66 0 0-1 1 1 1 66 0 0 2 1Zm10 1a1 1 27 0 0 0-1 1 1 27 0 0-2 0 1 1 27 0 0 1 2 1 1 27 0 0 1-1Zm42 8q-2-3-2-7a1 1 89 0 0-1-1 1 1 0 0 0-1 0l4 20c1 2 0 6 2 9l1 1q0 1 0 0l-3-21a7 6 29 0 0 0-1Zm-36 0q-5 0-8-4a2 2 0 0 0-3 1q-1 2 2 4 4 2 9 1 2 0 1-2l1-1q4-2 6-5t-1-1c-1 1-4 4-7 3l-6-1a1 1 0 0 0-1 1q3 3 7 3l1 1h-1Zm28-6 3 13 1-1-1-6-1-5a2 2-2 0 0-1-2q-2 0-1 1Zm-4 0v1l1 3q1 2 1-1l-1-3a1 1 0 0 0-1 0Zm-63 40v-38a1 1-85 0 0 0-1h-1v1l-1 11-1 24v25l3 7v-1c-1-3-1-13 1-16v-1c-1-2-2-6-1-7h1l3 9v-1l1-22c1-5 0-8-2-12h-1v22q-1 4-2 0Zm60-32a2 1 74 0 0 0-2 2 1 74 0 0-1-1 2 1 74 0 0 0 1 2 1 74 0 0 1 2Zm5 0a1 1 0 0 0-1 0l1 6a1 1 0 0 0 1 0l-1-6Zm-36 2c2 4 7 4 9 1q3-2 0-1l-7-2q-3-1-2 2Zm-125-1v-1 1l-1 9h1v-9Zm119 1 1 7v-8l-1 1Zm37 3q0 1 0 0v-3a1 1 0 0 0-1 0 1 1 0 0 0 0 2l1 1Zm-47 24 1-20-1-2h-1v3l1 18-1 4a1 1 0 0 0 0 1l1 3q0 1 0 0c2-2 0-5 0-7Zm14-18a2 1 88 0 0 1-2 2 1 88 0 0-1-2 2 1 88 0 0 0 2 2 1 88 0 0 0 2Zm16-1a1 1 103 0 0 1-1 1 1 103 0 0 0-1 1 1 103 0 0-1 1 1 1 103 0 0 0 1Zm-10 2-1-2q0-2-1 0l1 2v1h1v-1Zm15-1-1-1v1h1Zm18 1v-1l-1-1v1l1 1Zm-59 2-1-2v-2 2l1 2Zm28-3v1l1-1h-1Zm5 3a2 1 71 0 0 1-2 2 1 71 0 0-2-2 2 1 71 0 0-1 3 2 1 71 0 0 2 1Zm31-1a1 1 88 0 0 0-1 1 1 88 0 0 0-2 1 1 88 0 0-1 2 1 1 88 0 0 1 1Zm-10 5a4 1 85 0 0 0-4 4 1 85 0 0-1-3 4 1 85 0 0 0 3 4 1 85 0 0 1 4Zm-158 2v-7 7Zm141-4a1 1 73 0 0 1-1 1 1 73 0 0-1-1 1 1 73 0 0-1 1 1 1 73 0 0 1 1Zm-19 0a1 1 0 0 0-1 0 1 1 0 0 0 0 1l1 23a1 1 0 0 0 0 1 1 1 0 0 0 1-1l-1-24Zm3 4a2 1 96 0 0 1-1 2 1 96 0 0-1-2 2 1 96 0 0-1 1 2 1 96 0 0 1 2Zm13-1a1 1 34 0 0-1-2 1 1 34 0 0-1 0 1 1 34 0 0 0 2 1 1 34 0 0 2 0Zm-6-1v2h2l-1-2h-1Zm13 1a1 1 107 0 0 1 0 1 1 107 0 0-1-1 1 1 107 0 0 0 1Zm-16 2a2 1 91 0 0 1-1 2 1 91 0 0-1-2 2 1 91 0 0-1 2 2 1 91 0 0 1 1Zm40 3a3 1 82 0 0 1-3 3 1 82 0 0-1-3 3 1 82 0 0-1 3 3 1 82 0 0 1 3Zm-28-4v3a1 1 0 0 0 1 0v-3h-1Zm24 7-1-6h-1v4a2 2-72 0 0 1 2 1 1-69 0 0 1 0Zm-27-3 1-1-1-1-2 2 1 1 1-1Zm15 0q1 1 2-1h-1l-1 1a1 1-56 0 1-1 0h-2v1q0 3 3 4h1v-1h-1l-1-1a1 1 0 0 1-1 0l1-2a1 1-72 0 1 1-1Zm7 7-2-7-1-1v1l1 7a1 1 0 0 0 1 1l1-1q1 0 0 0Zm15-2a3 1 79 0 0 0-3 3 1 79 0 0-1-3 3 1 79 0 0 0 3 3 1 79 0 0 1 3Zm-62-2v14l1 9h1v-19a1 1 31 0 0 0-1v-3a1 1-35 0 0 0-1l-1-1h-1v2Zm-117-2-1 8h1v-8Zm2 17a8 1 98 0 0 1-8 8 1 98 0 0 1-9 8 1 98 0 0-2 9 8 1 98 0 0 0 8Zm143 71v5l2 14v15q0 2 1 1v-4l-2-29-1-2v-8l-1-6v-6l-1-10-2-30-1-12-1-13v-3c-2 3-1 10-1 14v5l1 12 1 8 1 17 2 16v3l2 7v6Zm7-15q1-3-1-6l1-1 1-3a1 1 0 0 0 0-1l-2-2-1-14v-9l-1-5-1-18-1-13a1 1 8 0 0-1-1l-1 1 2 16 1 12v8l2 21 1 7v1l-1 6a1 1-64 0 0 1 0v5l1 1v10l1 5v1l-1-16 1-2q1-1-1-2v-1Zm22-72h-2l1 6h2l-1-6Zm-67 18-1 2v1l3 7q0 1 0 0l1-2-1-25a1 1 0 0 0-1-1 1 1 0 0 0-1 1v17Zm47 31v-23a1 1 38 0 0 0-1c-2-2-2-8-2-11l-1-7v-7h-1v11l1 14 1 9 1 14 1 2v3q1 4 1 0 1-1-1-3a1 1-65 0 1 0-1Zm-6 119-2-18-1-14-1-6-2-17-3-20-2-16-1-5q-2-10-2-24l-1-3-1-20-1-8v-15l-1-1v1l-1 3 1 12v5l1 4c0 3-1 4 1 7v14l1 10v14l2 11 1 11 5 32 5 31c0 3 0 8 2 12Zm-2-133-2-20v-9l-1-4a1 1 0 0 0-1 0l-1 1 1 6 2 30v2l1 10 1 18 2 19a1 1 0 0 0 1 1l1-1v-13l-1-4-1-14-1-8-1-14Zm-2 75v-16l-1-4q0-6-2-11v-8q-2-6-2-13l-4-54v-1h-1a1 1-6 0 0-1 0l1 26 2 17v6l2 18 4 30c1 3 2 5 1 8v3q2 0 1-1Zm27-98-1-6v-1h-1v7h2Zm7-1a2 1 91 0 0 1-2 2 1 91 0 0 0-2 2 1 91 0 0-1 2 2 1 91 0 0 0 2Zm-21-3h-1l-1 5v1l2 1 1-1 1-1v-1l-2-4Zm-34 32v-12l-1-16v-3q-2-2-2 1l1 6 1 15c-1 3-1 6 1 9Zm38-24 3-1v-5q-1-2-1 0l-3 5v1h1Zm13-3-1-1v2l1 2h1l-1-3Zm-60 9q1-3-1-7c-2 4 0 6 0 9v16a2 2 35 0 0 0 1l1 3 1-18-1-3v-1Zm57-5a1 1 0 0 0-1-1 1 1 0 0 0 0 1v4a1 1 0 0 0 1 0v-4Zm8 1v-1l-1 1v2a1 1 0 0 0 1 0v-2Zm-180-1h-1l-1 7h1l1-7Zm103 19v1l3 9h1l-1-2v-17l1-1-2-6v-2q-2-1-2 1l1 16a1 1 0 0 1-1 1Zm62-16-1 3a1 1 23 0 0 0 1l3 1v-1l-1-4a1 1 3 0 0-1-1l-3-1q-1-1 0 0 0 2 2 1l1 1Zm-6 9h-2l1 1 2-1v-7a1 1-87 0 0-1-1l-1 1-1 3v1l2 1a1 1 0 0 1 0 2Zm18-1a3 1 80 0 0 0-3 3 1 80 0 0-1-2 3 1 80 0 0-1 3 3 1 80 0 0 2 2Zm-50 10v9-12l1-4-1-6h-1v1l1 12Zm45-11 1 7v1l1-1c0-2 0-7-2-8v1Zm-53 19c0 2-2 4-1 6l1 1 1-1v-1c-3-6 1-11-1-17v-1l-1-5q0-2 0 0v13l1 5Zm61-13h1v1l1 2h1l-1-3-1-5q0-1 0 0-2 2-1 5Zm-11 6 1 4h1l-2-4v-1h-2v-1q0-5-2-9h-1v3h-2q-1 0 0 0l1 1a1 1 0 0 1 1 0l1 6a1 1 0 0 0 1 1h3Zm-61-3c1 5-3 12 2 18v-19l-2-6q-1-3-1 0l1 7Zm62-5v-2h-1v2h1Zm-12 0v7a3 2 86 0 0 2-3v-1a3 2 86 0 0-2-3Zm20 8a4 1 82 0 0 0-4 4 1 82 0 0-1-3 4 1 82 0 0-1 3 4 1 82 0 0 2 4Zm-79-6q-1-1 0 0v5l-1 13v6c1 2 1 6 3 8l1-23q0-5-3-9Zm50 166-1-1-1-12-1-10-1-11-2-18-2-16-2-16-3-17-2-15-1-8v-5l-1-9-1-5v-7l-1-13v31l1 10 1 6 2 13 6 49 4 29 1 7 2 17 1 1 1 1v1l1 6h1l-1-6v-5q1-13-1-26v-1h-1v1l2 27a1 1-24 0 1-1 1v1Zm25-149v6a1 1-4 0 0 1 1 1 1 0 0 0 1-1l-1-5q0-2-1-1h-1v-1l2-2v-8a1 1-2 0 0-1-1l-1 1c0 3 2 8-1 9a1 1 88 0 0-1 0q0 2 3 2Zm9-3v-6h-1a3 2 88 0 0-1 3 3 2 88 0 0 2 3Zm-81 20 3 10 1-17v-10l-3-8h-1l2 12-1 13h-1Zm59-18c0-2 0-3 2-4a2 2 0 0 0-1-3h-2a1 1-89 0 0 0 1c-1 1-1 5 1 6Zm6-2a3 1 74 0 0 0-3 3 1 74 0 0-1-2 3 1 74 0 0-1 3 3 1 74 0 0 2 2Zm11 2a3 1 88 0 0 1-4 3 1 88 0 0-1-3 3 1 88 0 0-1 3 3 1 88 0 0 1 4Zm-55 16v-18l-1-4q0-2 0 0l-1 7 2 15Zm-9-3 1-12v-5h-2a2 2 74 0 0 0 1l1 16v5-5Zm68-6 1-3-1-2v5Zm-16-4-1 2v1l2 1q0 1 0 0v-4a1 1 0 0 0-1 0Zm-56 13 1-4c-1-3-2-6-4-7v7l1 23 1 4q1 1 1-1v-17a1 1 77 0 1 0-1h1a1 1 0 0 1 1 1v28a1 1 0 0 0 1 0h1v-15l-1-12-1-3-1-1-1-1v-1Zm69-5a3 1 87 0 0 1-3 3 1 87 0 0-2-3 3 1 87 0 0-1 3 3 1 87 0 0 2 3Zm-20-3 1 2a2 2 13 0 0 1 2h1l1-6v-1l-4 2c-3 1-4 4-3 7v1l-1 2h1a1 1-84 0 0 1 0v-7a1 1-29 0 1 0-1l2-2v1Zm12-2v2a1 1 0 0 0 1 0l-1-2q0-1 0 0Zm-45 4-1 7 1 1h1v-10h-1v2Zm-8-1h-1v20h1v-20Zm56 2v5a2 2 84 0 0 2-3 2 2 84 0 0-2-2Zm-7 6a3 1 91 0 0 1-3 3 1 91 0 0 0-2 3 1 91 0 0-1 2 3 1 91 0 0 0 3Zm12-3-1-1v1l-1 6h2v-6Zm4 0a1 1 0 0 0-1-1v5a1 1 0 0 0 1 0v-4Zm-82 35c-2-3 1-16-1-21l1-4c1-2-1-6-2-7q-1-5-1 0v26l1 4 5 12 1 2v-30a2 2 0 0 0-1-1l-1-1v20h-2Zm60-28v1q-1 2 1 2a1 1 0 0 0 2-1l-1-5-1-2h-1a1 1-85 0 0-1 1v4h1Zm-34-2a1 1 46 0 1-2 0l-1-1a1 1 0 0 0-1 1l2 2h2a1 1 0 0 0 1 0v-2h-1Zm-5 0a1 1 0 0 0-1 0 1 1 0 0 0-1 0v20a1 1 0 0 0 1 1 1 1 0 0 0 0-1l1-20Zm47 3a1 1 0 0 0-1-1 1 1 0 0 0-1 1v3a1 1 0 0 0 1 1h1a1 1 0 0 0 0-1v-3Zm13-1-1 6 2 1a1 1 0 0 0 1-1l-2-6Zm-8 1 1 5v1l1-1 1-6h-2a1 1 0 0 0-1 1Zm-46 3v2l1-1v-2h-1l-2-1-1 1 1 1 1-1 1 1Zm30-1a1 1 0 0 0-1-1 1 1 0 0 0-1 1l1 4a1 1 0 0 0 1 0v-4Zm22 8a2 1 86 0 0 0-2 2 1 86 0 0-1-3 2 1 86 0 0 0 3 2 1 86 0 0 1 2Zm-16 4a4 1 86 0 0 0-4 4 1 86 0 0-1-5 4 1 86 0 0 0 5 4 1 86 0 0 1 4Zm5-2v-6h-1l-1 1v7h4l2-1h-3a1 1-6 0 1-1-1Zm-10-3h-2l-1 1v1l2-1 1 1 1 1v-3h-1Zm17 1a1 1 0 0 0 0-1h-1a1 1 0 0 0 0 1v5a1 1 0 0 0 1 1 1 1 0 0 0 1-1l-1-5Zm6 2v4h1l1 2 1-1v-4l-3-1Zm-57 5v-5l-1 6c0 4-2 7 0 11a1 1 0 0 0 1 0v-12Zm34-4a1 1 0 0 0-1 1l-1 3a1 1 0 0 0 0 1l1 1a1 1 0 0 0 1 0l1-2a1 1 0 0 0 0-1l-1-3Zm-42 2a1 1 0 0 0 0-1 1 1 0 0 0-1 1v25a1 1 0 0 0 1 1 1 1 0 0 0 1-1l-1-25Zm63 0a1 1 0 0 0-1 0 1 1 0 0 0-1 0l1 6a1 1 0 0 0 1 1 1 1 0 0 0 0-1v-6Zm6 0-1 2v1l3 8v1l1-3c-1-3-3-5-2-9h-1Zm-17 8a4 1 80 0 0 1-4 4 1 80 0 0-2-3 4 1 80 0 0 0 4 4 1 80 0 0 1 3Zm-18-3a1 1 0 0 0-1-1 1 1 0 0 0-1 1l1 18a1 1 0 0 0 1 1 1 1 0 0 0 0-1v-18Zm13 6a3 1 86 0 0 0-3 3 1 86 0 0-1-2 3 1 86 0 0 0 2 3 1 86 0 0 1 3Zm12 2a4 1 86 0 0 0-4 4 1 86 0 0-1-3 4 1 86 0 0-1 3 4 1 86 0 0 2 4Zm-67-6h-1l-1 1a26 1 90 0 0 1 26h1a26 1 90 0 0 1-26l-1-1Zm45 11v6q0 1 0 0v-6l1-10h-2v6a1 1-52 0 0 0 1l1 2v1Zm28-9 1 6a3 2 86 0 0 2-3 3 2 86 0 0-2-4h-1v1Zm-23 7v1-3a1 1 0 0 0 0-1l-1-2q0-1 0 0-2 2 0 5h1Zm22 2-1-7q-1-2-1 0l-1 6 1 2h1l1-1Zm-60 21 1-19-1-8h-1v25l1 2Zm43-23 2-1-2-1h-1l-1 1 1 8a1 1-85 0 0 1 1h1l-1-7a1 1-17 0 1 0-1Zm5 4a1 1 0 0 0 1-1l1-3a1 1 0 0 0-1-1v-1a1 1 0 0 0-1 0l-1 1a1 1 0 0 0-1 1l2 4Zm-44-2v-2 2Zm49-1q2 2 1 4v2q0 2 2 2v-8a1 1 3 0 0-1 0l-1-1-1 1Zm12 3v-3c-2 1-1 3 0 5v-2Zm2-1 1 1h1v-1l-1-1-1 1Zm-61 4a2 1 71 0 0 0-2 2 1 71 0 0-1-1 2 1 71 0 0 0 2 2 1 71 0 0 1 1Zm-15 20h2a22 1-89 0 0-1-22 22 1-89 0 0-1 22Zm71-20v7a1 1 47 0 1 0 1q-2 5 0 10h2a1 1 73 0 0 0-1l-2-9c0-3 2-5 1-8v-1l-1 1Zm-25 4a2 1 89 0 0 1-2 2 1 89 0 0-1-2 2 1 89 0 0 0 2 2 1 89 0 0 0 2Zm14-2a1 1 95 0 0 1-1 1 1 95 0 0-1-2 1 1 95 0 0-1 1 1 1 95 0 0 1 2Zm8 7a4 1 88 0 0 1-4 4 1 88 0 0-1-4 4 1 88 0 0-1 4 4 1 88 0 0 1 4Zm-76 33 1-11-1-16c0-5 2-8-1-13h-1v37l2 7q-1 0 0 0a1 1-84 0 0 1 0l-1-3v-1Zm84-33q-2 3 0 7h1c2-4-1-6-1-10v-1l1-3q0-2-1 0v7Zm-19-6-1 4 1 1h1v-5h-1Zm-44 23a11 1 89 0 0 0-11 11 1 89 0 0-1-12 11 1 89 0 0-1 12 11 1 89 0 0 2 11Zm26-17 1-3v-2l-1 2v3Zm-163-4a1 1 0 0 0-1 0l-2 15a1 1 0 0 0 1 0l2-15Zm167 0h-1v11l1 1v-12Zm7 4 2 3a1 1 0 0 0 1-1l-2-5v-1a1 1 0 0 0-2 1l1 3Zm-3 7-1-6v-1l1-2-1 1c-1 3-2 6 0 8l1 1v-1Zm33-9a1 1 3 0 0-1 0 1 1 3 0 0-1 0 1 1 3 0 0 1 1 1 1 3 0 0 1-1Zm-13 6-3-4h-1q-1 2-3 2l-1 1h1c1 0 5-1 6 1h1Zm-14 5h5v-1l1-5-3-2 1 6a1 1 0 0 1-2 0h-1q-5 3-2 8a1 1 50 0 0 2 0 1 1 0 0 0 0-2l-1-3v-1Zm-48-5a1 1 0 0 0-1 0l-1 21a1 1 0 0 0 1 1 1 1 0 0 0 1-1v-21Zm-10 6-1 16 1 16 1 2 1-3v-12l-1-16q-1 0 0 0v-3l-1-5v5Zm46 49c1-9 0-19-1-27l-1-11-1-4v-6l-1-6v6l1 14 2 21v5l1 8q0 1 0 0Zm10-54h-1l-1 2h2v-2Zm13 4c2 0 3 3 3 5a1 1 0 0 0 1-1q2-5-4-7l-1 1h1a1 1 0 0 0 0 2Zm-18 7v2l1 1a1 1 76 0 0 1-1l-1-6a1 1 0 0 0-1-1c-3 0-3 3-3 5v1l1-1h2Zm30 1a1 1 0 0 0 0 1h2a1 1 0 0 0 1-1l-1-4a1 1 0 0 0-1 0l-1 4Zm-110-3v-1l-1 1v6h1v-6Zm-91 27v-5l1-13v-7q0-4-1-1v3l-2 10v10l-1 23-1 9v8q0 2 1 1v-1l2-24v-3l1-10Zm184-21-1-5v-1h-1v5a1 1 0 0 0 0 1l1 1 1-1Zm3-6 3 10a5 2 75 0 0 0-5 5 2 75 0 0-3-5Zm11 4a1 1 71 0 0 0-2 1 1 71 0 0-1-1 1 1 71 0 0 0 2 1 1 71 0 0 1 1Zm-65-1-1 27h1a13 2-89 0 0 2-13 13 2-89 0 0-2-14Zm7 10c2-3 0-7 0-10v13-3Zm64 4 2 3 1-1-2-6h-1v3a1 1 0 0 1-1 0l-1-1-1-6q0-3-1 0v2l1 5 1 1h2Zm-35-8v-1l-1 1 1 1v-1Zm26 4v-2l1-2-3-1a1 1 0 0 0-1 1l1 3v1l1 1 1-1Zm-17-4h-1l1 6h1l-1-6Zm-53 32c2-5 0-12 1-18v-12l-1-1v-1h-1v18c0 3-1 11 1 14q0 1 0 0Zm58-24q2 0 2 2h1l1-2v-1h-2q-1-4-4-6v-1 1l2 2q0 5-4 6l-1 1-1 4 1 1a2 1-67 0 1 1 1v18l1 8v5l2 15v12h1l-1-17-1-16c0-8-2-18-1-27l-1-4a1 1 0 0 1 1-1h2v-1h1Zm-10 17c0 4 2 7 0 11v1l1 4 1 20a1 1-4 0 0 1 1l1-2-1-10v-17l-2-2v-1l1-3-1-13-1-9v-1q0-1 0 0l-1 8 1 13Zm19-14v2a1 1 81 0 0 1 0h1a1 1-9 0 0 1 0l-1-4a1 1 0 0 0-2-1l-2 2a1 1-88 0 0-1 1q-1 2 1 4a1 1 26 0 0 1 0v-3q0-2 1-1Zm-56-1 1 22v1h1v-24l-1-1v1l-1 1Zm64 4-1-4q0-2-2 0-1 1 1 4h2Zm-17-2c0 2 0 6 2 8h1l-1-9a1 1 82 0 0-1 0h-1v1Zm-186 1v-2h-1v6l1-3v-1Zm211 10-1-11h-1c0 5 0 12 3 15h1v-1q-2-1-2-3Zm-5-7-1-1h-1v5h2v-4Zm-74 0a1 1 0 0 0 0-1 1 1 0 0 0-1 1v32a1 1 0 0 0 1 0v-32Zm66 4a2 1 65 0 0 0-2 2 1 65 0 0-2-1 2 1 65 0 0 0 2 2 1 65 0 0 2 1Zm3 9a4 1 97 0 0 1-4 4 1 97 0 0 0-4 4 1 97 0 0-1 4 4 1 97 0 0 0 4Zm-203-8v5h1v-5h-1Zm193 0 2 7v1a1 1 0 0 0 1 0v-4l-3-4Zm-3 4a1 1 0 0 0-1 0 1 1 0 0 0-1 1l1 7a1 1 0 0 0 1 1 1 1 0 0 0 1-1l-1-8Zm8 1c-1 3-1 6 1 8l1-1-2-7Zm10 10a4 1 86 0 0 1-5 4 1 86 0 0-2-4 4 1 86 0 0 0 5 4 1 86 0 0 1 4Zm-70-7a1 1 0 0 0-1-1 1 1 0 0 0 0 1v35a1 1 0 0 0 0 1 1 1 0 0 0 1-1v-35Zm-138-1-1 7v1l1-1v-7Zm125 2v38a19 2 90 0 0 2-19 19 2 90 0 0-2-20v1Zm87 4a2 1 77 0 0 0-2 2 1 77 0 0-1-2 2 1 77 0 0 0 2 2 1 77 0 0 1 2Zm-8 9a5 1 88 0 0 1-5 5 1 88 0 0-2-5 5 1 88 0 0 0 5 5 1 88 0 0 1 5Zm-58-8h-1v10h1v-10Zm50 0a1 1 0 0 0-1 0v4a2 2-62 0 0 0 2h2l-1-6ZM47 614v-10 10Zm57-8h-1l-1 51h1l1-51Zm159 1a1 1 0 0 0-1-1 1 1 0 0 0 0 1l1 10a1 1 0 0 0 1 0l-1-10Zm-36 124-1-15-1-18v-11l-1-9-3-47-1-20-1-2q0-1 0 0v24c1 17 4 31 4 50v6l1 10 1 33h1a1 1 0 0 0 1-1Zm29-121q0-3-1 0c0 2-1 7 1 8h1l-1-8Zm-8 9a5 1 87 0 0 1-4 5 1 87 0 0-1-5 5 1 87 0 0-1 5 5 1 87 0 0 1 4Zm-9 3c1-3 0-7-1-10q0-2 0 0c0 2-1 9 1 11v-1Zm-49-9a1 1 0 0 0-1 0l1 34a1 1 0 0 0 0 1h1a1 1 0 0 0 0-1l-1-34Zm71 6a3 1 82 0 0 1-3 3 1 82 0 0-2-3 3 1 82 0 0 0 3 3 1 82 0 0 1 3Zm-17 7a6 1 84 0 0 0-6 6 1 84 0 0-1-6 6 1 84 0 0 0 6 6 1 84 0 0 1 6Zm-65-9a1 1 0 0 0-1-1 1 1 0 0 0-1 1v31a1 1 0 0 0 1 1 1 1 0 0 0 1-1v-31Zm-132 1-1-1-1 15 2-14Zm206 9a4 1 87 0 0 1-4 4 1 87 0 0-2-5 4 1 87 0 0 0 5 4 1 87 0 0 1 4Zm11 2h1v-8h-1v8Zm-3-1a3 1 84 0 0 0-3 3 1 84 0 0-1-4 3 1 84 0 0 0 4 3 1 84 0 0 1 3Zm-212 9v-11q0-2-1 0v11q0 2 1 0Zm200-4v-8h-1l-1 1 1 7h1Zm-10-1a2 1 70 0 0 1-2 2 1 70 0 0-2-2 2 1 70 0 0 0 2 2 1 70 0 0 1 2Zm17 2a3 1 94 0 0 1-3 3 1 94 0 0 0-3 3 1 94 0 0-2 3 3 1 94 0 0 1 3Zm-74 30v-33q0-3-1-1l-1 3c2 8 0 18 0 25l1 3a1 1 36 0 1 0 1v2h1Zm52 46v-5l-1-8v-16l-2-33v-14l-1-3h-1v3l1 16 1 8 1 16v21c-1 5 0 9 1 14l1 6v-5Zm32-78h-1v7h2l-1-7Zm-21 7v-5q1-2-1-2l-3 2a1 1 0 0 0 0 1c4 3 3 6 4 10v-6Zm9 4c0-3 0-5-2-8q0-1 0 0l2 9v-1Zm7-2a4 1 83 0 0 1-3 4 1 83 0 0-2-4 4 1 83 0 0 0 4 4 1 83 0 0 1 3Zm-12 1a2 1 81 0 0 0-2 2 1 81 0 0-1-2 2 1 81 0 0 0 2 2 1 81 0 0 1 2Zm-9-2v-1l-1-1v1l1 1Zm29 1 1 2 1-1-2-2v1Zm-20 2h-1l1 6v1h1v-1l-1-6Zm-8 1a1 1 0 0 0 0-1h-1a1 1 0 0 0 0 1v5a1 1 0 0 0 1 1 1 1 0 0 0 0-1v-5Zm17 5a3 1 83 0 0 1-3 3 1 83 0 0-1-3 3 1 83 0 0-1 3 3 1 83 0 0 1 3Zm-72 28a16 1 90 0 0 0-16 16 1 90 0 0 0-15 16 1 90 0 0-1 15 16 1 90 0 0 1 16Zm80-29h-1l1 5h1l-1-5Zm-20 11a5 1 83 0 0 0-5 5 1 83 0 0-1-4 5 1 83 0 0 0 4 5 1 83 0 0 1 5Zm9 1a4 1 82 0 0 0-4 4 1 82 0 0-1-4 4 1 82 0 0 0 4 4 1 82 0 0 1 4Zm7 1h1a1 1-21 0 0 0-1v-6a1 1-81 0 0-1-1h-1v1l1 7Zm8-6h-1l-1 1h1l1-1Zm-77 39 1-3v-34l-1-1q0-1 0 0v53l-1 7v16l1 17v13h1v-66l-1-1v-1Zm49-33a2 1 83 0 0 1-2 2 1 83 0 0-2-2 2 1 83 0 0 0 2 2 1 83 0 0 1 2Zm24-4 1 14 1 1v-1c1-4-1-10-1-14h-1Zm-15 7-1-6v7a1 1 0 0 0 1 1v-2Zm8 6a5 1 83 0 0 1-5 5 1 83 0 0-2-5 5 1 83 0 0 0 5 5 1 83 0 0 1 5Zm-12 6a5 1 84 0 0 0-6 5 1 84 0 0-1-5 5 1 84 0 0 0 6 5 1 84 0 0 1 5Zm-5-6a2 1 81 0 0 0-2 2 1 81 0 0-1-2 2 1 81 0 0 0 2 2 1 81 0 0 1 2Zm13-3h-1a10 1 82 0 0 2 10 10 1 82 0 0-1-10Zm17 5-1-2v2h1Zm-9 0a1 1 0 0 0-1-1 1 1 0 0 0 0 1v7a1 1 0 0 0 1 1 1 1 0 0 0 1-1l-1-7Zm-11 10a4 1 86 0 0 0-4 4 1 86 0 0-1-4 4 1 86 0 0 0 4 4 1 86 0 0 1 4Zm-10 6h2v-1a12 1 86 0 0-2-12 12 1 86 0 0 0 12v1Zm18-4a4 1 85 0 0 0-3 4 1 85 0 0-1-4 4 1 85 0 0 0 4 4 1 85 0 0 1 3Zm9 5c0-4 0-8-2-11q0-1 0 0l1 11h1Zm-21 8a8 1 87 0 0 1-8 8 1 87 0 0-2-8 8 1 87 0 0 0 8 8 1 87 0 0 1 8Zm8-7a4 1 85 0 0 0-5 4 1 85 0 0-1-4 4 1 85 0 0-1 5 4 1 85 0 0 2 4Zm16-4 1-1v-1a1 1 53 0 0-2 0q-1 2 1 2Zm1 5v-3a2 1 87 0 0-2 1v1a2 1 87 0 0 2 1Zm-9 6 1-1a1 1 69 0 0 0-1v-6a1 1 8 0 0-1-1 1 1 0 0 0-1 1l1 8Zm-11-8a1 1 0 0 0-1 0 1 1 0 0 0-1 0l1 15a1 1 0 0 0 1 1 1 1 0 0 0 0-1v-15Zm8 7-1-3q-1-4-1 0l1 6h1v-3Zm-20 14v1l1-1a1 1-76 0 1 1 0h1v-1l-1-13h-1v13a1 1 83 0 1-1 1Zm16 2c2-2 0-6 0-8l-1-6q0-3-2 0l1 1v1l1 11a1 1-25 0 0 1 1Zm12-14h-1l1 13h1v-1l-1-12Zm6 11c-2-2-2-5-2-8h-1v13a1 1 0 0 0 1 0h2v-5Zm-26 8-1-15a1 1 0 0 0 0-1h-1a1 1 0 0 0-1 1q2 7 1 14a1 1-80 0 0 1 2h1v-1Zm17-5-1-8a1 1 0 0 0-1-1 1 1 84 0 0-1 0v6c0 2 1 3 3 3q1 0 0 0Zm-13 12a8 1 85 0 0 0-8 8 1 85 0 0-2-7 8 1 85 0 0 0 7 8 1 85 0 0 2 8Zm7-12a2 1 92 0 0 1-1 2 1 92 0 0 0-2 2 1 92 0 0-1 2 2 1 92 0 0 0 1Zm2 13a6 1 85 0 0 1-6 6 1 85 0 0-2-5 6 1 85 0 0-1 5 6 1 85 0 0 2 6Zm-18-10h-2l1 17v1h1v-18Zm27 6q1-1-1-2a1 1-72 0 1 0-1v-3h-1v9l1 5q1 2 1 0v-3h2a2 2 21 0 0 2-1v-4l-1-1-1 2a1 1 0 0 1-2-1Zm-13 14a8 1 85 0 0 0-8 8 1 85 0 0-2-8 8 1 85 0 0 0 8 8 1 85 0 0 2 8Zm6-5a2 2-79 0 1 1 2l1 3h1a1 1-30 0 0 0-1l-1-13a1 1 9 0 0-1 0v7l-1 1v1Zm-16-7a1 1 0 0 0 0-1h-1a1 1 0 0 0 0 1v13a1 1 0 0 0 1 1 1 1 0 0 0 0-1v-13Zm28 6v-1h-2v2l2-1Zm-23 9a2 2 0 0 0 0-2l-1-6q0-2-1-1c-1 3 0 10 1 13l1-4Zm22-2a2 1 82 0 0 0-2 2 1 82 0 0-1-2 2 1 82 0 0 0 2 2 1 82 0 0 1 2Zm-13-2a1 1 0 0 0-1-1 1 1 0 0 0 0 1v11a1 1 0 0 0 1 0 1 1 0 0 0 1-1l-1-10Zm-18 2-1-1-1 1v23l1 1 1-1v-23Zm26 1a1 1 0 0 0-1-1 1 1 0 0 0 0 1v9a1 1 0 0 0 1 0 1 1 0 0 0 1 0l-1-9Zm-14 1q-2 3 0 6v1q0 4 2 7v-1c1-3 0-10-2-13Zm20 20a9 1 86 0 0 1-9 9 1 86 0 0-2-9 9 1 86 0 0 0 9 9 1 86 0 0 1 9Zm-28-18h-2v1a15 1 87 0 0 2 15 15 1 87 0 0 0-15v-1Zm19 19-1-14h-1v11l2 4v-1Zm-14 1a7 1 85 0 0 0-7 7 1 85 0 0-2-7 7 1 85 0 0 0 7 7 1 85 0 0 2 7Zm9 2h1a10 1 87 0 0-1-11 10 1 87 0 0-1 11h1Z"/>
  <path d="M307 23a1 1 83 0 0 0 1h7v1a1 1 22 0 1-1 1l-7-1a1 1 0 0 1 0-1v-3h1q6-1 12 1v1q0 1 0 0h-12Zm18 18-1-1 2 2v1l-1-1v-1Zm-68 27v-2l5-5-5 7Zm32 19-1 1a1 1 0 0 1-1 0l-2-4a1 1 0 0 0-1 0l-3 5c-1 3-6 1-9 5h1l5-1h1v1l-5 1h-2a1 1 68 0 0-1-1l-4 3a1 1-39 0 1-1 0h-1v-2l1-1q1 0 0 0c-1-1-2 0-3-2a1 1-18 0 1 1 0h4a1 1-63 0 0 1-1l7-4a1 1-4 0 0 0-1q2-5-3-6h-1c0 5-2 8-7 6v-2q0-2-2-2a1 1 0 0 0-2 1v1q1 1 0 0l-5-2a1 1 0 0 1 0-1c2-3 7-6 10-7a1 1-30 0 1 1 0v1h9l3 1q2-1 0-2c-4-1-5-4-10-2a1 1-41 0 1-1 0q-3-2-7 0h-2a1 1 0 0 1-1-2l7-6v1l-4 5v1l5-3a1 1-53 0 1 1 0l7 1h6l3 3a2 2-12 0 0 1 1l6 2v3l3 1v1h-1v1h1q3-2 3-6a1 1 0 0 1 0-1c2 1 3 2 2 4q-1 3-4 4a1 1 0 0 0 0 1l1 1a1 1 32 0 0 1-1l3-4q0-1 0 0c2 4-6 7-9 9l-1-1Zm-8-7a1 1 23 0 0-1-1 1 1 23 0 0-1 0 1 1 23 0 0 1 1 1 1 23 0 0 1 0Zm-21 1a1 1-1 0 0-1-1 1 1-1 0 0-1 1 1 1-1 0 0 1 1 1 1-1 0 0 1-1Zm-18 1-1 5q0 2-1 0c-1-6 4-13 8-17l1 1v1c-4 2-6 5-7 10Z"/>
  <path d="M245 92v-1l1-1v5q0 2-1 1v-2h-1v-1h-1v-9c1-3 3-7 6-10v1c-4 6-7 9-5 16l1 1Zm5 1 1 4a1 1 4 0 1-1 1l-1-1-1-5h1l1 1Zm8 10 3-4a1 1 0 0 1 1 1l-2 4a1 1 0 0 1-1 0l-1-1Zm21 7 4-7a1 1 63 0 0 0-1l1-1q0-1 0 0l-4 10a1 1 0 0 1-1-1Zm-1-5q2 0 2-2l1-1-2 6-1-1v-1a1 1-80 0 0-1-1v-1l2-1v1h-1v1Zm-45-1q-2 6-1 12h-1q-1-7 2-12v-1 1Zm42 1q0 1 0 0h-1v-1h1v1Zm22 12v5q-1 2-3 2l-1-1v-1h-1q-1 3-4 4-2-2-1-4l3 1h1a1 1 0 0 0 0-1v-2c2-1 3-3 6-3Zm-27 8h2v2h1l3 4h-3c-2-1 0-3-4-3l-2-2 1-1h2Zm8 3 3 1-2 1h-1v-2Zm12 6-2 3-2-7q1-2 1 0l3 4Zm0-5 3 1v2h-2l-1-3Zm-46 6 1 1v1h-1l-1-1h1v-1Zm40 11 1 4q1 2 2 1 1 0 0 0l-2 1a1 1 0 0 1-1-1v-5Zm-32 8 1 1v1l-1 1-1-2v-1h1Zm26 63v4-4Zm-173 52v5l-1 3v-2l1-6Zm-39 2v2a1 1-78 0 0 0 1h1-1l-1-1 1-2Z"/>
  <path d="m105 274-3 29-1 6-1 9-4 55-1 24-1 30v34l-1 20-1 78v58l-1 45-1 49-2 29-1 23h-2l2-45v-7c2-45 3-91 3-136v-46l1-33 1-44 1-35 2-59q1-23 6-59l1-6 1-8v-2a1 1-28 0 0 1-1v-5l1-3Zm-20 3h1l-1 5-1 2 1-7Zm0 15-4 17-3 14v-1l-1-1v-1l2-9v-6l3-12a1 1 0 0 1 1-1h1q0 1 0 0h1Zm-73 3v5l-1 1-1-1v-1H9q0-2 3-4Zm59 5-1-1v-3l1-1v5Zm-65 6-2-1 2-4v-1l1 1-1 5Zm1 10 1-2a1 1 0 0 1 1 0v2l-2 1a1 1-65 0 1 0-1Zm-5-2 1 7 1 1q2 0 2 2l3 5-1 2-5-5v-1l-1-4v-7Zm80 12v-3h1l-1 3Zm2 1v4l-1-1 1-3Zm-58 21h-1v-1l2-1 1 1-1 1h-1Zm7 10 1 1h1l-1 1-1-1v-1Zm248 14-1 2 1-2ZM69 402v-1 2-6h1l-1 2v3Zm182 37 1 10-1-10ZM67 456v6-6Zm179 4h2l1 3h-1l-1-2v-1h-1Zm-183 5-1 1h-1a1 1 1 0 1 0-1v-2l1 1h1v1Zm-9 28-1 12 1-12Zm-6 63q1 3-1 6l1-6Z"/>
</svg>
